<svg width="277" height="16" viewBox="0 0 277 16" fill="none" xmlns="http://www.w3.org/2000/svg">
<path d="M4.18219 0.84C1.68219 0.84 0.242188 2.36 0.182188 5.28H1.46219C1.54219 2.96 2.40219 1.84 4.06219 1.84C5.56219 1.84 6.56219 2.9 6.56219 4.74C6.56219 6.22 6.02219 7.12 3.98219 8.78C1.68219 10.66 0.162188 12.06 0.122188 15H7.96219V13.92H1.48219C1.70219 12.5 2.36219 11.6 3.98219 10.28L5.30219 9.2C7.32219 7.56 7.84219 6.46 7.84219 4.68C7.84219 2.22 6.34219 0.84 4.18219 0.84ZM13.9316 0.84C11.0116 0.84 9.61156 2.92 9.61156 8.4C9.61156 13.4 10.8516 15.24 13.7516 15.24C16.2516 15.24 17.6916 13.34 17.6916 10.4C17.6916 7.62 16.2916 6 13.9716 6C12.4916 6 11.4316 6.78 10.9316 8.32L10.8916 8.28C10.9516 4.1 11.6716 1.84 13.8716 1.84C15.1716 1.84 16.0316 2.64 16.1116 4.16H17.3916C17.3116 2.04 16.0116 0.84 13.9316 0.84ZM11.1316 10.62C11.1316 8.4 12.0916 7 13.7516 7C15.4916 7 16.4116 8.44 16.4116 10.62C16.4116 12.86 15.4516 14.24 13.7716 14.24C12.0916 14.24 11.1316 12.84 11.1316 10.62ZM24.3856 0.719999V15H27.8656C30.1856 15 31.7056 14.22 32.4456 12.2C32.8056 11.22 33.0056 9.76 33.0056 7.86C33.0056 4.1 32.2856 2.26 30.7656 1.38C30.0056 0.94 29.0456 0.719999 27.9056 0.719999H24.3856ZM25.6656 13.92V1.8H27.7256C29.3256 1.8 30.3056 2.26 30.8656 3.2C31.4456 4.14 31.7256 5.5 31.7256 7.88C31.7256 12.16 30.7456 13.92 27.8256 13.92H25.6656ZM35.1278 0.719999V15H42.3878V13.92H36.4078V8.08H41.8278V7H36.4078V1.8H42.2078V0.719999H35.1278ZM48.9392 0.719999V15H50.2192V1.92H50.2592L53.9592 15H55.1592L58.8592 1.92H58.8992V15H60.1792V0.719999H58.0792L54.6392 13.4H54.5992L51.1592 0.719999H48.9392ZM65.6102 0.719999L61.3902 15H62.7502L63.9102 10.84H68.9102L70.0702 15H71.4302L67.2102 0.719999H65.6102ZM66.3902 1.72H66.4302L68.6302 9.76H64.1902L66.3902 1.72ZM72.5302 0.719999V15H73.8102V8.48H76.3302C77.4902 8.48 78.1302 8.74 78.5102 9.22C78.9102 9.72 79.0902 10.84 79.0902 12.58C79.0902 13.78 79.2502 14.64 79.4902 15H80.9902C80.6102 14.58 80.4102 13.96 80.3902 12.86C80.3502 10.1 80.3902 8.18 77.9302 7.96H77.9102V7.92C79.6302 7.6 80.4902 6.26 80.4902 4.3C80.4902 1.96 79.0502 0.719999 76.8702 0.719999H72.5302ZM73.8102 7.4V1.8H76.1302C78.1702 1.8 79.2102 2.58 79.2102 4.58C79.2102 6.48 78.0502 7.4 76.0102 7.4H73.8102ZM82.2502 0.719999V1.8H88.8102L81.8502 13.8V15H90.2102V13.92H83.2702L90.1102 1.92V0.719999H82.2502ZM96.2084 0.48C93.1684 0.48 91.6484 2.9 91.6484 7.86C91.6484 12.82 93.1684 15.24 96.2084 15.24C99.2284 15.24 100.768 12.8 100.768 7.86C100.768 2.92 99.2284 0.48 96.2084 0.48ZM92.9284 7.86C92.9284 3.64 93.9684 1.56 96.1884 1.56C98.4484 1.56 99.4884 3.58 99.4884 7.86C99.4884 12.16 98.4284 14.16 96.2084 14.16C94.0084 14.16 92.9284 12.16 92.9284 7.86ZM107.686 0.719999V15H111.166C113.486 15 115.006 14.22 115.746 12.2C116.106 11.22 116.306 9.76 116.306 7.86C116.306 4.1 115.586 2.26 114.066 1.38C113.306 0.94 112.346 0.719999 111.206 0.719999H107.686ZM108.966 13.92V1.8H111.026C112.626 1.8 113.606 2.26 114.166 3.2C114.746 4.14 115.026 5.5 115.026 7.88C115.026 12.16 114.046 13.92 111.126 13.92H108.966ZM118.429 0.719999V15H125.689V13.92H119.709V8.08H125.129V7H119.709V1.8H125.509V0.719999H118.429ZM135.94 0.84C133.44 0.84 132 2.36 131.94 5.28H133.22C133.3 2.96 134.16 1.84 135.82 1.84C137.32 1.84 138.32 2.9 138.32 4.74C138.32 6.22 137.78 7.12 135.74 8.78C133.44 10.66 131.92 12.06 131.88 15H139.72V13.92H133.24C133.46 12.5 134.12 11.6 135.74 10.28L137.06 9.2C139.08 7.56 139.6 6.46 139.6 4.68C139.6 2.22 138.1 0.84 135.94 0.84ZM145.409 0.84C142.709 0.84 141.429 2.88 141.429 8.04C141.429 13.18 142.689 15.24 145.409 15.24C148.149 15.24 149.389 13.16 149.389 8.04C149.389 2.92 148.129 0.84 145.409 0.84ZM142.709 8.04C142.709 3.58 143.429 1.84 145.389 1.84C147.429 1.84 148.109 3.64 148.109 8.04C148.109 12.5 147.409 14.24 145.409 14.24C143.429 14.24 142.709 12.56 142.709 8.04ZM155.159 0.84C152.659 0.84 151.219 2.36 151.159 5.28H152.439C152.519 2.96 153.379 1.84 155.039 1.84C156.539 1.84 157.539 2.9 157.539 4.74C157.539 6.22 156.999 7.12 154.959 8.78C152.659 10.66 151.139 12.06 151.099 15H158.939V13.92H152.459C152.679 12.5 153.339 11.6 154.959 10.28L156.279 9.2C158.299 7.56 158.819 6.46 158.819 4.68C158.819 2.22 157.319 0.84 155.159 0.84ZM164.768 0.84C162.268 0.84 160.828 2.36 160.768 5.28H162.048C162.128 2.96 162.988 1.84 164.648 1.84C166.148 1.84 167.148 2.9 167.148 4.74C167.148 6.22 166.608 7.12 164.568 8.78C162.268 10.66 160.748 12.06 160.708 15H168.548V13.92H162.068C162.288 12.5 162.948 11.6 164.568 10.28L165.888 9.2C167.908 7.56 168.428 6.46 168.428 4.68C168.428 2.22 166.928 0.84 164.768 0.84ZM174.042 15.24H175.122L180.002 0.48H178.922L174.042 15.24ZM189.553 0.84C187.053 0.84 185.613 2.36 185.553 5.28H186.833C186.913 2.96 187.773 1.84 189.433 1.84C190.933 1.84 191.933 2.9 191.933 4.74C191.933 6.22 191.393 7.12 189.353 8.78C187.053 10.66 185.533 12.06 185.493 15H193.333V13.92H186.853C187.073 12.5 187.733 11.6 189.353 10.28L190.673 9.2C192.693 7.56 193.213 6.46 193.213 4.68C193.213 2.22 191.713 0.84 189.553 0.84ZM199.023 0.84C196.323 0.84 195.043 2.88 195.043 8.04C195.043 13.18 196.303 15.24 199.023 15.24C201.763 15.24 203.003 13.16 203.003 8.04C203.003 2.92 201.743 0.84 199.023 0.84ZM196.323 8.04C196.323 3.58 197.043 1.84 199.003 1.84C201.043 1.84 201.723 3.64 201.723 8.04C201.723 12.5 201.023 14.24 199.023 14.24C197.043 14.24 196.323 12.56 196.323 8.04ZM205.552 4.98V7.02H206.912V4.98H205.552ZM205.552 12.96V15H206.912V12.96H205.552ZM213.377 0.84C211.037 0.84 209.617 2.18 209.597 4.76H210.877C210.877 2.92 211.857 1.84 213.377 1.84C214.897 1.84 215.717 2.82 215.717 4.5C215.717 6.36 214.597 7.14 212.957 7.14H212.377V8.14H213.317C215.037 8.14 216.137 9.14 216.137 10.98C216.137 13.1 215.057 14.24 213.357 14.24C211.677 14.24 210.677 13.06 210.677 11.22H209.397C209.497 13.86 210.857 15.24 213.357 15.24C215.897 15.24 217.417 13.64 217.417 10.94C217.417 9.18 216.417 7.88 214.717 7.58V7.54C216.237 7.16 216.997 5.98 216.997 4.34C216.997 2.22 215.617 0.84 213.377 0.84ZM223.046 0.84C220.346 0.84 219.066 2.88 219.066 8.04C219.066 13.18 220.326 15.24 223.046 15.24C225.786 15.24 227.026 13.16 227.026 8.04C227.026 2.92 225.766 0.84 223.046 0.84ZM220.346 8.04C220.346 3.58 221.066 1.84 223.026 1.84C225.066 1.84 225.746 3.64 225.746 8.04C225.746 12.5 225.046 14.24 223.046 14.24C221.066 14.24 220.346 12.56 220.346 8.04ZM229.015 8.78V9.86H233.355V8.78H229.015ZM239.456 0.84C236.956 0.84 235.516 2.36 235.456 5.28H236.736C236.816 2.96 237.676 1.84 239.336 1.84C240.836 1.84 241.836 2.9 241.836 4.74C241.836 6.22 241.296 7.12 239.256 8.78C236.956 10.66 235.436 12.06 235.396 15H243.236V13.92H236.756C236.976 12.5 237.636 11.6 239.256 10.28L240.576 9.2C242.596 7.56 243.116 6.46 243.116 4.68C243.116 2.22 241.616 0.84 239.456 0.84ZM249.005 0.84C248.925 2.42 247.805 3.26 245.485 3.28V4.16H248.725V15H249.925V0.84H249.005ZM255.454 4.98V7.02H256.814V4.98H255.454ZM255.454 12.96V15H256.814V12.96H255.454ZM263.279 0.84C260.939 0.84 259.519 2.18 259.499 4.76H260.779C260.779 2.92 261.759 1.84 263.279 1.84C264.799 1.84 265.619 2.82 265.619 4.5C265.619 6.36 264.499 7.14 262.859 7.14H262.279V8.14H263.219C264.939 8.14 266.039 9.14 266.039 10.98C266.039 13.1 264.959 14.24 263.259 14.24C261.579 14.24 260.579 13.06 260.579 11.22H259.299C259.399 13.86 260.759 15.24 263.259 15.24C265.799 15.24 267.319 13.64 267.319 10.94C267.319 9.18 266.319 7.88 264.619 7.58V7.54C266.139 7.16 266.899 5.98 266.899 4.34C266.899 2.22 265.519 0.84 263.279 0.84ZM272.948 0.84C270.248 0.84 268.968 2.88 268.968 8.04C268.968 13.18 270.228 15.24 272.948 15.24C275.688 15.24 276.928 13.16 276.928 8.04C276.928 2.92 275.668 0.84 272.948 0.84ZM270.248 8.04C270.248 3.58 270.968 1.84 272.928 1.84C274.968 1.84 275.648 3.64 275.648 8.04C275.648 12.5 274.948 14.24 272.948 14.24C270.968 14.24 270.248 12.56 270.248 8.04Z" fill="white"/>
</svg>
