<svg width="266" height="25" viewBox="0 0 266 25" fill="none" xmlns="http://www.w3.org/2000/svg">
<path d="M5.18688 8.96H1.47488V10.368H4.99488L4.35488 15.36H0.642875V16.768H4.16288L3.20288 24H4.80288L5.76288 16.768H9.66688L8.70688 24H10.3069L11.2669 16.768H14.9789V15.36H11.4589L12.0989 10.368H15.8109V8.96H12.2909L13.2509 1.728H11.6509L10.6909 8.96H6.78688L7.74688 1.728H6.14688L5.18688 8.96ZM10.4989 10.368L9.85888 15.36H5.95488L6.59488 10.368H10.4989ZM17.7139 1.152V24H29.3299V22.272H19.7619V12.928H28.4339V11.2H19.7619V2.88H29.0419V1.152H17.7139ZM36.8606 1.152L30.1086 24H32.2846L34.1406 17.344H42.1406L43.9966 24H46.1726L39.4206 1.152H36.8606ZM38.1086 2.752H38.1726L41.6926 15.616H34.5886L38.1086 2.752ZM47.9326 1.152V24H49.9806V13.568H54.0126C55.8686 13.568 56.8926 13.984 57.5006 14.752C58.1406 15.552 58.4286 17.344 58.4286 20.128C58.4286 22.048 58.6846 23.424 59.0686 24H61.4686C60.8606 23.328 60.5406 22.336 60.5086 20.576C60.4446 16.16 60.5086 13.088 56.5726 12.736H56.5406V12.672C59.2926 12.16 60.6686 10.016 60.6686 6.88C60.6686 3.136 58.3646 1.152 54.8766 1.152H47.9326ZM49.9806 11.84V2.88H53.6926C56.9566 2.88 58.6206 4.128 58.6206 7.328C58.6206 10.368 56.7646 11.84 53.5006 11.84H49.9806ZM61.7701 1.152V2.88H67.6581V24H69.7061V2.88H75.5941V1.152H61.7701ZM77.5889 1.152V24H79.6369V12.608H88.5649V24H90.6129V1.152H88.5649V10.88H79.6369V1.152H77.5889ZM101.287 0.768C96.4226 0.768 93.9906 4.64 93.9906 12.576C93.9906 20.512 96.4226 24.384 101.287 24.384C106.119 24.384 108.583 20.48 108.583 12.576C108.583 4.672 106.119 0.768 101.287 0.768ZM96.0386 12.576C96.0386 5.824 97.7026 2.496 101.255 2.496C104.871 2.496 106.535 5.728 106.535 12.576C106.535 19.456 104.839 22.656 101.287 22.656C97.7666 22.656 96.0386 19.456 96.0386 12.576ZM111.644 1.152V17.728C111.644 22.016 113.596 24.384 118.172 24.384C122.748 24.384 124.7 22.016 124.7 17.728V1.152H122.652V17.696C122.652 20.864 121.18 22.656 118.172 22.656C115.132 22.656 113.692 20.832 113.692 17.696V1.152H111.644ZM127.964 1.152V24H130.012V13.568H134.044C135.9 13.568 136.924 13.984 137.532 14.752C138.172 15.552 138.46 17.344 138.46 20.128C138.46 22.048 138.716 23.424 139.1 24H141.5C140.892 23.328 140.572 22.336 140.54 20.576C140.476 16.16 140.54 13.088 136.604 12.736H136.572V12.672C139.324 12.16 140.7 10.016 140.7 6.88C140.7 3.136 138.396 1.152 134.908 1.152H127.964ZM130.012 11.84V2.88H133.724C136.988 2.88 138.652 4.128 138.652 7.328C138.652 10.368 136.796 11.84 133.532 11.84H130.012ZM154.499 8.96H150.787V10.368H154.307L153.667 15.36H149.955V16.768H153.475L152.515 24H154.115L155.075 16.768H158.979L158.019 24H159.619L160.579 16.768H164.291V15.36H160.771L161.411 10.368H165.123V8.96H161.603L162.563 1.728H160.963L160.003 8.96H156.099L157.059 1.728H155.459L154.499 8.96ZM159.811 10.368L159.171 15.36H155.267L155.907 10.368H159.811ZM174.418 1.152V18.144C174.418 21.12 173.586 22.656 170.962 22.656C168.786 22.656 167.89 21.216 167.89 17.76V17.312H165.842V18.048C165.842 22.752 167.73 24.384 171.026 24.384C174.642 24.384 176.466 22.176 176.466 18.4V1.152H174.418ZM187.162 0.768C182.298 0.768 179.866 4.64 179.866 12.576C179.866 20.512 182.298 24.384 187.162 24.384C191.994 24.384 194.458 20.48 194.458 12.576C194.458 4.672 191.994 0.768 187.162 0.768ZM181.914 12.576C181.914 5.824 183.578 2.496 187.13 2.496C190.746 2.496 192.41 5.728 192.41 12.576C192.41 19.456 190.714 22.656 187.162 22.656C183.642 22.656 181.914 19.456 181.914 12.576ZM197.967 1.152V24H200.015V1.152H197.967ZM203.714 1.152V24H205.762V4.096H205.826L214.562 24H217.314V1.152H215.266V21.056H215.202L206.466 1.152H203.714ZM220.901 1.152V24H232.421V22.272H222.949V1.152H220.901ZM234.654 1.152V24H236.702V1.152H234.654ZM240.401 1.152V24H242.449V12.928H251.121V11.2H242.449V2.88H251.729V1.152H240.401ZM254.026 1.152V24H265.642V22.272H256.074V12.928H264.746V11.2H256.074V2.88H265.354V1.152H254.026Z" fill="white"/>
</svg>
