<svg width="606" height="66" viewBox="0 0 606 66" fill="none" xmlns="http://www.w3.org/2000/svg">
<path d="M12.892 0.719999V15H22.352V13.4H14.792V0.719999H12.892ZM27.9653 4.42C25.2453 4.42 23.6853 5.58 23.5653 7.88H25.2653C25.3453 6.54 26.1653 5.92 27.8453 5.92C29.4453 5.92 30.1453 6.48 30.1453 7.62C30.1453 8.36 29.7453 8.72 28.2453 8.9C26.0253 9.18 24.6453 9.58 24.0653 10.14C23.4653 10.68 23.1653 11.42 23.1653 12.34C23.1653 14.2 24.4653 15.24 26.5853 15.24C28.1053 15.24 29.3253 14.7 30.2253 13.64C30.2253 14.72 30.7453 15.24 31.6653 15.24C32.1453 15.24 32.5653 15.14 32.8853 14.96V13.64C32.7253 13.7 32.5253 13.74 32.3653 13.74C32.0053 13.74 31.8253 13.54 31.8253 13.16V7.2C31.8253 5.58 30.8853 4.42 27.9653 4.42ZM24.9653 12.22C24.9653 11.14 25.6853 10.56 27.1853 10.34L28.9253 10.08C29.3853 10.02 29.8453 9.86 30.1253 9.66V11.44C30.1253 12.58 28.9453 13.74 26.9653 13.74C25.7053 13.74 24.9653 13.18 24.9653 12.22ZM40.0339 0.719999V15H41.7339V9.1C41.7339 7.22 42.8539 5.92 44.7739 5.92C46.1539 5.92 46.8939 6.8 46.8939 7.94V15H48.5939V8.12C48.5939 5.74 47.5339 4.42 45.0339 4.42C43.5739 4.42 42.2539 5.08 41.7739 6.18H41.7339V0.719999H40.0339ZM55.6072 4.42C52.5072 4.42 50.5872 6.54 50.5872 9.84C50.5872 13.14 52.6072 15.24 55.6072 15.24C58.6472 15.24 60.6272 13.04 60.6272 9.84C60.6272 6.68 58.7872 4.42 55.6072 4.42ZM52.3872 9.84C52.3872 7.44 53.7872 5.92 55.5872 5.92C57.4672 5.92 58.8272 7.5 58.8272 9.84C58.8272 12.18 57.4672 13.74 55.6072 13.74C53.7272 13.74 52.3872 12.18 52.3872 9.84ZM67.7716 4.42C66.1516 4.42 65.0116 5.2 64.2116 6.84H64.1716V4.66H62.5716V15H64.2716V10.38C64.2716 7.54 65.4716 6.22 68.0116 6.22V4.42C67.9116 4.42 67.8516 4.42 67.7716 4.42ZM73.5317 4.42C70.8117 4.42 69.2517 5.58 69.1317 7.88H70.8317C70.9117 6.54 71.7317 5.92 73.4117 5.92C75.0117 5.92 75.7117 6.48 75.7117 7.62C75.7117 8.36 75.3117 8.72 73.8117 8.9C71.5917 9.18 70.2117 9.58 69.6317 10.14C69.0317 10.68 68.7317 11.42 68.7317 12.34C68.7317 14.2 70.0317 15.24 72.1517 15.24C73.6717 15.24 74.8917 14.7 75.7917 13.64C75.7917 14.72 76.3117 15.24 77.2317 15.24C77.7117 15.24 78.1317 15.14 78.4517 14.96V13.64C78.2917 13.7 78.0917 13.74 77.9317 13.74C77.5717 13.74 77.3917 13.54 77.3917 13.16V7.2C77.3917 5.58 76.4517 4.42 73.5317 4.42ZM70.5317 12.22C70.5317 11.14 71.2517 10.56 72.7517 10.34L74.4917 10.08C74.9517 10.02 75.4117 9.86 75.6917 9.66V11.44C75.6917 12.58 74.5117 13.74 72.5317 13.74C71.2717 13.74 70.5317 13.18 70.5317 12.22ZM93.1403 0.719999V6.04H93.1003C92.4603 5 91.0803 4.42 89.7403 4.42C86.7803 4.42 85.0403 6.64 85.0403 9.8C85.0403 13.02 86.9003 15.24 89.8003 15.24C91.3403 15.24 92.5603 14.66 93.1003 13.6H93.1403V15H94.8403V0.719999H93.1403ZM86.8403 9.92C86.8403 7.46 87.9603 5.92 89.9203 5.92C92.0203 5.92 93.2003 7.5 93.2003 9.84C93.2003 12.12 92.0803 13.74 90.0403 13.74C88.0403 13.74 86.8403 12.1 86.8403 9.92ZM101.756 4.42C100.356 4.42 99.1758 4.94 98.2558 5.96C97.3358 6.98 96.8958 8.24 96.8958 9.76C96.8958 11.56 97.5958 13.52 99.1158 14.52C99.8558 15 100.776 15.24 101.856 15.24C104.196 15.24 105.816 14.02 106.276 11.72H104.596C104.316 13 103.436 13.74 101.916 13.74C99.9158 13.74 98.6958 12.44 98.6958 10.46V10.34H106.436V10.14C106.436 8.46 106.036 7.08 105.216 6.02C104.396 4.96 103.236 4.42 101.756 4.42ZM98.6958 8.84C98.8358 7.08 100.036 5.92 101.636 5.92C103.316 5.92 104.536 7.18 104.636 8.84H98.6958ZM108.298 0.719999V15H109.998V0.719999H108.298ZM123.298 4.42C121.718 4.42 120.538 5 119.998 6.06H119.958V4.66H118.258V18.96H119.958V13.62H119.998C120.718 14.72 122.058 15.24 123.338 15.24C126.258 15.24 128.058 13.02 128.058 9.86C128.058 6.68 126.298 4.42 123.298 4.42ZM119.898 9.82C119.898 7.56 120.998 5.92 123.038 5.92C125.058 5.92 126.258 7.56 126.258 9.74C126.258 12.26 125.118 13.74 123.158 13.74C121.098 13.74 119.898 12.2 119.898 9.82ZM130.153 0.719999V15H131.853V0.719999H130.153ZM138.727 4.42C136.007 4.42 134.447 5.58 134.327 7.88H136.027C136.107 6.54 136.927 5.92 138.607 5.92C140.207 5.92 140.907 6.48 140.907 7.62C140.907 8.36 140.507 8.72 139.007 8.9C136.787 9.18 135.407 9.58 134.827 10.14C134.227 10.68 133.927 11.42 133.927 12.34C133.927 14.2 135.227 15.24 137.347 15.24C138.867 15.24 140.087 14.7 140.987 13.64C140.987 14.72 141.507 15.24 142.427 15.24C142.907 15.24 143.327 15.14 143.647 14.96V13.64C143.487 13.7 143.287 13.74 143.127 13.74C142.767 13.74 142.587 13.54 142.587 13.16V7.2C142.587 5.58 141.647 4.42 138.727 4.42ZM135.727 12.22C135.727 11.14 136.447 10.56 137.947 10.34L139.687 10.08C140.147 10.02 140.607 9.86 140.887 9.66V11.44C140.887 12.58 139.707 13.74 137.727 13.74C136.467 13.74 135.727 13.18 135.727 12.22ZM150.229 4.42C148.709 4.42 147.629 5 146.869 6.3H146.829V4.66H145.229V15H146.929V9.1C146.929 7.22 148.029 5.92 149.969 5.92C151.349 5.92 152.089 6.8 152.089 7.94V15H153.789V8.12C153.789 5.74 152.729 4.42 150.229 4.42ZM160.643 4.42C159.243 4.42 158.063 4.94 157.143 5.96C156.223 6.98 155.783 8.24 155.783 9.76C155.783 11.56 156.483 13.52 158.002 14.52C158.743 15 159.663 15.24 160.743 15.24C163.083 15.24 164.703 14.02 165.162 11.72H163.483C163.203 13 162.323 13.74 160.803 13.74C158.803 13.74 157.583 12.44 157.583 10.46V10.34H165.323V10.14C165.323 8.46 164.923 7.08 164.103 6.02C163.283 4.96 162.123 4.42 160.643 4.42ZM157.583 8.84C157.723 7.08 158.923 5.92 160.523 5.92C162.203 5.92 163.423 7.18 163.523 8.84H157.583ZM167.745 1.56V4.66H165.985V6.16H167.745V12.84C167.745 14.4 168.225 15 170.105 15H171.505V13.5H171.025C170.665 13.5 170.305 13.48 169.965 13.46C169.605 13.42 169.445 13.16 169.445 12.64V6.16H171.505V4.66H169.445V1.56H167.745ZM177.633 4.42C174.913 4.42 173.353 5.58 173.233 7.88H174.933C175.013 6.54 175.833 5.92 177.513 5.92C179.113 5.92 179.813 6.48 179.813 7.62C179.813 8.36 179.413 8.72 177.913 8.9C175.693 9.18 174.313 9.58 173.733 10.14C173.133 10.68 172.833 11.42 172.833 12.34C172.833 14.2 174.133 15.24 176.253 15.24C177.773 15.24 178.993 14.7 179.893 13.64C179.893 14.72 180.413 15.24 181.333 15.24C181.813 15.24 182.233 15.14 182.553 14.96V13.64C182.393 13.7 182.193 13.74 182.033 13.74C181.673 13.74 181.493 13.54 181.493 13.16V7.2C181.493 5.58 180.553 4.42 177.633 4.42ZM174.633 12.22C174.633 11.14 175.353 10.56 176.853 10.34L178.593 10.08C179.053 10.02 179.513 9.86 179.793 9.66V11.44C179.793 12.58 178.613 13.74 176.633 13.74C175.373 13.74 174.633 13.18 174.633 12.22ZM194.002 4.42C192.602 4.42 191.422 4.94 190.502 5.96C189.582 6.98 189.142 8.24 189.142 9.76C189.142 11.56 189.842 13.52 191.362 14.52C192.102 15 193.022 15.24 194.102 15.24C196.442 15.24 198.062 14.02 198.522 11.72H196.842C196.562 13 195.682 13.74 194.162 13.74C192.162 13.74 190.942 12.44 190.942 10.46V10.34H198.682V10.14C198.682 8.46 198.282 7.08 197.462 6.02C196.642 4.96 195.482 4.42 194.002 4.42ZM190.942 8.84C191.082 7.08 192.282 5.92 193.882 5.92C195.562 5.92 196.782 7.18 196.882 8.84H190.942ZM203.884 4.42C201.624 4.42 200.004 5.54 200.004 7.36C200.004 8.9 200.884 9.74 203.544 10.3C204.844 10.58 205.704 10.84 206.124 11.1C206.544 11.36 206.764 11.74 206.764 12.2C206.764 13.22 205.904 13.74 204.264 13.74C202.544 13.74 201.524 13.02 201.484 11.74H199.784C199.884 14.06 201.544 15.24 204.164 15.24C206.864 15.24 208.564 14.02 208.564 11.98C208.564 10.42 207.504 9.56 205.504 9.12L203.904 8.76C202.504 8.44 201.804 8 201.804 7.24C201.804 6.4 202.644 5.92 204.004 5.92C205.364 5.92 206.304 6.54 206.404 7.64V7.66H208.104C207.964 5.5 206.664 4.42 203.884 4.42ZM216.01 4.66V11.56C216.01 13.98 217.15 15.24 219.57 15.24C221.01 15.24 222.19 14.68 222.93 13.36H222.97V15H224.57V4.66H222.87V10.56C222.87 12.44 221.79 13.74 219.81 13.74C218.51 13.74 217.71 12.9 217.71 11.7V4.66H216.01ZM232.124 4.42C230.604 4.42 229.524 5 228.764 6.3H228.724V4.66H227.124V15H228.824V9.1C228.824 7.22 229.924 5.92 231.864 5.92C233.244 5.92 233.984 6.8 233.984 7.94V15H235.684V8.12C235.684 5.74 234.624 4.42 232.124 4.42ZM242.477 4.42C239.757 4.42 238.197 5.58 238.077 7.88H239.777C239.857 6.54 240.677 5.92 242.357 5.92C243.957 5.92 244.657 6.48 244.657 7.62C244.657 8.36 244.257 8.72 242.757 8.9C240.537 9.18 239.157 9.58 238.577 10.14C237.977 10.68 237.677 11.42 237.677 12.34C237.677 14.2 238.977 15.24 241.097 15.24C242.617 15.24 243.837 14.7 244.737 13.64C244.737 14.72 245.257 15.24 246.177 15.24C246.657 15.24 247.077 15.14 247.397 14.96V13.64C247.237 13.7 247.037 13.74 246.877 13.74C246.517 13.74 246.337 13.54 246.337 13.16V7.2C246.337 5.58 245.397 4.42 242.477 4.42ZM239.477 12.22C239.477 11.14 240.197 10.56 241.697 10.34L243.437 10.08C243.897 10.02 244.357 9.86 244.637 9.66V11.44C244.637 12.58 243.457 13.74 241.477 13.74C240.217 13.74 239.477 13.18 239.477 12.22ZM258.866 4.42C255.826 4.42 253.986 6.6 253.986 9.96C253.986 13.2 255.806 15.24 258.826 15.24C261.406 15.24 263.006 13.8 263.386 11.22H261.646C261.426 12.8 260.446 13.74 258.806 13.74C256.926 13.74 255.786 12.22 255.786 9.96C255.786 7.4 256.906 5.92 259.006 5.92C260.366 5.92 261.286 6.64 261.566 7.98H263.326C263.046 5.62 261.366 4.42 258.866 4.42ZM269.528 4.42C266.808 4.42 265.248 5.58 265.128 7.88H266.828C266.908 6.54 267.728 5.92 269.408 5.92C271.008 5.92 271.708 6.48 271.708 7.62C271.708 8.36 271.308 8.72 269.808 8.9C267.588 9.18 266.208 9.58 265.628 10.14C265.028 10.68 264.728 11.42 264.728 12.34C264.728 14.2 266.028 15.24 268.148 15.24C269.668 15.24 270.888 14.7 271.788 13.64C271.788 14.72 272.308 15.24 273.228 15.24C273.708 15.24 274.128 15.14 274.448 14.96V13.64C274.288 13.7 274.088 13.74 273.928 13.74C273.568 13.74 273.388 13.54 273.388 13.16V7.2C273.388 5.58 272.448 4.42 269.528 4.42ZM266.528 12.22C266.528 11.14 267.248 10.56 268.748 10.34L270.488 10.08C270.948 10.02 271.408 9.86 271.688 9.66V11.44C271.688 12.58 270.508 13.74 268.528 13.74C267.268 13.74 266.528 13.18 266.528 12.22ZM281.01 4.42C279.55 4.42 278.45 5 277.67 6.18H277.63V4.66H276.03V15H277.73V8.52C277.73 7.92 278.23 6.84 279.05 6.32C279.47 6.06 279.95 5.92 280.49 5.92C281.83 5.92 282.43 6.66 282.43 8.14V15H284.13V8.5C284.13 7.06 285.13 5.92 286.83 5.92C288.23 5.92 288.83 6.66 288.83 8.14V15H290.53V7.36C290.53 5.56 289.43 4.42 287.11 4.42C285.73 4.42 284.55 5.08 283.85 6.18C283.49 5.06 282.53 4.42 281.01 4.42ZM298.181 4.42C296.601 4.42 295.421 5 294.881 6.06H294.841V4.66H293.141V18.96H294.841V13.62H294.881C295.601 14.72 296.941 15.24 298.221 15.24C301.141 15.24 302.941 13.02 302.941 9.86C302.941 6.68 301.181 4.42 298.181 4.42ZM294.781 9.82C294.781 7.56 295.881 5.92 297.921 5.92C299.941 5.92 301.141 7.56 301.141 9.74C301.141 12.26 300.001 13.74 298.041 13.74C295.981 13.74 294.781 12.2 294.781 9.82ZM309.176 4.42C306.456 4.42 304.896 5.58 304.776 7.88H306.476C306.556 6.54 307.376 5.92 309.056 5.92C310.656 5.92 311.356 6.48 311.356 7.62C311.356 8.36 310.956 8.72 309.456 8.9C307.236 9.18 305.856 9.58 305.276 10.14C304.676 10.68 304.376 11.42 304.376 12.34C304.376 14.2 305.676 15.24 307.796 15.24C309.316 15.24 310.536 14.7 311.436 13.64C311.436 14.72 311.956 15.24 312.876 15.24C313.356 15.24 313.776 15.14 314.096 14.96V13.64C313.936 13.7 313.736 13.74 313.576 13.74C313.216 13.74 313.036 13.54 313.036 13.16V7.2C313.036 5.58 312.096 4.42 309.176 4.42ZM306.176 12.22C306.176 11.14 306.896 10.56 308.396 10.34L310.136 10.08C310.596 10.02 311.056 9.86 311.336 9.66V11.44C311.336 12.58 310.156 13.74 308.176 13.74C306.916 13.74 306.176 13.18 306.176 12.22ZM320.678 4.42C319.158 4.42 318.078 5 317.318 6.3H317.278V4.66H315.678V15H317.378V9.1C317.378 7.22 318.478 5.92 320.418 5.92C321.798 5.92 322.538 6.8 322.538 7.94V15H324.238V8.12C324.238 5.74 323.178 4.42 320.678 4.42ZM322.438 0.66C322.238 1.28 321.938 1.54 321.518 1.54C321.218 1.54 320.778 1.38 320.218 1.14C319.638 0.879999 319.158 0.739999 318.738 0.739999C317.638 0.739999 316.938 1.48 316.618 2.94H317.658C317.818 2.44 318.158 2.1 318.638 2.1C318.878 2.1 319.178 2.18 319.538 2.32C320.278 2.6 320.838 2.88 321.458 2.88C322.678 2.88 323.278 1.84 323.478 0.66H322.438ZM331.032 4.42C328.312 4.42 326.752 5.58 326.632 7.88H328.332C328.412 6.54 329.232 5.92 330.912 5.92C332.512 5.92 333.212 6.48 333.212 7.62C333.212 8.36 332.812 8.72 331.312 8.9C329.092 9.18 327.712 9.58 327.132 10.14C326.532 10.68 326.232 11.42 326.232 12.34C326.232 14.2 327.532 15.24 329.652 15.24C331.172 15.24 332.392 14.7 333.292 13.64C333.292 14.72 333.812 15.24 334.732 15.24C335.212 15.24 335.632 15.14 335.952 14.96V13.64C335.792 13.7 335.592 13.74 335.432 13.74C335.072 13.74 334.892 13.54 334.892 13.16V7.2C334.892 5.58 333.952 4.42 331.032 4.42ZM328.032 12.22C328.032 11.14 328.752 10.56 330.252 10.34L331.992 10.08C332.452 10.02 332.912 9.86 333.192 9.66V11.44C333.192 12.58 332.012 13.74 330.032 13.74C328.772 13.74 328.032 13.18 328.032 12.22ZM343.2 0.719999V2.8H344.9V0.719999H343.2ZM343.2 4.66V15H344.9V4.66H343.2ZM352.534 4.42C351.014 4.42 349.934 5 349.174 6.3H349.134V4.66H347.534V15H349.234V9.1C349.234 7.22 350.334 5.92 352.274 5.92C353.654 5.92 354.394 6.8 354.394 7.94V15H356.094V8.12C356.094 5.74 355.034 4.42 352.534 4.42ZM359.307 1.56V4.66H357.547V6.16H359.307V12.84C359.307 14.4 359.787 15 361.667 15H363.067V13.5H362.587C362.227 13.5 361.867 13.48 361.527 13.46C361.167 13.42 361.007 13.16 361.007 12.64V6.16H363.067V4.66H361.007V1.56H359.307ZM369.256 4.42C367.856 4.42 366.676 4.94 365.756 5.96C364.836 6.98 364.396 8.24 364.396 9.76C364.396 11.56 365.096 13.52 366.616 14.52C367.356 15 368.276 15.24 369.356 15.24C371.696 15.24 373.316 14.02 373.776 11.72H372.096C371.816 13 370.936 13.74 369.416 13.74C367.416 13.74 366.196 12.44 366.196 10.46V10.34H373.936V10.14C373.936 8.46 373.536 7.08 372.716 6.02C371.896 4.96 370.736 4.42 369.256 4.42ZM366.196 8.84C366.336 7.08 367.536 5.92 369.136 5.92C370.816 5.92 372.036 7.18 372.136 8.84H366.196ZM380.838 4.42C379.218 4.42 378.078 5.2 377.278 6.84H377.238V4.66H375.638V15H377.338V10.38C377.338 7.54 378.538 6.22 381.078 6.22V4.42C380.978 4.42 380.918 4.42 380.838 4.42ZM387.71 4.42C386.19 4.42 385.11 5 384.35 6.3H384.31V4.66H382.71V15H384.41V9.1C384.41 7.22 385.51 5.92 387.45 5.92C388.83 5.92 389.57 6.8 389.57 7.94V15H391.27V8.12C391.27 5.74 390.21 4.42 387.71 4.42ZM398.063 4.42C395.343 4.42 393.783 5.58 393.663 7.88H395.363C395.443 6.54 396.263 5.92 397.943 5.92C399.543 5.92 400.243 6.48 400.243 7.62C400.243 8.36 399.843 8.72 398.343 8.9C396.123 9.18 394.743 9.58 394.163 10.14C393.563 10.68 393.263 11.42 393.263 12.34C393.263 14.2 394.563 15.24 396.683 15.24C398.203 15.24 399.423 14.7 400.323 13.64C400.323 14.72 400.843 15.24 401.763 15.24C402.243 15.24 402.663 15.14 402.983 14.96V13.64C402.823 13.7 402.623 13.74 402.463 13.74C402.103 13.74 401.923 13.54 401.923 13.16V7.2C401.923 5.58 400.983 4.42 398.063 4.42ZM395.063 12.22C395.063 11.14 395.783 10.56 397.283 10.34L399.023 10.08C399.483 10.02 399.943 9.86 400.223 9.66V11.44C400.223 12.58 399.043 13.74 397.063 13.74C395.803 13.74 395.063 13.18 395.063 12.22ZM408.885 4.42C405.845 4.42 404.005 6.6 404.005 9.96C404.005 13.2 405.825 15.24 408.845 15.24C411.425 15.24 413.025 13.8 413.405 11.22H411.665C411.445 12.8 410.465 13.74 408.825 13.74C406.945 13.74 405.805 12.22 405.805 9.96C405.805 7.4 406.925 5.92 409.025 5.92C410.385 5.92 411.305 6.64 411.585 7.98H413.345C413.065 5.62 411.385 4.42 408.885 4.42ZM415.407 0.719999V2.8H417.107V0.719999H415.407ZM415.407 4.66V15H417.107V4.66H415.407ZM424.201 4.42C421.101 4.42 419.181 6.54 419.181 9.84C419.181 13.14 421.201 15.24 424.201 15.24C427.241 15.24 429.221 13.04 429.221 9.84C429.221 6.68 427.381 4.42 424.201 4.42ZM420.981 9.84C420.981 7.44 422.381 5.92 424.181 5.92C426.061 5.92 427.421 7.5 427.421 9.84C427.421 12.18 426.061 13.74 424.201 13.74C422.321 13.74 420.981 12.18 420.981 9.84ZM436.225 4.42C434.705 4.42 433.625 5 432.865 6.3H432.825V4.66H431.225V15H432.925V9.1C432.925 7.22 434.025 5.92 435.965 5.92C437.345 5.92 438.085 6.8 438.085 7.94V15H439.785V8.12C439.785 5.74 438.725 4.42 436.225 4.42ZM446.579 4.42C443.859 4.42 442.299 5.58 442.179 7.88H443.879C443.959 6.54 444.779 5.92 446.459 5.92C448.059 5.92 448.759 6.48 448.759 7.62C448.759 8.36 448.359 8.72 446.859 8.9C444.639 9.18 443.259 9.58 442.679 10.14C442.079 10.68 441.779 11.42 441.779 12.34C441.779 14.2 443.079 15.24 445.199 15.24C446.719 15.24 447.939 14.7 448.839 13.64C448.839 14.72 449.359 15.24 450.279 15.24C450.759 15.24 451.179 15.14 451.499 14.96V13.64C451.339 13.7 451.139 13.74 450.979 13.74C450.619 13.74 450.439 13.54 450.439 13.16V7.2C450.439 5.58 449.499 4.42 446.579 4.42ZM443.579 12.22C443.579 11.14 444.299 10.56 445.799 10.34L447.539 10.08C447.999 10.02 448.459 9.86 448.739 9.66V11.44C448.739 12.58 447.559 13.74 445.579 13.74C444.319 13.74 443.579 13.18 443.579 12.22ZM453.181 0.719999V15H454.881V0.719999H453.181ZM467.541 4.42C464.441 4.42 462.521 6.54 462.521 9.84C462.521 13.14 464.541 15.24 467.541 15.24C470.581 15.24 472.561 13.04 472.561 9.84C472.561 6.68 470.721 4.42 467.541 4.42ZM464.321 9.84C464.321 7.44 465.721 5.92 467.521 5.92C469.401 5.92 470.761 7.5 470.761 9.84C470.761 12.18 469.401 13.74 467.541 13.74C465.661 13.74 464.321 12.18 464.321 9.84ZM479.705 4.42C478.085 4.42 476.945 5.2 476.145 6.84H476.105V4.66H474.505V15H476.205V10.38C476.205 7.54 477.405 6.22 479.945 6.22V4.42C479.845 4.42 479.785 4.42 479.705 4.42ZM484.859 4.42C481.819 4.42 480.099 6.74 480.099 9.88C480.099 13 481.919 15.12 484.719 15.12C486.159 15.12 487.419 14.38 487.939 13.24H487.979V13.88C487.979 16.5 486.879 17.84 484.879 17.84C483.559 17.84 482.259 17.24 482.199 16.16H480.499C480.599 18.16 482.459 19.2 484.799 19.2C488.039 19.2 489.579 17.48 489.579 14.22V4.66H487.979V6.14H487.959C487.379 5.1 486.319 4.42 484.859 4.42ZM481.899 9.68C481.899 7.42 483.039 5.92 484.939 5.92C486.839 5.92 487.899 7.44 487.899 9.62C487.899 12.02 486.699 13.62 484.819 13.62C482.959 13.62 481.899 12.1 481.899 9.68ZM496.383 4.42C493.663 4.42 492.103 5.58 491.983 7.88H493.683C493.763 6.54 494.583 5.92 496.263 5.92C497.863 5.92 498.563 6.48 498.563 7.62C498.563 8.36 498.163 8.72 496.663 8.9C494.443 9.18 493.063 9.58 492.483 10.14C491.883 10.68 491.583 11.42 491.583 12.34C491.583 14.2 492.883 15.24 495.003 15.24C496.523 15.24 497.743 14.7 498.643 13.64C498.643 14.72 499.163 15.24 500.083 15.24C500.563 15.24 500.983 15.14 501.303 14.96V13.64C501.143 13.7 500.943 13.74 500.783 13.74C500.423 13.74 500.243 13.54 500.243 13.16V7.2C500.243 5.58 499.303 4.42 496.383 4.42ZM493.383 12.22C493.383 11.14 494.103 10.56 495.603 10.34L497.343 10.08C497.803 10.02 498.263 9.86 498.543 9.66V11.44C498.543 12.58 497.363 13.74 495.383 13.74C494.123 13.74 493.383 13.18 493.383 12.22ZM507.885 4.42C506.365 4.42 505.285 5 504.525 6.3H504.485V4.66H502.885V15H504.585V9.1C504.585 7.22 505.685 5.92 507.625 5.92C509.005 5.92 509.745 6.8 509.745 7.94V15H511.445V8.12C511.445 5.74 510.385 4.42 507.885 4.42ZM514.099 0.719999V2.8H515.799V0.719999H514.099ZM514.099 4.66V15H515.799V4.66H514.099ZM517.992 4.66V6.16H523.832L517.592 13.7V15H526.312V13.5H519.712L526.032 5.82V4.66H517.992ZM532.282 4.42C529.562 4.42 528.002 5.58 527.882 7.88H529.582C529.662 6.54 530.482 5.92 532.162 5.92C533.762 5.92 534.462 6.48 534.462 7.62C534.462 8.36 534.062 8.72 532.562 8.9C530.342 9.18 528.962 9.58 528.382 10.14C527.782 10.68 527.482 11.42 527.482 12.34C527.482 14.2 528.782 15.24 530.902 15.24C532.422 15.24 533.642 14.7 534.542 13.64C534.542 14.72 535.062 15.24 535.982 15.24C536.462 15.24 536.882 15.14 537.202 14.96V13.64C537.042 13.7 536.842 13.74 536.682 13.74C536.322 13.74 536.142 13.54 536.142 13.16V7.2C536.142 5.58 535.202 4.42 532.282 4.42ZM529.282 12.22C529.282 11.14 530.002 10.56 531.502 10.34L533.242 10.08C533.702 10.02 534.162 9.86 534.442 9.66V11.44C534.442 12.58 533.262 13.74 531.282 13.74C530.022 13.74 529.282 13.18 529.282 12.22ZM546.324 0.719999V6.04H546.284C545.644 5 544.264 4.42 542.924 4.42C539.964 4.42 538.224 6.64 538.224 9.8C538.224 13.02 540.084 15.24 542.984 15.24C544.524 15.24 545.744 14.66 546.284 13.6H546.324V15H548.024V0.719999H546.324ZM540.024 9.92C540.024 7.46 541.144 5.92 543.104 5.92C545.204 5.92 546.384 7.5 546.384 9.84C546.384 12.12 545.264 13.74 543.224 13.74C541.224 13.74 540.024 12.1 540.024 9.92ZM554.879 4.42C552.159 4.42 550.599 5.58 550.479 7.88H552.179C552.259 6.54 553.079 5.92 554.759 5.92C556.359 5.92 557.059 6.48 557.059 7.62C557.059 8.36 556.659 8.72 555.159 8.9C552.939 9.18 551.559 9.58 550.979 10.14C550.379 10.68 550.079 11.42 550.079 12.34C550.079 14.2 551.379 15.24 553.499 15.24C555.019 15.24 556.239 14.7 557.139 13.64C557.139 14.72 557.659 15.24 558.579 15.24C559.059 15.24 559.479 15.14 559.799 14.96V13.64C559.639 13.7 559.439 13.74 559.279 13.74C558.919 13.74 558.739 13.54 558.739 13.16V7.2C558.739 5.58 557.799 4.42 554.879 4.42ZM551.879 12.22C551.879 11.14 552.599 10.56 554.099 10.34L555.839 10.08C556.299 10.02 556.759 9.86 557.039 9.66V11.44C557.039 12.58 555.859 13.74 553.879 13.74C552.619 13.74 551.879 13.18 551.879 12.22ZM572.048 4.42C570.468 4.42 569.288 5 568.748 6.06H568.708V4.66H567.008V18.96H568.708V13.62H568.748C569.468 14.72 570.808 15.24 572.088 15.24C575.008 15.24 576.808 13.02 576.808 9.86C576.808 6.68 575.048 4.42 572.048 4.42ZM568.648 9.82C568.648 7.56 569.748 5.92 571.788 5.92C573.808 5.92 575.008 7.56 575.008 9.74C575.008 12.26 573.868 13.74 571.908 13.74C569.848 13.74 568.648 12.2 568.648 9.82ZM583.263 4.42C580.163 4.42 578.243 6.54 578.243 9.84C578.243 13.14 580.263 15.24 583.263 15.24C586.303 15.24 588.283 13.04 588.283 9.84C588.283 6.68 586.443 4.42 583.263 4.42ZM580.043 9.84C580.043 7.44 581.443 5.92 583.243 5.92C585.123 5.92 586.483 7.5 586.483 9.84C586.483 12.18 585.123 13.74 583.263 13.74C581.383 13.74 580.043 12.18 580.043 9.84ZM595.428 4.42C593.808 4.42 592.668 5.2 591.868 6.84H591.828V4.66H590.228V15H591.928V10.38C591.928 7.54 593.128 6.22 595.668 6.22V4.42C595.568 4.42 595.508 4.42 595.428 4.42ZM0.390391 23.72L4.05039 38H6.03039L9.33039 26H9.37039L12.6304 38H14.6104L18.4304 23.72H16.5304L13.6304 35.6H13.5904L10.4304 23.72H8.37039L5.17039 35.6H5.13039L2.33039 23.72H0.390391ZM23.2732 27.42C20.1732 27.42 18.2532 29.54 18.2532 32.84C18.2532 36.14 20.2732 38.24 23.2732 38.24C26.3132 38.24 28.2932 36.04 28.2932 32.84C28.2932 29.68 26.4532 27.42 23.2732 27.42ZM20.0532 32.84C20.0532 30.44 21.4532 28.92 23.2532 28.92C25.1332 28.92 26.4932 30.5 26.4932 32.84C26.4932 35.18 25.1332 36.74 23.2732 36.74C21.3932 36.74 20.0532 35.18 20.0532 32.84ZM35.4376 27.42C33.8176 27.42 32.6776 28.2 31.8776 29.84H31.8376V27.66H30.2376V38H31.9376V33.38C31.9376 30.54 33.1376 29.22 35.6776 29.22V27.42C35.5776 27.42 35.5176 27.42 35.4376 27.42ZM37.0577 23.72V38H38.7577V23.72H37.0577ZM48.9313 23.72V29.04H48.8913C48.2513 28 46.8713 27.42 45.5313 27.42C42.5713 27.42 40.8313 29.64 40.8313 32.8C40.8313 36.02 42.6913 38.24 45.5913 38.24C47.1313 38.24 48.3513 37.66 48.8913 36.6H48.9313V38H50.6313V23.72H48.9313ZM42.6313 32.92C42.6313 30.46 43.7513 28.92 45.7113 28.92C47.8113 28.92 48.9913 30.5 48.9913 32.84C48.9913 35.12 47.8713 36.74 45.8313 36.74C43.8313 36.74 42.6313 35.1 42.6313 32.92ZM57.7732 23.72L61.4332 38H63.4132L66.7132 26H66.7532L70.0132 38H71.9932L75.8132 23.72H73.9132L71.0132 35.6H70.9732L67.8132 23.72H65.7532L62.5532 35.6H62.5132L59.7132 23.72H57.7732ZM77.4288 23.72V25.8H79.1288V23.72H77.4288ZM77.4288 27.66V38H79.1288V27.66H77.4288ZM89.3024 23.72V29.04H89.2624C88.6224 28 87.2424 27.42 85.9024 27.42C82.9424 27.42 81.2024 29.64 81.2024 32.8C81.2024 36.02 83.0624 38.24 85.9624 38.24C87.5024 38.24 88.7224 37.66 89.2624 36.6H89.3024V38H91.0024V23.72H89.3024ZM83.0024 32.92C83.0024 30.46 84.1224 28.92 86.0824 28.92C88.1824 28.92 89.3624 30.5 89.3624 32.84C89.3624 35.12 88.2424 36.74 86.2024 36.74C84.2024 36.74 83.0024 35.1 83.0024 32.92ZM97.9179 27.42C96.5179 27.42 95.3379 27.94 94.4179 28.96C93.4979 29.98 93.0579 31.24 93.0579 32.76C93.0579 34.56 93.7579 36.52 95.2779 37.52C96.0179 38 96.9379 38.24 98.0179 38.24C100.358 38.24 101.978 37.02 102.438 34.72H100.758C100.478 36 99.5979 36.74 98.0779 36.74C96.0779 36.74 94.8579 35.44 94.8579 33.46V33.34H102.598V33.14C102.598 31.46 102.198 30.08 101.378 29.02C100.558 27.96 99.3979 27.42 97.9179 27.42ZM94.8579 31.84C94.9979 30.08 96.1979 28.92 97.7979 28.92C99.4779 28.92 100.698 30.18 100.798 31.84H94.8579ZM110.206 23.72V38H112.106V31.46H118.666V29.86H112.106V25.32H119.586V23.72H110.206ZM121.411 27.66V34.56C121.411 36.98 122.551 38.24 124.971 38.24C126.411 38.24 127.591 37.68 128.331 36.36H128.371V38H129.971V27.66H128.271V33.56C128.271 35.44 127.191 36.74 125.211 36.74C123.911 36.74 123.111 35.9 123.111 34.7V27.66H121.411ZM137.524 27.42C136.004 27.42 134.924 28 134.164 29.3H134.124V27.66H132.524V38H134.224V32.1C134.224 30.22 135.324 28.92 137.264 28.92C138.644 28.92 139.384 29.8 139.384 30.94V38H141.084V31.12C141.084 28.74 140.024 27.42 137.524 27.42ZM151.177 23.72V29.04H151.137C150.497 28 149.117 27.42 147.777 27.42C144.817 27.42 143.077 29.64 143.077 32.8C143.077 36.02 144.937 38.24 147.837 38.24C149.377 38.24 150.597 37.66 151.137 36.6H151.177V38H152.877V23.72H151.177ZM144.877 32.92C144.877 30.46 145.997 28.92 147.957 28.92C150.057 28.92 151.237 30.5 151.237 32.84C151.237 35.12 150.117 36.74 148.077 36.74C146.077 36.74 144.877 35.1 144.877 32.92ZM161.339 23.72V38H163.239V31.46H169.799V29.86H163.239V25.32H170.719V23.72H161.339ZM177.004 27.42C173.904 27.42 171.984 29.54 171.984 32.84C171.984 36.14 174.004 38.24 177.004 38.24C180.044 38.24 182.024 36.04 182.024 32.84C182.024 29.68 180.184 27.42 177.004 27.42ZM173.784 32.84C173.784 30.44 175.184 28.92 176.984 28.92C178.864 28.92 180.224 30.5 180.224 32.84C180.224 35.18 178.864 36.74 177.004 36.74C175.124 36.74 173.784 35.18 173.784 32.84ZM189.168 27.42C187.548 27.42 186.408 28.2 185.608 29.84H185.568V27.66H183.968V38H185.668V33.38C185.668 30.54 186.868 29.22 189.408 29.22V27.42C189.308 27.42 189.248 27.42 189.168 27.42ZM196.515 23.72V38H198.315V26.54H198.355L205.815 38H207.895V23.72H206.095V35.3H206.055L198.535 23.72H196.515ZM214.928 27.42C212.208 27.42 210.648 28.58 210.528 30.88H212.228C212.308 29.54 213.128 28.92 214.808 28.92C216.408 28.92 217.108 29.48 217.108 30.62C217.108 31.36 216.708 31.72 215.208 31.9C212.988 32.18 211.608 32.58 211.028 33.14C210.428 33.68 210.128 34.42 210.128 35.34C210.128 37.2 211.428 38.24 213.548 38.24C215.068 38.24 216.288 37.7 217.188 36.64C217.188 37.72 217.708 38.24 218.628 38.24C219.108 38.24 219.528 38.14 219.848 37.96V36.64C219.688 36.7 219.488 36.74 219.328 36.74C218.968 36.74 218.788 36.54 218.788 36.16V30.2C218.788 28.58 217.848 27.42 214.928 27.42ZM211.928 35.22C211.928 34.14 212.648 33.56 214.148 33.34L215.888 33.08C216.348 33.02 216.808 32.86 217.088 32.66V34.44C217.088 35.58 215.908 36.74 213.928 36.74C212.668 36.74 211.928 36.18 211.928 35.22ZM222.09 24.56V27.66H220.33V29.16H222.09V35.84C222.09 37.4 222.57 38 224.45 38H225.85V36.5H225.37C225.01 36.5 224.65 36.48 224.31 36.46C223.95 36.42 223.79 36.16 223.79 35.64V29.16H225.85V27.66H223.79V24.56H222.09ZM227.739 27.66V34.56C227.739 36.98 228.879 38.24 231.299 38.24C232.739 38.24 233.919 37.68 234.659 36.36H234.699V38H236.299V27.66H234.599V33.56C234.599 35.44 233.519 36.74 231.539 36.74C230.239 36.74 229.439 35.9 229.439 34.7V27.66H227.739ZM243.992 27.42C242.372 27.42 241.232 28.2 240.432 29.84H240.392V27.66H238.792V38H240.492V33.38C240.492 30.54 241.692 29.22 244.232 29.22V27.42C244.132 27.42 244.072 27.42 243.992 27.42ZM249.461 27.42C248.061 27.42 246.881 27.94 245.961 28.96C245.041 29.98 244.601 31.24 244.601 32.76C244.601 34.56 245.301 36.52 246.821 37.52C247.561 38 248.481 38.24 249.561 38.24C251.901 38.24 253.521 37.02 253.981 34.72H252.301C252.021 36 251.141 36.74 249.621 36.74C247.621 36.74 246.401 35.44 246.401 33.46V33.34H254.141V33.14C254.141 31.46 253.741 30.08 252.921 29.02C252.101 27.96 250.941 27.42 249.461 27.42ZM246.401 31.84C246.541 30.08 247.741 28.92 249.341 28.92C251.021 28.92 252.241 30.18 252.341 31.84H246.401ZM264.269 23.38C262.249 26.1 261.129 29.48 261.129 32.6C261.129 35.66 261.969 38.36 264.269 41.96H265.569C263.749 39.04 262.929 36.2 262.929 32.6C262.929 29.08 263.769 26.22 265.569 23.38H264.269ZM265.605 23.72L269.265 38H271.245L274.545 26H274.585L277.845 38H279.825L283.645 23.72H281.745L278.845 35.6H278.805L275.645 23.72H273.585L270.385 35.6H270.345L267.545 23.72H265.605ZM284.121 23.72L287.781 38H289.761L293.061 26H293.101L296.361 38H298.341L302.161 23.72H300.261L297.361 35.6H297.321L294.161 23.72H292.101L288.901 35.6H288.861L286.061 23.72H284.121ZM303.956 23.72V38H305.856V31.46H312.416V29.86H305.856V25.32H313.336V23.72H303.956ZM313.681 23.38C315.481 26.26 316.321 29.2 316.321 32.74C316.321 36.26 315.481 39.12 313.681 41.96H314.981C316.981 39.24 318.121 35.96 318.121 32.74C318.121 29.52 317.121 26.66 314.981 23.38H313.681ZM331.003 27.42C329.423 27.42 328.243 28 327.703 29.06H327.663V27.66H325.963V41.96H327.663V36.62H327.703C328.423 37.72 329.763 38.24 331.043 38.24C333.963 38.24 335.763 36.02 335.763 32.86C335.763 29.68 334.003 27.42 331.003 27.42ZM327.603 32.82C327.603 30.56 328.703 28.92 330.743 28.92C332.763 28.92 333.963 30.56 333.963 32.74C333.963 35.26 332.823 36.74 330.863 36.74C328.803 36.74 327.603 35.2 327.603 32.82ZM341.999 27.42C339.279 27.42 337.719 28.58 337.599 30.88H339.299C339.379 29.54 340.199 28.92 341.879 28.92C343.479 28.92 344.179 29.48 344.179 30.62C344.179 31.36 343.779 31.72 342.279 31.9C340.059 32.18 338.679 32.58 338.099 33.14C337.499 33.68 337.199 34.42 337.199 35.34C337.199 37.2 338.499 38.24 340.619 38.24C342.139 38.24 343.359 37.7 344.259 36.64C344.259 37.72 344.779 38.24 345.699 38.24C346.179 38.24 346.599 38.14 346.919 37.96V36.64C346.759 36.7 346.559 36.74 346.399 36.74C346.039 36.74 345.859 36.54 345.859 36.16V30.2C345.859 28.58 344.919 27.42 341.999 27.42ZM338.999 35.22C338.999 34.14 339.719 33.56 341.219 33.34L342.959 33.08C343.419 33.02 343.879 32.86 344.159 32.66V34.44C344.159 35.58 342.979 36.74 340.999 36.74C339.739 36.74 338.999 36.18 338.999 35.22ZM353.641 27.42C352.021 27.42 350.881 28.2 350.081 29.84H350.041V27.66H348.441V38H350.141V33.38C350.141 30.54 351.341 29.22 353.881 29.22V27.42C353.781 27.42 353.721 27.42 353.641 27.42ZM359.401 27.42C356.681 27.42 355.121 28.58 355.001 30.88H356.701C356.781 29.54 357.601 28.92 359.281 28.92C360.881 28.92 361.581 29.48 361.581 30.62C361.581 31.36 361.181 31.72 359.681 31.9C357.461 32.18 356.081 32.58 355.501 33.14C354.901 33.68 354.601 34.42 354.601 35.34C354.601 37.2 355.901 38.24 358.021 38.24C359.541 38.24 360.761 37.7 361.661 36.64C361.661 37.72 362.181 38.24 363.101 38.24C363.581 38.24 364.001 38.14 364.321 37.96V36.64C364.161 36.7 363.961 36.74 363.801 36.74C363.441 36.74 363.261 36.54 363.261 36.16V30.2C363.261 28.58 362.321 27.42 359.401 27.42ZM356.401 35.22C356.401 34.14 357.121 33.56 358.621 33.34L360.361 33.08C360.821 33.02 361.281 32.86 361.561 32.66V34.44C361.561 35.58 360.381 36.74 358.401 36.74C357.141 36.74 356.401 36.18 356.401 35.22ZM371.569 23.72V25.8H373.269V23.72H371.569ZM371.569 27.66V38H373.269V27.66H371.569ZM380.883 27.42C379.423 27.42 378.323 28 377.543 29.18H377.503V27.66H375.903V38H377.603V31.52C377.603 30.92 378.103 29.84 378.923 29.32C379.343 29.06 379.823 28.92 380.363 28.92C381.703 28.92 382.303 29.66 382.303 31.14V38H384.003V31.5C384.003 30.06 385.003 28.92 386.703 28.92C388.103 28.92 388.703 29.66 388.703 31.14V38H390.403V30.36C390.403 28.56 389.303 27.42 386.983 27.42C385.603 27.42 384.423 28.08 383.723 29.18C383.363 28.06 382.403 27.42 380.883 27.42ZM398.054 27.42C396.474 27.42 395.294 28 394.754 29.06H394.714V27.66H393.014V41.96H394.714V36.62H394.754C395.474 37.72 396.814 38.24 398.094 38.24C401.014 38.24 402.814 36.02 402.814 32.86C402.814 29.68 401.054 27.42 398.054 27.42ZM394.654 32.82C394.654 30.56 395.754 28.92 397.794 28.92C399.814 28.92 401.014 30.56 401.014 32.74C401.014 35.26 399.874 36.74 397.914 36.74C395.854 36.74 394.654 35.2 394.654 32.82ZM404.809 27.66V34.56C404.809 36.98 405.949 38.24 408.369 38.24C409.809 38.24 410.989 37.68 411.729 36.36H411.769V38H413.369V27.66H411.669V33.56C411.669 35.44 410.589 36.74 408.609 36.74C407.309 36.74 406.509 35.9 406.509 34.7V27.66H404.809ZM416.023 23.72V38H417.723V23.72H416.023ZM423.796 27.42C421.536 27.42 419.916 28.54 419.916 30.36C419.916 31.9 420.796 32.74 423.456 33.3C424.756 33.58 425.616 33.84 426.036 34.1C426.456 34.36 426.676 34.74 426.676 35.2C426.676 36.22 425.816 36.74 424.176 36.74C422.456 36.74 421.436 36.02 421.396 34.74H419.696C419.796 37.06 421.456 38.24 424.076 38.24C426.776 38.24 428.476 37.02 428.476 34.98C428.476 33.42 427.416 32.56 425.416 32.12L423.816 31.76C422.416 31.44 421.716 31 421.716 30.24C421.716 29.4 422.556 28.92 423.916 28.92C425.276 28.92 426.216 29.54 426.316 30.64V30.66H428.016C427.876 28.5 426.576 27.42 423.796 27.42ZM434.596 27.42C431.876 27.42 430.316 28.58 430.196 30.88H431.896C431.976 29.54 432.796 28.92 434.476 28.92C436.076 28.92 436.776 29.48 436.776 30.62C436.776 31.36 436.376 31.72 434.876 31.9C432.656 32.18 431.276 32.58 430.696 33.14C430.096 33.68 429.796 34.42 429.796 35.34C429.796 37.2 431.096 38.24 433.216 38.24C434.736 38.24 435.956 37.7 436.856 36.64C436.856 37.72 437.376 38.24 438.296 38.24C438.776 38.24 439.196 38.14 439.516 37.96V36.64C439.356 36.7 439.156 36.74 438.996 36.74C438.636 36.74 438.456 36.54 438.456 36.16V30.2C438.456 28.58 437.516 27.42 434.596 27.42ZM431.596 35.22C431.596 34.14 432.316 33.56 433.816 33.34L435.556 33.08C436.016 33.02 436.476 32.86 436.756 32.66V34.44C436.756 35.58 435.576 36.74 433.596 36.74C432.336 36.74 431.596 36.18 431.596 35.22ZM446.238 27.42C444.618 27.42 443.478 28.2 442.678 29.84H442.638V27.66H441.038V38H442.738V33.38C442.738 30.54 443.938 29.22 446.478 29.22V27.42C446.378 27.42 446.318 27.42 446.238 27.42ZM453.425 23.72V38H455.125V23.72H453.425ZM461.999 27.42C459.279 27.42 457.719 28.58 457.599 30.88H459.299C459.379 29.54 460.199 28.92 461.879 28.92C463.479 28.92 464.179 29.48 464.179 30.62C464.179 31.36 463.779 31.72 462.279 31.9C460.059 32.18 458.679 32.58 458.099 33.14C457.499 33.68 457.199 34.42 457.199 35.34C457.199 37.2 458.499 38.24 460.619 38.24C462.139 38.24 463.359 37.7 464.259 36.64C464.259 37.72 464.779 38.24 465.699 38.24C466.179 38.24 466.599 38.14 466.919 37.96V36.64C466.759 36.7 466.559 36.74 466.399 36.74C466.039 36.74 465.859 36.54 465.859 36.16V30.2C465.859 28.58 464.919 27.42 461.999 27.42ZM458.999 35.22C458.999 34.14 459.719 33.56 461.219 33.34L462.959 33.08C463.419 33.02 463.879 32.86 464.159 32.66V34.44C464.159 35.58 462.979 36.74 460.999 36.74C459.739 36.74 458.999 36.18 458.999 35.22ZM478.387 27.42C475.347 27.42 473.507 29.6 473.507 32.96C473.507 36.2 475.327 38.24 478.347 38.24C480.927 38.24 482.527 36.8 482.907 34.22H481.167C480.947 35.8 479.967 36.74 478.327 36.74C476.447 36.74 475.307 35.22 475.307 32.96C475.307 30.4 476.427 28.92 478.527 28.92C479.887 28.92 480.807 29.64 481.087 30.98H482.847C482.567 28.62 480.887 27.42 478.387 27.42ZM489.269 27.42C486.169 27.42 484.249 29.54 484.249 32.84C484.249 36.14 486.269 38.24 489.269 38.24C492.309 38.24 494.289 36.04 494.289 32.84C494.289 29.68 492.449 27.42 489.269 27.42ZM486.049 32.84C486.049 30.44 487.449 28.92 489.249 28.92C491.129 28.92 492.489 30.5 492.489 32.84C492.489 35.18 491.129 36.74 489.269 36.74C487.389 36.74 486.049 35.18 486.049 32.84ZM501.294 27.42C499.774 27.42 498.694 28 497.934 29.3H497.894V27.66H496.294V38H497.994V32.1C497.994 30.22 499.094 28.92 501.034 28.92C502.414 28.92 503.154 29.8 503.154 30.94V38H504.854V31.12C504.854 28.74 503.794 27.42 501.294 27.42ZM511.727 27.42C508.687 27.42 506.847 29.6 506.847 32.96C506.847 36.2 508.667 38.24 511.687 38.24C514.267 38.24 515.867 36.8 516.247 34.22H514.507C514.287 35.8 513.307 36.74 511.667 36.74C509.787 36.74 508.647 35.22 508.647 32.96C508.647 30.4 509.767 28.92 511.867 28.92C513.227 28.92 514.147 29.64 514.427 30.98H516.187C515.907 28.62 514.227 27.42 511.727 27.42ZM518.249 23.72V25.8H519.949V23.72H518.249ZM518.249 27.66V38H519.949V27.66H518.249ZM526.883 27.42C525.483 27.42 524.303 27.94 523.383 28.96C522.463 29.98 522.023 31.24 522.023 32.76C522.023 34.56 522.723 36.52 524.243 37.52C524.983 38 525.903 38.24 526.983 38.24C529.323 38.24 530.943 37.02 531.403 34.72H529.723C529.443 36 528.563 36.74 527.043 36.74C525.043 36.74 523.823 35.44 523.823 33.46V33.34H531.563V33.14C531.563 31.46 531.163 30.08 530.343 29.02C529.523 27.96 528.363 27.42 526.883 27.42ZM523.823 31.84C523.963 30.08 525.163 28.92 526.763 28.92C528.443 28.92 529.663 30.18 529.763 31.84H523.823ZM538.325 27.42C536.805 27.42 535.725 28 534.965 29.3H534.925V27.66H533.325V38H535.025V32.1C535.025 30.22 536.125 28.92 538.065 28.92C539.445 28.92 540.185 29.8 540.185 30.94V38H541.885V31.12C541.885 28.74 540.825 27.42 538.325 27.42ZM548.758 27.42C545.718 27.42 543.878 29.6 543.878 32.96C543.878 36.2 545.698 38.24 548.718 38.24C551.298 38.24 552.898 36.8 553.278 34.22H551.538C551.318 35.8 550.338 36.74 548.698 36.74C546.818 36.74 545.678 35.22 545.678 32.96C545.678 30.4 546.798 28.92 548.898 28.92C550.258 28.92 551.178 29.64 551.458 30.98H553.218C552.938 28.62 551.258 27.42 548.758 27.42ZM555.28 23.72V25.8H556.98V23.72H555.28ZM555.28 27.66V38H556.98V27.66H555.28ZM563.854 27.42C561.134 27.42 559.574 28.58 559.454 30.88H561.154C561.234 29.54 562.054 28.92 563.734 28.92C565.334 28.92 566.034 29.48 566.034 30.62C566.034 31.36 565.634 31.72 564.134 31.9C561.914 32.18 560.534 32.58 559.954 33.14C559.354 33.68 559.054 34.42 559.054 35.34C559.054 37.2 560.354 38.24 562.474 38.24C563.994 38.24 565.214 37.7 566.114 36.64C566.114 37.72 566.634 38.24 567.554 38.24C568.034 38.24 568.454 38.14 568.774 37.96V36.64C568.614 36.7 568.414 36.74 568.254 36.74C567.894 36.74 567.714 36.54 567.714 36.16V30.2C567.714 28.58 566.774 27.42 563.854 27.42ZM560.854 35.22C560.854 34.14 561.574 33.56 563.074 33.34L564.814 33.08C565.274 33.02 565.734 32.86 566.014 32.66V34.44C566.014 35.58 564.834 36.74 562.854 36.74C561.594 36.74 560.854 36.18 560.854 35.22ZM574.676 27.42C571.636 27.42 569.796 29.6 569.796 32.96C569.796 36.2 571.616 38.24 574.636 38.24C577.216 38.24 578.816 36.8 579.196 34.22H577.456C577.236 35.8 576.256 36.74 574.616 36.74C572.736 36.74 571.596 35.22 571.596 32.96C571.596 30.4 572.716 28.92 574.816 28.92C576.176 28.92 577.096 29.64 577.376 30.98H579.136C578.856 28.62 577.176 27.42 574.676 27.42ZM581.198 23.72V25.8H582.898V23.72H581.198ZM581.198 27.66V38H582.898V27.66H581.198ZM589.992 27.42C586.892 27.42 584.972 29.54 584.972 32.84C584.972 36.14 586.992 38.24 589.992 38.24C593.032 38.24 595.012 36.04 595.012 32.84C595.012 29.68 593.172 27.42 589.992 27.42ZM586.772 32.84C586.772 30.44 588.172 28.92 589.972 28.92C591.852 28.92 593.212 30.5 593.212 32.84C593.212 35.18 591.852 36.74 589.992 36.74C588.112 36.74 586.772 35.18 586.772 32.84ZM590.772 23.36L589.052 26.22H590.332L592.952 23.36H590.772ZM602.016 27.42C600.496 27.42 599.416 28 598.656 29.3H598.616V27.66H597.016V38H598.716V32.1C598.716 30.22 599.816 28.92 601.756 28.92C603.136 28.92 603.876 29.8 603.876 30.94V38H605.576V31.12C605.576 28.74 604.516 27.42 602.016 27.42ZM100.232 50.42C97.9717 50.42 96.3517 51.54 96.3517 53.36C96.3517 54.9 97.2317 55.74 99.8917 56.3C101.192 56.58 102.052 56.84 102.472 57.1C102.892 57.36 103.112 57.74 103.112 58.2C103.112 59.22 102.252 59.74 100.612 59.74C98.8917 59.74 97.8717 59.02 97.8317 57.74H96.1317C96.2317 60.06 97.8917 61.24 100.512 61.24C103.212 61.24 104.912 60.02 104.912 57.98C104.912 56.42 103.852 55.56 101.852 55.12L100.252 54.76C98.8517 54.44 98.1517 54 98.1517 53.24C98.1517 52.4 98.9917 51.92 100.352 51.92C101.712 51.92 102.652 52.54 102.752 53.64V53.66H104.452C104.312 51.5 103.012 50.42 100.232 50.42ZM111.252 50.42C108.152 50.42 106.232 52.54 106.232 55.84C106.232 59.14 108.252 61.24 111.252 61.24C114.292 61.24 116.272 59.04 116.272 55.84C116.272 52.68 114.432 50.42 111.252 50.42ZM108.032 55.84C108.032 53.44 109.432 51.92 111.232 51.92C113.112 51.92 114.472 53.5 114.472 55.84C114.472 58.18 113.112 59.74 111.252 59.74C109.372 59.74 108.032 58.18 108.032 55.84ZM118.336 46.72V61H120.036V59.62H120.076C120.796 60.72 122.136 61.24 123.416 61.24C126.336 61.24 128.136 59.02 128.136 55.86C128.136 52.72 126.336 50.42 123.376 50.42C121.776 50.42 120.616 51 120.076 52.06H120.036V46.72H118.336ZM119.976 55.82C119.976 53.56 121.116 51.92 123.116 51.92C125.136 51.92 126.336 53.56 126.336 55.74C126.336 58.26 125.196 59.74 123.236 59.74C121.176 59.74 119.976 58.2 119.976 55.82ZM135.272 50.42C133.652 50.42 132.512 51.2 131.712 52.84H131.672V50.66H130.072V61H131.772V56.38C131.772 53.54 132.972 52.22 135.512 52.22V50.42C135.412 50.42 135.352 50.42 135.272 50.42ZM140.74 50.42C139.34 50.42 138.16 50.94 137.24 51.96C136.32 52.98 135.88 54.24 135.88 55.76C135.88 57.56 136.58 59.52 138.1 60.52C138.84 61 139.76 61.24 140.84 61.24C143.18 61.24 144.8 60.02 145.26 57.72H143.58C143.3 59 142.42 59.74 140.9 59.74C138.9 59.74 137.68 58.44 137.68 56.46V56.34H145.42V56.14C145.42 54.46 145.02 53.08 144.2 52.02C143.38 50.96 142.22 50.42 140.74 50.42ZM137.68 54.84C137.82 53.08 139.02 51.92 140.62 51.92C142.3 51.92 143.52 53.18 143.62 54.84H137.68ZM157.049 50.42C155.649 50.42 154.469 50.94 153.549 51.96C152.629 52.98 152.189 54.24 152.189 55.76C152.189 57.56 152.889 59.52 154.409 60.52C155.149 61 156.069 61.24 157.149 61.24C159.489 61.24 161.109 60.02 161.569 57.72H159.889C159.609 59 158.729 59.74 157.209 59.74C155.209 59.74 153.989 58.44 153.989 56.46V56.34H161.729V56.14C161.729 54.46 161.329 53.08 160.509 52.02C159.689 50.96 158.529 50.42 157.049 50.42ZM153.989 54.84C154.129 53.08 155.329 51.92 156.929 51.92C158.609 51.92 159.829 53.18 159.929 54.84H153.989ZM163.591 46.72V61H165.291V46.72H163.591ZM177.811 50.42C174.771 50.42 172.931 52.6 172.931 55.96C172.931 59.2 174.751 61.24 177.771 61.24C180.351 61.24 181.951 59.8 182.331 57.22H180.591C180.371 58.8 179.391 59.74 177.751 59.74C175.871 59.74 174.731 58.22 174.731 55.96C174.731 53.4 175.851 51.92 177.951 51.92C179.311 51.92 180.231 52.64 180.511 53.98H182.271C181.991 51.62 180.311 50.42 177.811 50.42ZM184.333 46.72V61H186.033V46.72H184.333ZM188.767 46.72V48.8H190.467V46.72H188.767ZM188.767 50.66V61H190.467V50.66H188.767ZM198.08 50.42C196.62 50.42 195.52 51 194.74 52.18H194.7V50.66H193.1V61H194.8V54.52C194.8 53.92 195.3 52.84 196.12 52.32C196.54 52.06 197.02 51.92 197.56 51.92C198.9 51.92 199.5 52.66 199.5 54.14V61H201.2V54.5C201.2 53.06 202.2 51.92 203.9 51.92C205.3 51.92 205.9 52.66 205.9 54.14V61H207.6V53.36C207.6 51.56 206.5 50.42 204.18 50.42C202.8 50.42 201.62 51.08 200.92 52.18C200.56 51.06 199.6 50.42 198.08 50.42ZM214.391 50.42C211.671 50.42 210.111 51.58 209.991 53.88H211.691C211.771 52.54 212.591 51.92 214.271 51.92C215.871 51.92 216.571 52.48 216.571 53.62C216.571 54.36 216.171 54.72 214.671 54.9C212.451 55.18 211.071 55.58 210.491 56.14C209.891 56.68 209.591 57.42 209.591 58.34C209.591 60.2 210.891 61.24 213.011 61.24C214.531 61.24 215.751 60.7 216.651 59.64C216.651 60.72 217.171 61.24 218.091 61.24C218.571 61.24 218.991 61.14 219.311 60.96V59.64C219.151 59.7 218.951 59.74 218.791 59.74C218.431 59.74 218.251 59.54 218.251 59.16V53.2C218.251 51.58 217.311 50.42 214.391 50.42ZM211.391 58.22C211.391 57.14 212.111 56.56 213.611 56.34L215.351 56.08C215.811 56.02 216.271 55.86 216.551 55.66V57.44C216.551 58.58 215.371 59.74 213.391 59.74C212.131 59.74 211.391 59.18 211.391 58.22ZM221.273 58.78V61H222.453V61.1C222.453 62 221.993 62.7 221.293 62.94V63.94C222.773 63.5 223.493 62.38 223.493 60.92V58.78H221.273ZM232.126 46.72V61H233.826V46.72H232.126ZM240.7 50.42C237.98 50.42 236.42 51.58 236.3 53.88H238C238.08 52.54 238.9 51.92 240.58 51.92C242.18 51.92 242.88 52.48 242.88 53.62C242.88 54.36 242.48 54.72 240.98 54.9C238.76 55.18 237.38 55.58 236.8 56.14C236.2 56.68 235.9 57.42 235.9 58.34C235.9 60.2 237.2 61.24 239.32 61.24C240.84 61.24 242.06 60.7 242.96 59.64C242.96 60.72 243.48 61.24 244.4 61.24C244.88 61.24 245.3 61.14 245.62 60.96V59.64C245.46 59.7 245.26 59.74 245.1 59.74C244.74 59.74 244.56 59.54 244.56 59.16V53.2C244.56 51.58 243.62 50.42 240.7 50.42ZM237.7 58.22C237.7 57.14 238.42 56.56 239.92 56.34L241.66 56.08C242.12 56.02 242.58 55.86 242.86 55.66V57.44C242.86 58.58 241.68 59.74 239.7 59.74C238.44 59.74 237.7 59.18 237.7 58.22ZM252.828 46.72V61H254.528V59.62H254.568C255.288 60.72 256.628 61.24 257.908 61.24C260.828 61.24 262.628 59.02 262.628 55.86C262.628 52.72 260.828 50.42 257.868 50.42C256.268 50.42 255.108 51 254.568 52.06H254.528V46.72H252.828ZM254.468 55.82C254.468 53.56 255.608 51.92 257.608 51.92C259.628 51.92 260.828 53.56 260.828 55.74C260.828 58.26 259.688 59.74 257.728 59.74C255.668 59.74 254.468 58.2 254.468 55.82ZM264.724 46.72V48.8H266.424V46.72H264.724ZM264.724 50.66V61H266.424V50.66H264.724ZM273.517 50.42C270.417 50.42 268.497 52.54 268.497 55.84C268.497 59.14 270.517 61.24 273.517 61.24C276.557 61.24 278.537 59.04 278.537 55.84C278.537 52.68 276.697 50.42 273.517 50.42ZM270.297 55.84C270.297 53.44 271.697 51.92 273.497 51.92C275.377 51.92 276.737 53.5 276.737 55.84C276.737 58.18 275.377 59.74 273.517 59.74C271.637 59.74 270.297 58.18 270.297 55.84ZM288.082 46.72V52.04H288.042C287.402 51 286.022 50.42 284.682 50.42C281.722 50.42 279.982 52.64 279.982 55.8C279.982 59.02 281.842 61.24 284.742 61.24C286.282 61.24 287.502 60.66 288.042 59.6H288.082V61H289.782V46.72H288.082ZM281.782 55.92C281.782 53.46 282.902 51.92 284.862 51.92C286.962 51.92 288.142 53.5 288.142 55.84C288.142 58.12 287.022 59.74 284.982 59.74C282.982 59.74 281.782 58.1 281.782 55.92ZM292.497 46.72V48.8H294.197V46.72H292.497ZM292.497 50.66V61H294.197V50.66H292.497ZM295.831 50.66L299.671 61H301.491L305.271 50.66H303.491L300.671 59.28H300.631L297.731 50.66H295.831ZM311.131 50.42C309.731 50.42 308.551 50.94 307.631 51.96C306.711 52.98 306.271 54.24 306.271 55.76C306.271 57.56 306.971 59.52 308.491 60.52C309.231 61 310.151 61.24 311.231 61.24C313.571 61.24 315.191 60.02 315.651 57.72H313.971C313.691 59 312.811 59.74 311.291 59.74C309.291 59.74 308.071 58.44 308.071 56.46V56.34H315.811V56.14C315.811 54.46 315.411 53.08 314.591 52.02C313.771 50.96 312.611 50.42 311.131 50.42ZM308.071 54.84C308.211 53.08 309.411 51.92 311.011 51.92C312.691 51.92 313.911 53.18 314.011 54.84H308.071ZM322.713 50.42C321.093 50.42 319.953 51.2 319.153 52.84H319.113V50.66H317.513V61H319.213V56.38C319.213 53.54 320.413 52.22 322.953 52.22V50.42C322.853 50.42 322.793 50.42 322.713 50.42ZM327.673 50.42C325.413 50.42 323.793 51.54 323.793 53.36C323.793 54.9 324.673 55.74 327.333 56.3C328.633 56.58 329.493 56.84 329.913 57.1C330.333 57.36 330.553 57.74 330.553 58.2C330.553 59.22 329.693 59.74 328.053 59.74C326.333 59.74 325.313 59.02 325.273 57.74H323.573C323.673 60.06 325.333 61.24 327.953 61.24C330.653 61.24 332.353 60.02 332.353 57.98C332.353 56.42 331.293 55.56 329.293 55.12L327.693 54.76C326.293 54.44 325.593 54 325.593 53.24C325.593 52.4 326.433 51.92 327.793 51.92C329.153 51.92 330.093 52.54 330.193 53.64V53.66H331.893C331.753 51.5 330.453 50.42 327.673 50.42ZM334.333 46.72V48.8H336.033V46.72H334.333ZM334.333 50.66V61H336.033V50.66H334.333ZM346.207 46.72V52.04H346.167C345.527 51 344.147 50.42 342.807 50.42C339.847 50.42 338.107 52.64 338.107 55.8C338.107 59.02 339.967 61.24 342.867 61.24C344.407 61.24 345.627 60.66 346.167 59.6H346.207V61H347.907V46.72H346.207ZM339.907 55.92C339.907 53.46 341.027 51.92 342.987 51.92C345.087 51.92 346.267 53.5 346.267 55.84C346.267 58.12 345.147 59.74 343.107 59.74C341.107 59.74 339.907 58.1 339.907 55.92ZM354.762 50.42C352.042 50.42 350.482 51.58 350.362 53.88H352.062C352.142 52.54 352.962 51.92 354.642 51.92C356.242 51.92 356.942 52.48 356.942 53.62C356.942 54.36 356.542 54.72 355.042 54.9C352.822 55.18 351.442 55.58 350.862 56.14C350.262 56.68 349.962 57.42 349.962 58.34C349.962 60.2 351.262 61.24 353.382 61.24C354.902 61.24 356.122 60.7 357.022 59.64C357.022 60.72 357.542 61.24 358.462 61.24C358.942 61.24 359.362 61.14 359.682 60.96V59.64C359.522 59.7 359.322 59.74 359.162 59.74C358.802 59.74 358.622 59.54 358.622 59.16V53.2C358.622 51.58 357.682 50.42 354.762 50.42ZM351.762 58.22C351.762 57.14 352.482 56.56 353.982 56.34L355.722 56.08C356.182 56.02 356.642 55.86 356.922 55.66V57.44C356.922 58.58 355.742 59.74 353.762 59.74C352.502 59.74 351.762 59.18 351.762 58.22ZM368.804 46.72V52.04H368.764C368.124 51 366.744 50.42 365.404 50.42C362.444 50.42 360.704 52.64 360.704 55.8C360.704 59.02 362.564 61.24 365.464 61.24C367.004 61.24 368.224 60.66 368.764 59.6H368.804V61H370.504V46.72H368.804ZM362.504 55.92C362.504 53.46 363.624 51.92 365.584 51.92C367.684 51.92 368.864 53.5 368.864 55.84C368.864 58.12 367.744 59.74 365.704 59.74C363.704 59.74 362.504 58.1 362.504 55.92ZM377.566 50.66L381.666 60.94L381.006 62.6C380.746 63.3 380.266 63.64 379.566 63.64C379.226 63.64 378.886 63.5 378.566 63.4V64.96C378.946 65.1 379.326 65.14 379.746 65.14C381.266 65.14 381.946 64.5 382.846 62.1L387.246 50.66H385.446L382.546 59.12H382.506L379.486 50.66H377.566ZM394.353 46.72V61H396.053V46.72H394.353ZM402.926 50.42C400.206 50.42 398.646 51.58 398.526 53.88H400.226C400.306 52.54 401.126 51.92 402.806 51.92C404.406 51.92 405.106 52.48 405.106 53.62C405.106 54.36 404.706 54.72 403.206 54.9C400.986 55.18 399.606 55.58 399.026 56.14C398.426 56.68 398.126 57.42 398.126 58.34C398.126 60.2 399.426 61.24 401.546 61.24C403.066 61.24 404.286 60.7 405.186 59.64C405.186 60.72 405.706 61.24 406.626 61.24C407.106 61.24 407.526 61.14 407.846 60.96V59.64C407.686 59.7 407.486 59.74 407.326 59.74C406.966 59.74 406.786 59.54 406.786 59.16V53.2C406.786 51.58 405.846 50.42 402.926 50.42ZM399.926 58.22C399.926 57.14 400.646 56.56 402.146 56.34L403.886 56.08C404.346 56.02 404.806 55.86 405.086 55.66V57.44C405.086 58.58 403.906 59.74 401.926 59.74C400.666 59.74 399.926 59.18 399.926 58.22ZM419.995 50.42C418.475 50.42 417.395 51 416.635 52.3H416.595V50.66H414.995V61H416.695V55.1C416.695 53.22 417.795 51.92 419.735 51.92C421.115 51.92 421.855 52.8 421.855 53.94V61H423.555V54.12C423.555 51.74 422.495 50.42 419.995 50.42ZM430.348 50.42C427.628 50.42 426.068 51.58 425.948 53.88H427.648C427.728 52.54 428.548 51.92 430.228 51.92C431.828 51.92 432.528 52.48 432.528 53.62C432.528 54.36 432.128 54.72 430.628 54.9C428.408 55.18 427.028 55.58 426.448 56.14C425.848 56.68 425.548 57.42 425.548 58.34C425.548 60.2 426.848 61.24 428.968 61.24C430.488 61.24 431.708 60.7 432.608 59.64C432.608 60.72 433.128 61.24 434.048 61.24C434.528 61.24 434.948 61.14 435.268 60.96V59.64C435.108 59.7 434.908 59.74 434.748 59.74C434.388 59.74 434.208 59.54 434.208 59.16V53.2C434.208 51.58 433.268 50.42 430.348 50.42ZM427.348 58.22C427.348 57.14 428.068 56.56 429.568 56.34L431.308 56.08C431.768 56.02 432.228 55.86 432.508 55.66V57.44C432.508 58.58 431.328 59.74 429.348 59.74C428.088 59.74 427.348 59.18 427.348 58.22ZM437.51 47.56V50.66H435.75V52.16H437.51V58.84C437.51 60.4 437.99 61 439.87 61H441.27V59.5H440.79C440.43 59.5 440.07 59.48 439.73 59.46C439.37 59.42 439.21 59.16 439.21 58.64V52.16H441.27V50.66H439.21V47.56H437.51ZM443.159 50.66V57.56C443.159 59.98 444.299 61.24 446.719 61.24C448.159 61.24 449.339 60.68 450.079 59.36H450.119V61H451.719V50.66H450.019V56.56C450.019 58.44 448.939 59.74 446.959 59.74C445.659 59.74 444.859 58.9 444.859 57.7V50.66H443.159ZM459.412 50.42C457.792 50.42 456.652 51.2 455.852 52.84H455.812V50.66H454.212V61H455.912V56.38C455.912 53.54 457.112 52.22 459.652 52.22V50.42C459.552 50.42 459.492 50.42 459.412 50.42ZM465.172 50.42C462.452 50.42 460.892 51.58 460.772 53.88H462.472C462.552 52.54 463.372 51.92 465.052 51.92C466.652 51.92 467.352 52.48 467.352 53.62C467.352 54.36 466.952 54.72 465.452 54.9C463.232 55.18 461.852 55.58 461.272 56.14C460.672 56.68 460.372 57.42 460.372 58.34C460.372 60.2 461.672 61.24 463.792 61.24C465.312 61.24 466.532 60.7 467.432 59.64C467.432 60.72 467.952 61.24 468.872 61.24C469.352 61.24 469.772 61.14 470.092 60.96V59.64C469.932 59.7 469.732 59.74 469.572 59.74C469.212 59.74 469.032 59.54 469.032 59.16V53.2C469.032 51.58 468.092 50.42 465.172 50.42ZM462.172 58.22C462.172 57.14 462.892 56.56 464.392 56.34L466.132 56.08C466.592 56.02 467.052 55.86 467.332 55.66V57.44C467.332 58.58 466.152 59.74 464.172 59.74C462.912 59.74 462.172 59.18 462.172 58.22ZM471.775 46.72V61H473.475V46.72H471.775ZM480.408 50.42C479.008 50.42 477.828 50.94 476.908 51.96C475.988 52.98 475.548 54.24 475.548 55.76C475.548 57.56 476.248 59.52 477.768 60.52C478.508 61 479.428 61.24 480.508 61.24C482.848 61.24 484.468 60.02 484.928 57.72H483.248C482.968 59 482.088 59.74 480.568 59.74C478.568 59.74 477.348 58.44 477.348 56.46V56.34H485.088V56.14C485.088 54.46 484.688 53.08 483.868 52.02C483.048 50.96 481.888 50.42 480.408 50.42ZM477.348 54.84C477.488 53.08 478.688 51.92 480.288 51.92C481.968 51.92 483.188 53.18 483.288 54.84H477.348ZM486.41 50.66V52.16H492.25L486.01 59.7V61H494.73V59.5H488.13L494.45 51.82V50.66H486.41ZM500.7 50.42C497.98 50.42 496.42 51.58 496.3 53.88H498C498.08 52.54 498.9 51.92 500.58 51.92C502.18 51.92 502.88 52.48 502.88 53.62C502.88 54.36 502.48 54.72 500.98 54.9C498.76 55.18 497.38 55.58 496.8 56.14C496.2 56.68 495.9 57.42 495.9 58.34C495.9 60.2 497.2 61.24 499.32 61.24C500.84 61.24 502.06 60.7 502.96 59.64C502.96 60.72 503.48 61.24 504.4 61.24C504.88 61.24 505.3 61.14 505.62 60.96V59.64C505.46 59.7 505.26 59.74 505.1 59.74C504.74 59.74 504.56 59.54 504.56 59.16V53.2C504.56 51.58 503.62 50.42 500.7 50.42ZM497.7 58.22C497.7 57.14 498.42 56.56 499.92 56.34L501.66 56.08C502.12 56.02 502.58 55.86 502.86 55.66V57.44C502.86 58.58 501.68 59.74 499.7 59.74C498.44 59.74 497.7 59.18 497.7 58.22ZM507.582 58.78V61H509.802V58.78H507.582Z" fill="white"/>
</svg>
