<svg width="478" height="13" viewBox="0 0 478 13" fill="none" xmlns="http://www.w3.org/2000/svg">
<path d="M0.944 12H4.224C7.824 12 8.224 9.568 8.224 6.288C8.224 2.992 7.808 0.575999 4.208 0.575999H0.944V12ZM2.768 1.952H4.288C5.952 1.952 6.4 3.28 6.4 6.288C6.4 9.44 5.872 10.624 4.288 10.624H2.768V1.952ZM9.83463 0.575999V12H16.1386V10.464H11.6586V6.816H15.7546V5.28H11.6586V2.112H16.0106V0.575999H9.83463ZM20.8498 0.351999C18.6258 0.351999 17.2818 1.568 17.2818 3.584C17.2818 5.344 18.1938 6.208 19.7298 6.736L20.9778 7.168C22.0018 7.52 22.5458 8 22.5458 9.184C22.5458 10.048 21.9378 10.848 20.8177 10.848C19.6818 10.848 18.9457 10.272 18.9457 8.72V8.464H17.1217V8.688C17.1217 11.008 18.3218 12.224 20.5938 12.224C23.0738 12.224 24.3698 11.056 24.3698 8.784C24.3698 6.912 23.3458 6.24 22.0498 5.76L20.8177 5.312C19.5858 4.864 19.1058 4.336 19.1058 3.376C19.1058 2.288 19.7298 1.728 20.6418 1.728C22.0498 1.728 22.2418 2.64 22.2418 3.424V3.616H24.0658V3.312C24.0658 1.312 22.9618 0.351999 20.8498 0.351999ZM29.3546 0.351999C26.5706 0.351999 25.5626 2.032 25.5626 6.288C25.5626 10.608 26.6026 12.224 29.3386 12.224C31.5786 12.224 32.8586 10.784 32.8586 8.08V7.904H31.0346V8.144C31.0346 9.936 30.4746 10.848 29.3386 10.848C27.9786 10.848 27.3866 9.936 27.3866 6.24C27.3866 2.656 27.9306 1.728 29.3546 1.728C30.4266 1.728 30.9706 2.464 30.9706 3.984V4.144H32.7946V3.888C32.7946 1.776 31.8826 0.351999 29.3546 0.351999ZM33.9875 0.575999V8.624C33.9875 11.008 35.0435 12.224 37.4915 12.224C39.8435 12.224 40.9795 11.088 40.9795 8.64V0.575999H39.1555V8.768C39.1555 10.208 38.5955 10.848 37.4915 10.848C36.3715 10.848 35.8115 10.208 35.8115 8.768V0.575999H33.9875ZM42.7253 0.575999V12H46.3573C48.3893 12 49.8612 10.88 49.8612 8.88C49.8612 7.072 49.1573 6.208 47.8133 5.968V5.936C48.9333 5.584 49.4933 4.72 49.4933 3.344C49.4933 1.536 48.3733 0.575999 46.4053 0.575999H42.7253ZM44.5493 5.392V1.952H45.8773C47.0613 1.952 47.6693 2.4 47.6693 3.584C47.6693 4.768 46.9973 5.392 46.0052 5.392H44.5493ZM44.5493 10.624V6.672H46.2613C47.1573 6.672 48.0373 7.216 48.0373 8.624C48.0373 10.16 47.2213 10.624 46.3893 10.624H44.5493ZM51.319 0.575999V12H53.143V7.04H54.647C56.007 7.04 56.295 7.76 56.311 9.104L56.327 10.016C56.343 11.008 56.391 11.616 56.679 12H58.743C58.231 11.616 58.183 11.264 58.167 10.288L58.135 8.784C58.103 7.456 57.767 6.48 56.343 6.352V6.32C57.751 6.096 58.247 4.8 58.247 3.52C58.247 1.648 57.223 0.575999 55.335 0.575999H51.319ZM53.143 5.664V1.952H54.711C55.943 1.952 56.423 2.64 56.423 3.792C56.423 5.344 55.319 5.664 54.647 5.664H53.143ZM59.9128 0.575999V12H66.2168V10.464H61.7368V6.816H65.8328V5.28H61.7368V2.112H66.0888V0.575999H59.9128ZM71.4596 0.575999V12H73.1876V3.264H73.2196L76.5316 12H78.7556V0.575999H77.0276V9.088H76.9956L73.6836 0.575999H71.4596ZM80.5031 0.575999V8.624C80.5031 11.008 81.5591 12.224 84.0071 12.224C86.3591 12.224 87.4951 11.088 87.4951 8.64V0.575999H85.6711V8.768C85.6711 10.208 85.1111 10.848 84.0071 10.848C82.8871 10.848 82.3271 10.208 82.3271 8.768V0.575999H80.5031ZM89.2409 0.575999V12H95.5449V10.464H91.0649V6.816H95.1609V5.28H91.0649V2.112H95.4169V0.575999H89.2409ZM100.256 0.351999C98.032 0.351999 96.688 1.568 96.688 3.584C96.688 5.344 97.6 6.208 99.136 6.736L100.384 7.168C101.408 7.52 101.952 8 101.952 9.184C101.952 10.048 101.344 10.848 100.224 10.848C99.088 10.848 98.352 10.272 98.352 8.72V8.464H96.528V8.688C96.528 11.008 97.728 12.224 100 12.224C102.48 12.224 103.776 11.056 103.776 8.784C103.776 6.912 102.752 6.24 101.456 5.76L100.224 5.312C98.992 4.864 98.512 4.336 98.512 3.376C98.512 2.288 99.136 1.728 100.048 1.728C101.456 1.728 101.648 2.64 101.648 3.424V3.616H103.472V3.312C103.472 1.312 102.368 0.351999 100.256 0.351999ZM104.393 0.575999V2.112H107.113V12H108.937V2.112H111.609V0.575999H104.393ZM112.647 0.575999V12H114.471V7.04H115.975C117.335 7.04 117.623 7.76 117.639 9.104L117.655 10.016C117.671 11.008 117.719 11.616 118.007 12H120.071C119.559 11.616 119.511 11.264 119.495 10.288L119.463 8.784C119.431 7.456 119.095 6.48 117.671 6.352V6.32C119.079 6.096 119.575 4.8 119.575 3.52C119.575 1.648 118.551 0.575999 116.663 0.575999H112.647ZM114.471 5.664V1.952H116.039C117.271 1.952 117.751 2.64 117.751 3.792C117.751 5.344 116.647 5.664 115.975 5.664H114.471ZM124.745 0.351999C122.153 0.351999 120.969 2.16 120.969 6.288C120.969 10.432 122.153 12.224 124.745 12.224C127.337 12.224 128.521 10.416 128.521 6.288C128.521 2.16 127.337 0.351999 124.745 0.351999ZM122.793 6.24C122.793 2.72 123.497 1.728 124.729 1.728C125.881 1.728 126.697 2.48 126.697 6.24C126.697 9.984 125.929 10.848 124.745 10.848C123.497 10.848 122.793 9.856 122.793 6.24ZM133.444 0.351999C131.22 0.351999 129.876 1.568 129.876 3.584C129.876 5.344 130.788 6.208 132.324 6.736L133.572 7.168C134.596 7.52 135.14 8 135.14 9.184C135.14 10.048 134.532 10.848 133.411 10.848C132.276 10.848 131.539 10.272 131.539 8.72V8.464H129.715V8.688C129.715 11.008 130.916 12.224 133.188 12.224C135.668 12.224 136.964 11.056 136.964 8.784C136.964 6.912 135.94 6.24 134.644 5.76L133.411 5.312C132.18 4.864 131.7 4.336 131.7 3.376C131.7 2.288 132.324 1.728 133.236 1.728C134.644 1.728 134.836 2.64 134.836 3.424V3.616H136.66V3.312C136.66 1.312 135.556 0.351999 133.444 0.351999ZM145.792 0.351999C143.008 0.351999 142 2.032 142 6.288C142 10.608 143.04 12.224 145.776 12.224C148.016 12.224 149.296 10.784 149.296 8.08V7.904H147.472V8.144C147.472 9.936 146.912 10.848 145.776 10.848C144.416 10.848 143.824 9.936 143.824 6.24C143.824 2.656 144.368 1.728 145.792 1.728C146.864 1.728 147.408 2.464 147.408 3.984V4.144H149.232V3.888C149.232 1.776 148.32 0.351999 145.792 0.351999ZM154.073 0.351999C151.481 0.351999 150.297 2.16 150.297 6.288C150.297 10.432 151.481 12.224 154.073 12.224C156.665 12.224 157.849 10.416 157.849 6.288C157.849 2.16 156.665 0.351999 154.073 0.351999ZM152.121 6.24C152.121 2.72 152.825 1.728 154.057 1.728C155.209 1.728 156.025 2.48 156.025 6.24C156.025 9.984 155.257 10.848 154.073 10.848C152.825 10.848 152.121 9.856 152.121 6.24ZM159.46 0.575999V12H161.188V2.496H161.22L163.524 12H165.06L167.364 2.496H167.396V12H169.124V0.575999H166.34L164.356 9.04H164.324L162.308 0.575999H159.46ZM171.007 0.575999V12H172.831V7.28H174.447C176.335 7.28 177.775 6.16 177.775 3.904C177.775 1.504 176.367 0.575999 174.655 0.575999H171.007ZM172.831 5.904V1.952H173.999C174.991 1.952 175.951 2.272 175.951 3.936C175.951 5.264 175.231 5.904 174.127 5.904H172.831ZM179.007 0.575999V12H180.831V7.04H182.335C183.695 7.04 183.983 7.76 183.999 9.104L184.015 10.016C184.031 11.008 184.079 11.616 184.367 12H186.431C185.919 11.616 185.871 11.264 185.855 10.288L185.823 8.784C185.791 7.456 185.455 6.48 184.031 6.352V6.32C185.439 6.096 185.935 4.8 185.935 3.52C185.935 1.648 184.911 0.575999 183.023 0.575999H179.007ZM180.831 5.664V1.952H182.399C183.631 1.952 184.111 2.64 184.111 3.792C184.111 5.344 183.007 5.664 182.335 5.664H180.831ZM191.104 0.351999C188.512 0.351999 187.328 2.16 187.328 6.288C187.328 10.432 188.512 12.224 191.104 12.224C193.696 12.224 194.88 10.416 194.88 6.288C194.88 2.16 193.696 0.351999 191.104 0.351999ZM189.152 6.24C189.152 2.72 189.856 1.728 191.088 1.728C192.24 1.728 193.056 2.48 193.056 6.24C193.056 9.984 192.288 10.848 191.104 10.848C189.856 10.848 189.152 9.856 189.152 6.24ZM196.491 0.575999V12H198.219V2.496H198.251L200.555 12H202.091L204.395 2.496H204.427V12H206.155V0.575999H203.371L201.387 9.04H201.355L199.339 0.575999H196.491ZM207.958 0.575999V12H209.782V0.575999H207.958ZM214.897 0.351999C212.673 0.351999 211.329 1.568 211.329 3.584C211.329 5.344 212.241 6.208 213.777 6.736L215.025 7.168C216.049 7.52 216.593 8 216.593 9.184C216.593 10.048 215.985 10.848 214.865 10.848C213.729 10.848 212.993 10.272 212.993 8.72V8.464H211.169V8.688C211.169 11.008 212.369 12.224 214.641 12.224C217.121 12.224 218.417 11.056 218.417 8.784C218.417 6.912 217.393 6.24 216.097 5.76L214.865 5.312C213.633 4.864 213.153 4.336 213.153 3.376C213.153 2.288 213.777 1.728 214.689 1.728C216.097 1.728 216.289 2.64 216.289 3.424V3.616H218.113V3.312C218.113 1.312 217.009 0.351999 214.897 0.351999ZM223.386 0.351999C220.794 0.351999 219.61 2.16 219.61 6.288C219.61 10.432 220.794 12.224 223.386 12.224C225.978 12.224 227.161 10.416 227.161 6.288C227.161 2.16 225.978 0.351999 223.386 0.351999ZM221.434 6.24C221.434 2.72 222.138 1.728 223.37 1.728C224.522 1.728 225.338 2.48 225.338 6.24C225.338 9.984 224.57 10.848 223.386 10.848C222.138 10.848 221.434 9.856 221.434 6.24ZM232.084 0.351999C229.86 0.351999 228.516 1.568 228.516 3.584C228.516 5.344 229.428 6.208 230.964 6.736L232.212 7.168C233.236 7.52 233.78 8 233.78 9.184C233.78 10.048 233.172 10.848 232.052 10.848C230.916 10.848 230.18 10.272 230.18 8.72V8.464H228.356V8.688C228.356 11.008 229.556 12.224 231.828 12.224C234.308 12.224 235.604 11.056 235.604 8.784C235.604 6.912 234.58 6.24 233.284 5.76L232.052 5.312C230.82 4.864 230.34 4.336 230.34 3.376C230.34 2.288 230.964 1.728 231.876 1.728C233.284 1.728 233.476 2.64 233.476 3.424V3.616H235.3V3.312C235.3 1.312 234.196 0.351999 232.084 0.351999ZM240.913 12H244.193C247.793 12 248.193 9.568 248.193 6.288C248.193 2.992 247.777 0.575999 244.177 0.575999H240.913V12ZM242.737 1.952H244.257C245.921 1.952 246.369 3.28 246.369 6.288C246.369 9.44 245.841 10.624 244.257 10.624H242.737V1.952ZM249.803 0.575999V12H256.107V10.464H251.627V6.816H255.723V5.28H251.627V2.112H255.979V0.575999H249.803ZM264.662 0.351999C262.438 0.351999 261.094 1.568 261.094 3.584C261.094 5.344 262.006 6.208 263.542 6.736L264.79 7.168C265.814 7.52 266.358 8 266.358 9.184C266.358 10.048 265.75 10.848 264.63 10.848C263.494 10.848 262.758 10.272 262.758 8.72V8.464H260.934V8.688C260.934 11.008 262.134 12.224 264.406 12.224C266.886 12.224 268.182 11.056 268.182 8.784C268.182 6.912 267.158 6.24 265.862 5.76L264.63 5.312C263.398 4.864 262.918 4.336 262.918 3.376C262.918 2.288 263.542 1.728 264.454 1.728C265.862 1.728 266.054 2.64 266.054 3.424V3.616H267.878V3.312C267.878 1.312 266.774 0.351999 264.662 0.351999ZM273.151 0.351999C270.559 0.351999 269.375 2.16 269.375 6.288C269.375 10.432 270.559 12.224 273.151 12.224C275.743 12.224 276.927 10.416 276.927 6.288C276.927 2.16 275.743 0.351999 273.151 0.351999ZM271.199 6.24C271.199 2.72 271.903 1.728 273.135 1.728C274.287 1.728 275.103 2.48 275.103 6.24C275.103 9.984 274.335 10.848 273.151 10.848C271.903 10.848 271.199 9.856 271.199 6.24ZM281.85 0.351999C279.626 0.351999 278.282 1.568 278.282 3.584C278.282 5.344 279.194 6.208 280.73 6.736L281.978 7.168C283.002 7.52 283.546 8 283.546 9.184C283.546 10.048 282.938 10.848 281.818 10.848C280.682 10.848 279.946 10.272 279.946 8.72V8.464H278.122V8.688C278.122 11.008 279.322 12.224 281.594 12.224C284.074 12.224 285.37 11.056 285.37 8.784C285.37 6.912 284.346 6.24 283.05 5.76L281.818 5.312C280.586 4.864 280.106 4.336 280.106 3.376C280.106 2.288 280.73 1.728 281.642 1.728C283.05 1.728 283.242 2.64 283.242 3.424V3.616H285.066V3.312C285.066 1.312 283.962 0.351999 281.85 0.351999ZM285.987 0.575999V2.112H288.707V12H290.531V2.112H293.203V0.575999H285.987ZM294.241 0.575999V12H300.545V10.464H296.065V6.816H300.161V5.28H296.065V2.112H300.417V0.575999H294.241ZM301.944 0.575999V12H303.672V3.264H303.704L307.016 12H309.24V0.575999H307.512V9.088H307.48L304.168 0.575999H301.944ZM311.052 0.575999V12H312.876V0.575999H311.052ZM314.678 0.575999V12H318.31C320.342 12 321.814 10.88 321.814 8.88C321.814 7.072 321.11 6.208 319.766 5.968V5.936C320.886 5.584 321.446 4.72 321.446 3.344C321.446 1.536 320.326 0.575999 318.358 0.575999H314.678ZM316.502 5.392V1.952H317.83C319.014 1.952 319.622 2.4 319.622 3.584C319.622 4.768 318.95 5.392 317.958 5.392H316.502ZM316.502 10.624V6.672H318.214C319.11 6.672 319.99 7.216 319.99 8.624C319.99 10.16 319.174 10.624 318.342 10.624H316.502ZM323.192 0.575999V12H325.016V0.575999H323.192ZM326.611 0.575999V12H332.851V10.464H328.435V0.575999H326.611ZM333.848 0.575999V12H335.672V0.575999H333.848ZM337.475 12H340.755C344.355 12 344.755 9.568 344.755 6.288C344.755 2.992 344.339 0.575999 340.739 0.575999H337.475V12ZM339.299 1.952H340.819C342.483 1.952 342.931 3.28 342.931 6.288C342.931 9.44 342.403 10.624 340.819 10.624H339.299V1.952ZM348.526 0.575999L345.278 12H347.182L347.918 9.2H351.262L351.966 12H353.87L350.862 0.575999H348.526ZM349.614 2.112H349.646L350.958 7.744H348.254L349.614 2.112ZM354.663 12H357.943C361.543 12 361.943 9.568 361.943 6.288C361.943 2.992 361.527 0.575999 357.927 0.575999H354.663V12ZM356.487 1.952H358.007C359.671 1.952 360.119 3.28 360.119 6.288C360.119 9.44 359.591 10.624 358.007 10.624H356.487V1.952ZM367.397 0.575999V12H369.125V2.496H369.157L371.461 12H372.997L375.301 2.496H375.333V12H377.061V0.575999H374.277L372.293 9.04H372.261L370.245 0.575999H367.397ZM378.944 0.575999V12H385.248V10.464H380.768V6.816H384.864V5.28H380.768V2.112H385.12V0.575999H378.944ZM386.647 12H389.927C393.527 12 393.927 9.568 393.927 6.288C393.927 2.992 393.511 0.575999 389.911 0.575999H386.647V12ZM388.471 1.952H389.991C391.655 1.952 392.103 3.28 392.103 6.288C392.103 9.44 391.575 10.624 389.991 10.624H388.471V1.952ZM395.458 0.575999V12H397.282V0.575999H395.458ZM402.589 0.351999C399.997 0.351999 398.813 2.16 398.813 6.288C398.813 10.432 399.997 12.224 402.589 12.224C405.181 12.224 406.365 10.416 406.365 6.288C406.365 2.16 405.181 0.351999 402.589 0.351999ZM400.637 6.24C400.637 2.72 401.341 1.728 402.573 1.728C403.725 1.728 404.541 2.48 404.541 6.24C404.541 9.984 403.773 10.848 402.589 10.848C401.341 10.848 400.637 9.856 400.637 6.24ZM409.854 0.575999L406.606 12H408.51L409.246 9.2H412.59L413.294 12H415.198L412.19 0.575999H409.854ZM410.942 2.112H410.974L412.286 7.744H409.582L410.942 2.112ZM415.991 0.575999V12H417.719V2.496H417.751L420.055 12H421.591L423.895 2.496H423.927V12H425.655V0.575999H422.871L420.887 9.04H420.855L418.839 0.575999H415.991ZM427.538 0.575999V12H431.17C433.202 12 434.674 10.88 434.674 8.88C434.674 7.072 433.97 6.208 432.626 5.968V5.936C433.746 5.584 434.306 4.72 434.306 3.344C434.306 1.536 433.186 0.575999 431.218 0.575999H427.538ZM429.362 5.392V1.952H430.69C431.874 1.952 432.482 2.4 432.482 3.584C432.482 4.768 431.81 5.392 430.818 5.392H429.362ZM429.362 10.624V6.672H431.074C431.97 6.672 432.85 7.216 432.85 8.624C432.85 10.16 432.034 10.624 431.202 10.624H429.362ZM436.052 0.575999V12H437.876V0.575999H436.052ZM439.678 0.575999V12H445.982V10.464H441.502V6.816H445.598V5.28H441.502V2.112H445.854V0.575999H439.678ZM447.382 0.575999V12H449.11V3.264H449.142L452.454 12H454.678V0.575999H452.95V9.088H452.918L449.606 0.575999H447.382ZM455.721 0.575999V2.112H458.441V12H460.265V2.112H462.937V0.575999H455.721ZM465.26 0.575999L462.012 12H463.916L464.652 9.2H467.996L468.7 12H470.604L467.596 0.575999H465.26ZM466.348 2.112H466.38L467.692 7.744H464.988L466.348 2.112ZM471.189 0.575999V12H477.429V10.464H473.013V0.575999H471.189Z" fill="white"/>
</svg>
