<svg width="289" height="31" viewBox="0 0 289 31" fill="none" xmlns="http://www.w3.org/2000/svg">
<path d="M0.954844 1.44V30H3.51484V15.76H14.6748V30H17.2348V1.44H14.6748V13.6H3.51484V1.44H0.954844ZM30.577 0.96C24.497 0.96 21.457 5.8 21.457 15.72C21.457 25.64 24.497 30.48 30.577 30.48C36.617 30.48 39.697 25.6 39.697 15.72C39.697 5.84 36.617 0.96 30.577 0.96ZM24.017 15.72C24.017 7.28 26.097 3.12 30.537 3.12C35.057 3.12 37.137 7.16 37.137 15.72C37.137 24.32 35.017 28.32 30.577 28.32C26.177 28.32 24.017 24.32 24.017 15.72ZM43.9236 1.44V30H46.4836V16.96H51.5236C53.8436 16.96 55.1236 17.48 55.8836 18.44C56.6836 19.44 57.0436 21.68 57.0436 25.16C57.0436 27.56 57.3636 29.28 57.8436 30H60.8436C60.0836 29.16 59.6836 27.92 59.6436 25.72C59.5636 20.2 59.6436 16.36 54.7236 15.92H54.6836V15.84C58.1236 15.2 59.8436 12.52 59.8436 8.6C59.8436 3.92 56.9636 1.44 52.6036 1.44H43.9236ZM46.4836 14.8V3.6H51.1236C55.2036 3.6 57.2836 5.16 57.2836 9.16C57.2836 12.96 54.9636 14.8 50.8836 14.8H46.4836ZM70.0836 1.44L61.6436 30H64.3636L66.6836 21.68H76.6836L79.0036 30H81.7236L73.2836 1.44H70.0836ZM71.6436 3.44H71.7236L76.1236 19.52H67.2436L71.6436 3.44ZM93.533 1.44V30H100.493C105.133 30 108.173 28.44 109.653 24.4C110.373 22.44 110.773 19.52 110.773 15.72C110.773 8.2 109.333 4.52 106.293 2.76C104.773 1.88 102.853 1.44 100.573 1.44H93.533ZM96.093 27.84V3.6H100.213C103.413 3.6 105.373 4.52 106.493 6.4C107.653 8.28 108.213 11 108.213 15.76C108.213 24.32 106.253 27.84 100.413 27.84H96.093ZM115.017 1.44V30H129.537V27.84H117.577V16.16H128.417V14H117.577V3.6H129.177V1.44H115.017ZM132.791 1.44V30H147.191V27.84H135.351V1.44H132.791ZM159.431 1.44V30H161.991V17.6H166.271C171.911 17.6 174.991 14.84 174.991 9.52C174.991 4.16 172.031 1.44 167.311 1.44H159.431ZM161.991 15.44V3.6H166.351C170.471 3.6 172.431 5.36 172.431 9.52C172.431 13.48 170.151 15.44 166.471 15.44H161.991ZM178.65 1.44V30H193.05V27.84H181.21V1.44H178.65ZM201.841 1.44L193.401 30H196.121L198.441 21.68H208.441L210.761 30H213.481L205.041 1.44H201.841ZM203.401 3.44H203.481L207.881 19.52H199.001L203.401 3.44ZM215.681 1.44V30H218.241V5.12H218.321L229.241 30H232.681V1.44H230.121V26.32H230.041L219.121 1.44H215.681ZM237.166 1.44V30H251.686V27.84H239.726V16.16H250.566V14H239.726V3.6H251.326V1.44H237.166ZM252.939 1.44V3.6H260.299V30H262.859V3.6H270.219V1.44H252.939ZM276.685 1.44L268.245 30H270.965L273.285 21.68H283.285L285.605 30H288.325L279.885 1.44H276.685ZM278.245 3.44H278.325L282.725 19.52H273.845L278.245 3.44Z" fill="white"/>
</svg>
