<svg width="592" height="66" viewBox="0 0 592 66" fill="none" xmlns="http://www.w3.org/2000/svg">
<path d="M0.331484 0.719999V15H9.79148V13.4H2.23148V0.719999H0.331484ZM15.4048 4.42C12.6848 4.42 11.1248 5.58 11.0048 7.88H12.7048C12.7848 6.54 13.6048 5.92 15.2848 5.92C16.8848 5.92 17.5848 6.48 17.5848 7.62C17.5848 8.36 17.1848 8.72 15.6848 8.9C13.4648 9.18 12.0848 9.58 11.5048 10.14C10.9048 10.68 10.6048 11.42 10.6048 12.34C10.6048 14.2 11.9048 15.24 14.0248 15.24C15.5448 15.24 16.7648 14.7 17.6648 13.64C17.6648 14.72 18.1848 15.24 19.1048 15.24C19.5848 15.24 20.0048 15.14 20.3248 14.96V13.64C20.1648 13.7 19.9648 13.74 19.8048 13.74C19.4448 13.74 19.2648 13.54 19.2648 13.16V7.2C19.2648 5.58 18.3248 4.42 15.4048 4.42ZM12.4048 12.22C12.4048 11.14 13.1248 10.56 14.6248 10.34L16.3648 10.08C16.8248 10.02 17.2848 9.86 17.5648 9.66V11.44C17.5648 12.58 16.3848 13.74 14.4048 13.74C13.1448 13.74 12.4048 13.18 12.4048 12.22ZM27.5734 0.719999V2.8H29.2734V0.719999H27.5734ZM27.5734 4.66V15H29.2734V4.66H27.5734ZM36.907 4.42C35.387 4.42 34.307 5 33.547 6.3H33.507V4.66H31.907V15H33.607V9.1C33.607 7.22 34.707 5.92 36.647 5.92C38.027 5.92 38.767 6.8 38.767 7.94V15H40.467V8.12C40.467 5.74 39.407 4.42 36.907 4.42ZM43.1202 0.719999V2.8H44.8202V0.719999H43.1202ZM43.1202 4.66V15H44.8202V4.66H43.1202ZM51.7738 4.42C48.7338 4.42 46.8938 6.6 46.8938 9.96C46.8938 13.2 48.7138 15.24 51.7338 15.24C54.3138 15.24 55.9138 13.8 56.2938 11.22H54.5538C54.3338 12.8 53.3538 13.74 51.7138 13.74C49.8338 13.74 48.6938 12.22 48.6938 9.96C48.6938 7.4 49.8138 5.92 51.9138 5.92C53.2738 5.92 54.1938 6.64 54.4738 7.98H56.2338C55.9538 5.62 54.2738 4.42 51.7738 4.42ZM58.296 0.719999V2.8H59.996V0.719999H58.296ZM58.296 4.66V15H59.996V4.66H58.296ZM66.8696 4.42C64.1496 4.42 62.5896 5.58 62.4696 7.88H64.1696C64.2496 6.54 65.0696 5.92 66.7496 5.92C68.3496 5.92 69.0496 6.48 69.0496 7.62C69.0496 8.36 68.6496 8.72 67.1496 8.9C64.9296 9.18 63.5496 9.58 62.9696 10.14C62.3696 10.68 62.0696 11.42 62.0696 12.34C62.0696 14.2 63.3696 15.24 65.4896 15.24C67.0096 15.24 68.2296 14.7 69.1296 13.64C69.1296 14.72 69.6496 15.24 70.5696 15.24C71.0496 15.24 71.4696 15.14 71.7896 14.96V13.64C71.6296 13.7 71.4296 13.74 71.2696 13.74C70.9096 13.74 70.7296 13.54 70.7296 13.16V7.2C70.7296 5.58 69.7896 4.42 66.8696 4.42ZM63.8696 12.22C63.8696 11.14 64.5896 10.56 66.0896 10.34L67.8296 10.08C68.2896 10.02 68.7496 9.86 69.0296 9.66V11.44C69.0296 12.58 67.8496 13.74 65.8696 13.74C64.6096 13.74 63.8696 13.18 63.8696 12.22ZM74.0318 1.56V4.66H72.2718V6.16H74.0318V12.84C74.0318 14.4 74.5118 15 76.3918 15H77.7918V13.5H77.3118C76.9518 13.5 76.5918 13.48 76.2518 13.46C75.8918 13.42 75.7318 13.16 75.7318 12.64V6.16H77.7918V4.66H75.7318V1.56H74.0318ZM79.7804 0.719999V2.8H81.4804V0.719999H79.7804ZM79.7804 4.66V15H81.4804V4.66H79.7804ZM83.114 4.66L86.954 15H88.774L92.554 4.66H90.774L87.954 13.28H87.914L85.014 4.66H83.114ZM98.354 4.42C95.634 4.42 94.074 5.58 93.954 7.88H95.654C95.734 6.54 96.554 5.92 98.234 5.92C99.834 5.92 100.534 6.48 100.534 7.62C100.534 8.36 100.134 8.72 98.634 8.9C96.414 9.18 95.034 9.58 94.454 10.14C93.854 10.68 93.554 11.42 93.554 12.34C93.554 14.2 94.854 15.24 96.974 15.24C98.494 15.24 99.714 14.7 100.614 13.64C100.614 14.72 101.134 15.24 102.054 15.24C102.534 15.24 102.954 15.14 103.274 14.96V13.64C103.114 13.7 102.914 13.74 102.754 13.74C102.394 13.74 102.214 13.54 102.214 13.16V7.2C102.214 5.58 101.274 4.42 98.354 4.42ZM95.354 12.22C95.354 11.14 96.074 10.56 97.574 10.34L99.314 10.08C99.774 10.02 100.234 9.86 100.514 9.66V11.44C100.514 12.58 99.334 13.74 97.354 13.74C96.094 13.74 95.354 13.18 95.354 12.22ZM115.523 4.42C113.943 4.42 112.763 5 112.223 6.06H112.183V4.66H110.483V18.96H112.183V13.62H112.223C112.943 14.72 114.283 15.24 115.563 15.24C118.483 15.24 120.283 13.02 120.283 9.86C120.283 6.68 118.523 4.42 115.523 4.42ZM112.123 9.82C112.123 7.56 113.223 5.92 115.263 5.92C117.283 5.92 118.483 7.56 118.483 9.74C118.483 12.26 117.343 13.74 115.383 13.74C113.323 13.74 112.123 12.2 112.123 9.82ZM127.418 4.42C125.798 4.42 124.658 5.2 123.858 6.84H123.818V4.66H122.218V15H123.918V10.38C123.918 7.54 125.118 6.22 127.658 6.22V4.42C127.558 4.42 127.498 4.42 127.418 4.42ZM133.047 4.42C129.947 4.42 128.027 6.54 128.027 9.84C128.027 13.14 130.047 15.24 133.047 15.24C136.087 15.24 138.067 13.04 138.067 9.84C138.067 6.68 136.227 4.42 133.047 4.42ZM129.827 9.84C129.827 7.44 131.227 5.92 133.027 5.92C134.907 5.92 136.267 7.5 136.267 9.84C136.267 12.18 134.907 13.74 133.047 13.74C131.167 13.74 129.827 12.18 129.827 9.84ZM145.051 4.42C143.591 4.42 142.491 5 141.711 6.18H141.671V4.66H140.071V15H141.771V8.52C141.771 7.92 142.271 6.84 143.091 6.32C143.511 6.06 143.991 5.92 144.531 5.92C145.871 5.92 146.471 6.66 146.471 8.14V15H148.171V8.5C148.171 7.06 149.171 5.92 150.871 5.92C152.271 5.92 152.871 6.66 152.871 8.14V15H154.571V7.36C154.571 5.56 153.471 4.42 151.151 4.42C149.771 4.42 148.591 5.08 147.891 6.18C147.531 5.06 146.571 4.42 145.051 4.42ZM157.122 4.66V11.56C157.122 13.98 158.262 15.24 160.682 15.24C162.122 15.24 163.302 14.68 164.042 13.36H164.082V15H165.682V4.66H163.982V10.56C163.982 12.44 162.902 13.74 160.922 13.74C159.622 13.74 158.822 12.9 158.822 11.7V4.66H157.122ZM172.535 4.42C171.135 4.42 169.955 4.94 169.035 5.96C168.115 6.98 167.675 8.24 167.675 9.76C167.675 11.56 168.375 13.52 169.895 14.52C170.635 15 171.555 15.24 172.635 15.24C174.975 15.24 176.595 14.02 177.055 11.72H175.375C175.095 13 174.215 13.74 172.695 13.74C170.695 13.74 169.475 12.44 169.475 10.46V10.34H177.215V10.14C177.215 8.46 176.815 7.08 175.995 6.02C175.175 4.96 174.015 4.42 172.535 4.42ZM169.475 8.84C169.615 7.08 170.815 5.92 172.415 5.92C174.095 5.92 175.315 7.18 175.415 8.84H169.475ZM177.977 4.66L181.817 15H183.637L187.417 4.66H185.637L182.817 13.28H182.777L179.877 4.66H177.977ZM193.277 4.42C191.877 4.42 190.697 4.94 189.777 5.96C188.857 6.98 188.417 8.24 188.417 9.76C188.417 11.56 189.117 13.52 190.637 14.52C191.377 15 192.297 15.24 193.377 15.24C195.717 15.24 197.337 14.02 197.797 11.72H196.117C195.837 13 194.957 13.74 193.437 13.74C191.437 13.74 190.217 12.44 190.217 10.46V10.34H197.957V10.14C197.957 8.46 197.557 7.08 196.737 6.02C195.917 4.96 194.757 4.42 193.277 4.42ZM190.217 8.84C190.357 7.08 191.557 5.92 193.157 5.92C194.837 5.92 196.057 7.18 196.157 8.84H190.217ZM209.526 4.42C206.806 4.42 205.246 5.58 205.126 7.88H206.826C206.906 6.54 207.726 5.92 209.406 5.92C211.006 5.92 211.706 6.48 211.706 7.62C211.706 8.36 211.306 8.72 209.806 8.9C207.586 9.18 206.206 9.58 205.626 10.14C205.026 10.68 204.726 11.42 204.726 12.34C204.726 14.2 206.026 15.24 208.146 15.24C209.666 15.24 210.886 14.7 211.786 13.64C211.786 14.72 212.306 15.24 213.226 15.24C213.706 15.24 214.126 15.14 214.446 14.96V13.64C214.286 13.7 214.086 13.74 213.926 13.74C213.566 13.74 213.386 13.54 213.386 13.16V7.2C213.386 5.58 212.446 4.42 209.526 4.42ZM206.526 12.22C206.526 11.14 207.246 10.56 208.746 10.34L210.486 10.08C210.946 10.02 211.406 9.86 211.686 9.66V11.44C211.686 12.58 210.506 13.74 208.526 13.74C207.266 13.74 206.526 13.18 206.526 12.22ZM221.128 4.42C219.548 4.42 218.368 5 217.828 6.06H217.788V4.66H216.088V18.96H217.788V13.62H217.828C218.548 14.72 219.888 15.24 221.168 15.24C224.088 15.24 225.888 13.02 225.888 9.86C225.888 6.68 224.128 4.42 221.128 4.42ZM217.728 9.82C217.728 7.56 218.828 5.92 220.868 5.92C222.888 5.92 224.088 7.56 224.088 9.74C224.088 12.26 222.948 13.74 220.988 13.74C218.928 13.74 217.728 12.2 217.728 9.82ZM232.124 4.42C229.404 4.42 227.844 5.58 227.724 7.88H229.424C229.504 6.54 230.324 5.92 232.004 5.92C233.604 5.92 234.304 6.48 234.304 7.62C234.304 8.36 233.904 8.72 232.404 8.9C230.184 9.18 228.804 9.58 228.224 10.14C227.624 10.68 227.324 11.42 227.324 12.34C227.324 14.2 228.624 15.24 230.744 15.24C232.264 15.24 233.484 14.7 234.384 13.64C234.384 14.72 234.904 15.24 235.824 15.24C236.304 15.24 236.724 15.14 237.044 14.96V13.64C236.884 13.7 236.684 13.74 236.524 13.74C236.164 13.74 235.984 13.54 235.984 13.16V7.2C235.984 5.58 235.044 4.42 232.124 4.42ZM229.124 12.22C229.124 11.14 229.844 10.56 231.344 10.34L233.084 10.08C233.544 10.02 234.004 9.86 234.284 9.66V11.44C234.284 12.58 233.104 13.74 231.124 13.74C229.864 13.74 229.124 13.18 229.124 12.22ZM242.826 4.42C239.786 4.42 238.066 6.74 238.066 9.88C238.066 13 239.886 15.12 242.686 15.12C244.126 15.12 245.386 14.38 245.906 13.24H245.946V13.88C245.946 16.5 244.846 17.84 242.846 17.84C241.526 17.84 240.226 17.24 240.166 16.16H238.466C238.566 18.16 240.426 19.2 242.766 19.2C246.006 19.2 247.546 17.48 247.546 14.22V4.66H245.946V6.14H245.926C245.346 5.1 244.286 4.42 242.826 4.42ZM239.866 9.68C239.866 7.42 241.006 5.92 242.906 5.92C244.806 5.92 245.866 7.44 245.866 9.62C245.866 12.02 244.666 13.62 242.786 13.62C240.926 13.62 239.866 12.1 239.866 9.68ZM254.35 4.42C251.63 4.42 250.07 5.58 249.95 7.88H251.65C251.73 6.54 252.55 5.92 254.23 5.92C255.83 5.92 256.53 6.48 256.53 7.62C256.53 8.36 256.13 8.72 254.63 8.9C252.41 9.18 251.03 9.58 250.45 10.14C249.85 10.68 249.55 11.42 249.55 12.34C249.55 14.2 250.85 15.24 252.97 15.24C254.49 15.24 255.71 14.7 256.61 13.64C256.61 14.72 257.13 15.24 258.05 15.24C258.53 15.24 258.95 15.14 259.27 14.96V13.64C259.11 13.7 258.91 13.74 258.75 13.74C258.39 13.74 258.21 13.54 258.21 13.16V7.2C258.21 5.58 257.27 4.42 254.35 4.42ZM251.35 12.22C251.35 11.14 252.07 10.56 253.57 10.34L255.31 10.08C255.77 10.02 256.23 9.86 256.51 9.66V11.44C256.51 12.58 255.33 13.74 253.35 13.74C252.09 13.74 251.35 13.18 251.35 12.22ZM265.992 4.42C264.372 4.42 263.232 5.2 262.432 6.84H262.392V4.66H260.792V15H262.492V10.38C262.492 7.54 263.692 6.22 266.232 6.22V4.42C266.132 4.42 266.072 4.42 265.992 4.42ZM273.179 0.719999V15H274.879V0.719999H273.179ZM281.752 4.42C279.032 4.42 277.472 5.58 277.352 7.88H279.052C279.132 6.54 279.952 5.92 281.632 5.92C283.232 5.92 283.932 6.48 283.932 7.62C283.932 8.36 283.532 8.72 282.032 8.9C279.812 9.18 278.432 9.58 277.852 10.14C277.252 10.68 276.952 11.42 276.952 12.34C276.952 14.2 278.252 15.24 280.372 15.24C281.892 15.24 283.112 14.7 284.012 13.64C284.012 14.72 284.532 15.24 285.452 15.24C285.932 15.24 286.352 15.14 286.672 14.96V13.64C286.512 13.7 286.312 13.74 286.152 13.74C285.792 13.74 285.612 13.54 285.612 13.16V7.2C285.612 5.58 284.672 4.42 281.752 4.42ZM278.752 12.22C278.752 11.14 279.472 10.56 280.972 10.34L282.712 10.08C283.172 10.02 283.632 9.86 283.912 9.66V11.44C283.912 12.58 282.732 13.74 280.752 13.74C279.492 13.74 278.752 13.18 278.752 12.22ZM291.695 4.42C289.435 4.42 287.815 5.54 287.815 7.36C287.815 8.9 288.695 9.74 291.355 10.3C292.655 10.58 293.515 10.84 293.935 11.1C294.355 11.36 294.575 11.74 294.575 12.2C294.575 13.22 293.715 13.74 292.075 13.74C290.355 13.74 289.335 13.02 289.295 11.74H287.595C287.695 14.06 289.355 15.24 291.975 15.24C294.675 15.24 296.375 14.02 296.375 11.98C296.375 10.42 295.315 9.56 293.315 9.12L291.715 8.76C290.315 8.44 289.615 8 289.615 7.24C289.615 6.4 290.455 5.92 291.815 5.92C293.175 5.92 294.115 6.54 294.215 7.64V7.66H295.915C295.775 5.5 294.475 4.42 291.695 4.42ZM303.921 0.719999V15H305.621V0.719999H303.921ZM308.255 4.66V11.56C308.255 13.98 309.395 15.24 311.815 15.24C313.255 15.24 314.435 14.68 315.175 13.36H315.215V15H316.815V4.66H315.115V10.56C315.115 12.44 314.035 13.74 312.055 13.74C310.755 13.74 309.955 12.9 309.955 11.7V4.66H308.255ZM323.688 4.42C320.648 4.42 318.808 6.6 318.808 9.96C318.808 13.2 320.628 15.24 323.648 15.24C326.228 15.24 327.828 13.8 328.208 11.22H326.468C326.248 12.8 325.268 13.74 323.628 13.74C321.748 13.74 320.608 12.22 320.608 9.96C320.608 7.4 321.728 5.92 323.828 5.92C325.188 5.92 326.108 6.64 326.388 7.98H328.148C327.868 5.62 326.188 4.42 323.688 4.42ZM334.41 4.42C333.01 4.42 331.83 4.94 330.91 5.96C329.99 6.98 329.55 8.24 329.55 9.76C329.55 11.56 330.25 13.52 331.77 14.52C332.51 15 333.43 15.24 334.51 15.24C336.85 15.24 338.47 14.02 338.93 11.72H337.25C336.97 13 336.09 13.74 334.57 13.74C332.57 13.74 331.35 12.44 331.35 10.46V10.34H339.09V10.14C339.09 8.46 338.69 7.08 337.87 6.02C337.05 4.96 335.89 4.42 334.41 4.42ZM331.35 8.84C331.49 7.08 332.69 5.92 334.29 5.92C335.97 5.92 337.19 7.18 337.29 8.84H331.35ZM344.292 4.42C342.032 4.42 340.412 5.54 340.412 7.36C340.412 8.9 341.292 9.74 343.952 10.3C345.252 10.58 346.112 10.84 346.532 11.1C346.952 11.36 347.172 11.74 347.172 12.2C347.172 13.22 346.312 13.74 344.672 13.74C342.952 13.74 341.932 13.02 341.892 11.74H340.192C340.292 14.06 341.952 15.24 344.572 15.24C347.272 15.24 348.972 14.02 348.972 11.98C348.972 10.42 347.912 9.56 345.912 9.12L344.312 8.76C342.912 8.44 342.212 8 342.212 7.24C342.212 6.4 343.052 5.92 344.412 5.92C345.772 5.92 346.712 6.54 346.812 7.64V7.66H348.512C348.372 5.5 347.072 4.42 344.292 4.42ZM360.719 4.42C359.319 4.42 358.139 4.94 357.219 5.96C356.299 6.98 355.859 8.24 355.859 9.76C355.859 11.56 356.559 13.52 358.079 14.52C358.819 15 359.739 15.24 360.819 15.24C363.159 15.24 364.779 14.02 365.239 11.72H363.559C363.279 13 362.399 13.74 360.879 13.74C358.879 13.74 357.659 12.44 357.659 10.46V10.34H365.399V10.14C365.399 8.46 364.999 7.08 364.179 6.02C363.359 4.96 362.199 4.42 360.719 4.42ZM357.659 8.84C357.799 7.08 358.999 5.92 360.599 5.92C362.279 5.92 363.499 7.18 363.599 8.84H357.659ZM367.261 0.719999V15H368.961V0.719999H367.261ZM377.161 4.66V11.56C377.161 13.98 378.301 15.24 380.721 15.24C382.161 15.24 383.341 14.68 384.081 13.36H384.121V15H385.721V4.66H384.021V10.56C384.021 12.44 382.941 13.74 380.961 13.74C379.661 13.74 378.861 12.9 378.861 11.7V4.66H377.161ZM382.161 0.359999L380.441 3.22H381.721L384.341 0.359999H382.161ZM388.374 0.719999V15H390.074V0.719999H388.374ZM393.368 1.56V4.66H391.608V6.16H393.368V12.84C393.368 14.4 393.848 15 395.728 15H397.128V13.5H396.648C396.288 13.5 395.928 13.48 395.588 13.46C395.228 13.42 395.068 13.16 395.068 12.64V6.16H397.128V4.66H395.068V1.56H393.368ZM399.116 0.719999V2.8H400.816V0.719999H399.116ZM399.116 4.66V15H400.816V4.66H399.116ZM408.43 4.42C406.97 4.42 405.87 5 405.09 6.18H405.05V4.66H403.45V15H405.15V8.52C405.15 7.92 405.65 6.84 406.47 6.32C406.89 6.06 407.37 5.92 407.91 5.92C409.25 5.92 409.85 6.66 409.85 8.14V15H411.55V8.5C411.55 7.06 412.55 5.92 414.25 5.92C415.65 5.92 416.25 6.66 416.25 8.14V15H417.95V7.36C417.95 5.56 416.85 4.42 414.53 4.42C413.15 4.42 411.97 5.08 411.27 6.18C410.91 5.06 409.95 4.42 408.43 4.42ZM424.961 4.42C421.861 4.42 419.941 6.54 419.941 9.84C419.941 13.14 421.961 15.24 424.961 15.24C428.001 15.24 429.981 13.04 429.981 9.84C429.981 6.68 428.141 4.42 424.961 4.42ZM421.741 9.84C421.741 7.44 423.141 5.92 424.941 5.92C426.821 5.92 428.181 7.5 428.181 9.84C428.181 12.18 426.821 13.74 424.961 13.74C423.081 13.74 421.741 12.18 421.741 9.84ZM440.991 4.42C438.731 4.42 437.111 5.54 437.111 7.36C437.111 8.9 437.991 9.74 440.651 10.3C441.951 10.58 442.811 10.84 443.231 11.1C443.651 11.36 443.871 11.74 443.871 12.2C443.871 13.22 443.011 13.74 441.371 13.74C439.651 13.74 438.631 13.02 438.591 11.74H436.891C436.991 14.06 438.651 15.24 441.271 15.24C443.971 15.24 445.671 14.02 445.671 11.98C445.671 10.42 444.611 9.56 442.611 9.12L441.011 8.76C439.611 8.44 438.911 8 438.911 7.24C438.911 6.4 439.751 5.92 441.111 5.92C442.471 5.92 443.411 6.54 443.511 7.64V7.66H445.211C445.071 5.5 443.771 4.42 440.991 4.42ZM451.791 4.42C449.071 4.42 447.511 5.58 447.391 7.88H449.091C449.171 6.54 449.991 5.92 451.671 5.92C453.271 5.92 453.971 6.48 453.971 7.62C453.971 8.36 453.571 8.72 452.071 8.9C449.851 9.18 448.471 9.58 447.891 10.14C447.291 10.68 446.991 11.42 446.991 12.34C446.991 14.2 448.291 15.24 450.411 15.24C451.931 15.24 453.151 14.7 454.051 13.64C454.051 14.72 454.571 15.24 455.491 15.24C455.971 15.24 456.391 15.14 456.711 14.96V13.64C456.551 13.7 456.351 13.74 456.191 13.74C455.831 13.74 455.651 13.54 455.651 13.16V7.2C455.651 5.58 454.711 4.42 451.791 4.42ZM448.791 12.22C448.791 11.14 449.511 10.56 451.011 10.34L452.751 10.08C453.211 10.02 453.671 9.86 453.951 9.66V11.44C453.951 12.58 452.771 13.74 450.791 13.74C449.531 13.74 448.791 13.18 448.791 12.22ZM452.431 0.359999L450.711 3.22H451.991L454.611 0.359999H452.431ZM458.354 0.719999V15H460.054V13.62H460.094C460.814 14.72 462.154 15.24 463.434 15.24C466.354 15.24 468.154 13.02 468.154 9.86C468.154 6.72 466.354 4.42 463.394 4.42C461.794 4.42 460.634 5 460.094 6.06H460.054V0.719999H458.354ZM459.994 9.82C459.994 7.56 461.134 5.92 463.134 5.92C465.154 5.92 466.354 7.56 466.354 9.74C466.354 12.26 465.214 13.74 463.254 13.74C461.194 13.74 459.994 12.2 459.994 9.82ZM474.389 4.42C471.669 4.42 470.109 5.58 469.989 7.88H471.689C471.769 6.54 472.589 5.92 474.269 5.92C475.869 5.92 476.569 6.48 476.569 7.62C476.569 8.36 476.169 8.72 474.669 8.9C472.449 9.18 471.069 9.58 470.489 10.14C469.889 10.68 469.589 11.42 469.589 12.34C469.589 14.2 470.889 15.24 473.009 15.24C474.529 15.24 475.749 14.7 476.649 13.64C476.649 14.72 477.169 15.24 478.089 15.24C478.569 15.24 478.989 15.14 479.309 14.96V13.64C479.149 13.7 478.949 13.74 478.789 13.74C478.429 13.74 478.249 13.54 478.249 13.16V7.2C478.249 5.58 477.309 4.42 474.389 4.42ZM471.389 12.22C471.389 11.14 472.109 10.56 473.609 10.34L475.349 10.08C475.809 10.02 476.269 9.86 476.549 9.66V11.44C476.549 12.58 475.369 13.74 473.389 13.74C472.129 13.74 471.389 13.18 471.389 12.22ZM488.431 0.719999V6.04H488.391C487.751 5 486.371 4.42 485.031 4.42C482.071 4.42 480.331 6.64 480.331 9.8C480.331 13.02 482.191 15.24 485.091 15.24C486.631 15.24 487.851 14.66 488.391 13.6H488.431V15H490.131V0.719999H488.431ZM482.131 9.92C482.131 7.46 483.251 5.92 485.211 5.92C487.311 5.92 488.491 7.5 488.491 9.84C488.491 12.12 487.371 13.74 485.331 13.74C483.331 13.74 482.131 12.1 482.131 9.92ZM497.207 4.42C494.107 4.42 492.187 6.54 492.187 9.84C492.187 13.14 494.207 15.24 497.207 15.24C500.247 15.24 502.227 13.04 502.227 9.84C502.227 6.68 500.387 4.42 497.207 4.42ZM493.987 9.84C493.987 7.44 495.387 5.92 497.187 5.92C499.067 5.92 500.427 7.5 500.427 9.84C500.427 12.18 499.067 13.74 497.207 13.74C495.327 13.74 493.987 12.18 493.987 9.84ZM517.338 0.719999V6.04H517.298C516.658 5 515.278 4.42 513.938 4.42C510.978 4.42 509.238 6.64 509.238 9.8C509.238 13.02 511.098 15.24 513.998 15.24C515.538 15.24 516.758 14.66 517.298 13.6H517.338V15H519.038V0.719999H517.338ZM511.038 9.92C511.038 7.46 512.158 5.92 514.118 5.92C516.218 5.92 517.398 7.5 517.398 9.84C517.398 12.12 516.278 13.74 514.238 13.74C512.238 13.74 511.038 12.1 511.038 9.92ZM525.953 4.42C524.553 4.42 523.373 4.94 522.453 5.96C521.533 6.98 521.093 8.24 521.093 9.76C521.093 11.56 521.793 13.52 523.313 14.52C524.053 15 524.973 15.24 526.053 15.24C528.393 15.24 530.013 14.02 530.473 11.72H528.793C528.513 13 527.633 13.74 526.113 13.74C524.113 13.74 522.893 12.44 522.893 10.46V10.34H530.633V10.14C530.633 8.46 530.233 7.08 529.413 6.02C528.593 4.96 527.433 4.42 525.953 4.42ZM522.893 8.84C523.033 7.08 524.233 5.92 525.833 5.92C527.513 5.92 528.733 7.18 528.833 8.84H522.893ZM542.942 4.42C541.482 4.42 540.382 5 539.602 6.18H539.562V4.66H537.962V15H539.662V8.52C539.662 7.92 540.162 6.84 540.982 6.32C541.402 6.06 541.882 5.92 542.422 5.92C543.762 5.92 544.362 6.66 544.362 8.14V15H546.062V8.5C546.062 7.06 547.062 5.92 548.762 5.92C550.162 5.92 550.762 6.66 550.762 8.14V15H552.462V7.36C552.462 5.56 551.362 4.42 549.042 4.42C547.662 4.42 546.482 5.08 545.782 6.18C545.422 5.06 544.462 4.42 542.942 4.42ZM559.252 4.42C556.532 4.42 554.972 5.58 554.852 7.88H556.552C556.632 6.54 557.452 5.92 559.132 5.92C560.732 5.92 561.432 6.48 561.432 7.62C561.432 8.36 561.032 8.72 559.532 8.9C557.312 9.18 555.932 9.58 555.352 10.14C554.752 10.68 554.452 11.42 554.452 12.34C554.452 14.2 555.752 15.24 557.872 15.24C559.392 15.24 560.612 14.7 561.512 13.64C561.512 14.72 562.032 15.24 562.952 15.24C563.432 15.24 563.852 15.14 564.172 14.96V13.64C564.012 13.7 563.812 13.74 563.652 13.74C563.292 13.74 563.112 13.54 563.112 13.16V7.2C563.112 5.58 562.172 4.42 559.252 4.42ZM556.252 12.22C556.252 11.14 556.972 10.56 558.472 10.34L560.212 10.08C560.672 10.02 561.132 9.86 561.412 9.66V11.44C561.412 12.58 560.232 13.74 558.252 13.74C556.992 13.74 556.252 13.18 556.252 12.22ZM570.895 4.42C569.275 4.42 568.135 5.2 567.335 6.84H567.295V4.66H565.695V15H567.395V10.38C567.395 7.54 568.595 6.22 571.135 6.22V4.42C571.035 4.42 570.975 4.42 570.895 4.42ZM571.975 4.66V6.16H577.815L571.575 13.7V15H580.295V13.5H573.695L580.015 5.82V4.66H571.975ZM586.484 4.42C583.384 4.42 581.464 6.54 581.464 9.84C581.464 13.14 583.484 15.24 586.484 15.24C589.524 15.24 591.504 13.04 591.504 9.84C591.504 6.68 589.664 4.42 586.484 4.42ZM583.264 9.84C583.264 7.44 584.664 5.92 586.464 5.92C588.344 5.92 589.704 7.5 589.704 9.84C589.704 12.18 588.344 13.74 586.484 13.74C584.604 13.74 583.264 12.18 583.264 9.84ZM9.58367 23.72V29.04H9.54367C8.90367 28 7.52367 27.42 6.18367 27.42C3.22367 27.42 1.48367 29.64 1.48367 32.8C1.48367 36.02 3.34367 38.24 6.24367 38.24C7.78367 38.24 9.00367 37.66 9.54367 36.6H9.58367V38H11.2837V23.72H9.58367ZM3.28367 32.92C3.28367 30.46 4.40367 28.92 6.36367 28.92C8.46367 28.92 9.64367 30.5 9.64367 32.84C9.64367 35.12 8.52367 36.74 6.48367 36.74C4.48367 36.74 3.28367 35.1 3.28367 32.92ZM18.1991 27.42C16.7991 27.42 15.6191 27.94 14.6991 28.96C13.7791 29.98 13.3391 31.24 13.3391 32.76C13.3391 34.56 14.0391 36.52 15.5591 37.52C16.2991 38 17.2191 38.24 18.2991 38.24C20.6391 38.24 22.2591 37.02 22.7191 34.72H21.0391C20.7591 36 19.8791 36.74 18.3591 36.74C16.3591 36.74 15.1391 35.44 15.1391 33.46V33.34H22.8791V33.14C22.8791 31.46 22.4791 30.08 21.6591 29.02C20.8391 27.96 19.6791 27.42 18.1991 27.42ZM15.1391 31.84C15.2791 30.08 16.4791 28.92 18.0791 28.92C19.7591 28.92 20.9791 30.18 21.0791 31.84H15.1391ZM34.3677 23.82C31.5877 23.82 29.7877 25.68 29.7877 28.48L29.8077 28.84H31.5077V28.7C31.5077 26.76 32.5277 25.32 34.2677 25.32C35.8077 25.32 37.0077 26.4 37.0077 27.9C37.0077 28.7 36.7877 29.38 36.3277 29.96C35.8877 30.52 34.8277 31.34 33.1877 32.32C31.8077 33.16 30.8277 34.02 30.3077 34.9C29.8077 35.8 29.5077 36.82 29.4077 38H38.6677V36.5H31.3877C31.5877 35.4 32.3277 34.52 34.5077 33.26C36.2877 32.24 37.4477 31.34 37.9877 30.54C38.5277 29.76 38.8077 28.88 38.8077 27.9C38.8077 25.4 36.9877 23.82 34.3677 23.82ZM45.601 23.82C44.021 23.82 42.861 24.34 42.061 25.4C41.281 26.44 40.881 28.32 40.881 31.04C40.881 33.74 41.281 35.62 42.061 36.66C42.841 37.72 44.021 38.24 45.601 38.24C47.181 38.24 48.361 37.7 49.141 36.68C49.941 35.64 50.321 33.78 50.321 31.04C50.321 28.3 49.921 26.4 49.141 25.38C48.341 24.34 47.181 23.82 45.601 23.82ZM42.681 31.02C42.681 28.76 42.941 27.24 43.441 26.48C43.961 25.7 44.681 25.32 45.581 25.32C46.581 25.32 47.241 25.76 47.681 26.4C48.541 27.66 48.521 29.76 48.521 31.08C48.521 33.04 48.321 34.46 47.861 35.38C47.401 36.3 46.641 36.74 45.601 36.74C44.641 36.74 43.921 36.34 43.421 35.56C42.941 34.76 42.681 33.26 42.681 31.02ZM52.8143 27.66V29.88H55.0343V27.66H52.8143ZM52.8143 35.78V38H55.0343V35.78H52.8143ZM62.0007 23.82C59.3407 23.82 57.7407 25.46 57.6007 28.4H59.3007C59.3407 26.46 60.3407 25.32 62.0007 25.32C63.5007 25.32 64.5207 26.18 64.5207 27.6C64.5207 28.96 63.3807 29.92 61.7007 29.92C61.4207 29.92 61.2207 29.92 61.0607 29.9V31.34C61.4007 31.3 61.7407 31.28 62.0207 31.28C63.9007 31.28 65.1007 32.32 65.1007 34C65.1007 35.6 63.7807 36.74 62.0407 36.74C60.2407 36.74 59.1007 35.64 59.0207 33.62H57.3007V33.68C57.3007 36.62 59.2207 38.24 62.0407 38.24C64.8807 38.24 66.9007 36.56 66.9007 33.92C66.9007 32.12 66.0207 30.86 64.3407 30.48V30.44C65.6207 29.82 66.3007 28.76 66.3007 27.6C66.3007 25.26 64.7007 23.82 62.0007 23.82ZM73.394 23.82C71.814 23.82 70.654 24.34 69.854 25.4C69.074 26.44 68.674 28.32 68.674 31.04C68.674 33.74 69.074 35.62 69.854 36.66C70.634 37.72 71.814 38.24 73.394 38.24C74.974 38.24 76.154 37.7 76.934 36.68C77.734 35.64 78.114 33.78 78.114 31.04C78.114 28.3 77.714 26.4 76.934 25.38C76.134 24.34 74.974 23.82 73.394 23.82ZM70.474 31.02C70.474 28.76 70.734 27.24 71.234 26.48C71.754 25.7 72.474 25.32 73.374 25.32C74.374 25.32 75.034 25.76 75.474 26.4C76.334 27.66 76.314 29.76 76.314 31.08C76.314 33.04 76.114 34.46 75.654 35.38C75.194 36.3 74.434 36.74 73.394 36.74C72.434 36.74 71.714 36.34 71.214 35.56C70.734 34.76 70.474 33.26 70.474 31.02ZM90.0337 27.42C87.3137 27.42 85.7537 28.58 85.6337 30.88H87.3337C87.4137 29.54 88.2337 28.92 89.9137 28.92C91.5137 28.92 92.2137 29.48 92.2137 30.62C92.2137 31.36 91.8137 31.72 90.3137 31.9C88.0937 32.18 86.7137 32.58 86.1337 33.14C85.5337 33.68 85.2337 34.42 85.2337 35.34C85.2337 37.2 86.5337 38.24 88.6537 38.24C90.1737 38.24 91.3937 37.7 92.2937 36.64C92.2937 37.72 92.8137 38.24 93.7337 38.24C94.2137 38.24 94.6337 38.14 94.9537 37.96V36.64C94.7937 36.7 94.5937 36.74 94.4337 36.74C94.0737 36.74 93.8937 36.54 93.8937 36.16V30.2C93.8937 28.58 92.9537 27.42 90.0337 27.42ZM87.0337 35.22C87.0337 34.14 87.7537 33.56 89.2537 33.34L90.9937 33.08C91.4537 33.02 91.9137 32.86 92.1937 32.66V34.44C92.1937 35.58 91.0137 36.74 89.0337 36.74C87.7737 36.74 87.0337 36.18 87.0337 35.22ZM106.262 23.82C103.482 23.82 101.682 25.68 101.682 28.48L101.702 28.84H103.402V28.7C103.402 26.76 104.422 25.32 106.162 25.32C107.702 25.32 108.902 26.4 108.902 27.9C108.902 28.7 108.682 29.38 108.222 29.96C107.782 30.52 106.722 31.34 105.082 32.32C103.702 33.16 102.722 34.02 102.202 34.9C101.702 35.8 101.402 36.82 101.302 38H110.562V36.5H103.282C103.482 35.4 104.222 34.52 106.402 33.26C108.182 32.24 109.342 31.34 109.882 30.54C110.422 29.76 110.702 28.88 110.702 27.9C110.702 25.4 108.882 23.82 106.262 23.82ZM117.756 23.82C117.416 25.64 116.116 26.48 113.736 26.48H113.676V27.84H117.356V38H119.056V23.82H117.756ZM124.709 27.66V29.88H126.929V27.66H124.709ZM124.709 35.78V38H126.929V35.78H124.709ZM133.895 23.82C131.235 23.82 129.635 25.46 129.495 28.4H131.195C131.235 26.46 132.235 25.32 133.895 25.32C135.395 25.32 136.415 26.18 136.415 27.6C136.415 28.96 135.275 29.92 133.595 29.92C133.315 29.92 133.115 29.92 132.955 29.9V31.34C133.295 31.3 133.635 31.28 133.915 31.28C135.795 31.28 136.995 32.32 136.995 34C136.995 35.6 135.675 36.74 133.935 36.74C132.135 36.74 130.995 35.64 130.915 33.62H129.195V33.68C129.195 36.62 131.115 38.24 133.935 38.24C136.775 38.24 138.795 36.56 138.795 33.92C138.795 32.12 137.915 30.86 136.235 30.48V30.44C137.515 29.82 138.195 28.76 138.195 27.6C138.195 25.26 136.595 23.82 133.895 23.82ZM145.289 23.82C143.709 23.82 142.549 24.34 141.749 25.4C140.969 26.44 140.569 28.32 140.569 31.04C140.569 33.74 140.969 35.62 141.749 36.66C142.529 37.72 143.709 38.24 145.289 38.24C146.869 38.24 148.049 37.7 148.829 36.68C149.629 35.64 150.009 33.78 150.009 31.04C150.009 28.3 149.609 26.4 148.829 25.38C148.029 24.34 146.869 23.82 145.289 23.82ZM142.369 31.02C142.369 28.76 142.629 27.24 143.129 26.48C143.649 25.7 144.369 25.32 145.269 25.32C146.269 25.32 146.929 25.76 147.369 26.4C148.229 27.66 148.209 29.76 148.209 31.08C148.209 33.04 148.009 34.46 147.549 35.38C147.089 36.3 146.329 36.74 145.289 36.74C144.329 36.74 143.609 36.34 143.109 35.56C142.629 34.76 142.369 33.26 142.369 31.02ZM152.502 35.78V38H154.722V35.78H152.502ZM163.535 23.72V38H168.555C172.915 38 175.295 35.56 175.295 30.52C175.295 26.04 172.855 23.72 168.555 23.72H163.535ZM165.435 36.4V25.32H168.735C171.815 25.32 173.395 27 173.395 30.78C173.395 34.56 171.495 36.4 168.655 36.4H165.435ZM181.637 27.42C180.237 27.42 179.057 27.94 178.137 28.96C177.217 29.98 176.777 31.24 176.777 32.76C176.777 34.56 177.477 36.52 178.997 37.52C179.737 38 180.657 38.24 181.737 38.24C184.077 38.24 185.697 37.02 186.157 34.72H184.477C184.197 36 183.317 36.74 181.797 36.74C179.797 36.74 178.577 35.44 178.577 33.46V33.34H186.317V33.14C186.317 31.46 185.917 30.08 185.097 29.02C184.277 27.96 183.117 27.42 181.637 27.42ZM178.577 31.84C178.717 30.08 179.917 28.92 181.517 28.92C183.197 28.92 184.417 30.18 184.517 31.84H178.577ZM191.519 27.42C189.259 27.42 187.639 28.54 187.639 30.36C187.639 31.9 188.519 32.74 191.179 33.3C192.479 33.58 193.339 33.84 193.759 34.1C194.179 34.36 194.399 34.74 194.399 35.2C194.399 36.22 193.539 36.74 191.899 36.74C190.179 36.74 189.159 36.02 189.119 34.74H187.419C187.519 37.06 189.179 38.24 191.799 38.24C194.499 38.24 196.199 37.02 196.199 34.98C196.199 33.42 195.139 32.56 193.139 32.12L191.539 31.76C190.139 31.44 189.439 31 189.439 30.24C189.439 29.4 190.279 28.92 191.639 28.92C192.999 28.92 193.939 29.54 194.039 30.64V30.66H195.739C195.599 28.5 194.299 27.42 191.519 27.42ZM205.619 23.72V29.04H205.579C204.939 28 203.559 27.42 202.219 27.42C199.259 27.42 197.519 29.64 197.519 32.8C197.519 36.02 199.379 38.24 202.279 38.24C203.819 38.24 205.039 37.66 205.579 36.6H205.619V38H207.319V23.72H205.619ZM199.319 32.92C199.319 30.46 200.439 28.92 202.399 28.92C204.499 28.92 205.679 30.5 205.679 32.84C205.679 35.12 204.559 36.74 202.519 36.74C200.519 36.74 199.319 35.1 199.319 32.92ZM214.234 27.42C212.834 27.42 211.654 27.94 210.734 28.96C209.814 29.98 209.374 31.24 209.374 32.76C209.374 34.56 210.074 36.52 211.594 37.52C212.334 38 213.254 38.24 214.334 38.24C216.674 38.24 218.294 37.02 218.754 34.72H217.074C216.794 36 215.914 36.74 214.394 36.74C212.394 36.74 211.174 35.44 211.174 33.46V33.34H218.914V33.14C218.914 31.46 218.514 30.08 217.694 29.02C216.874 27.96 215.714 27.42 214.234 27.42ZM211.174 31.84C211.314 30.08 212.514 28.92 214.114 28.92C215.794 28.92 217.014 30.18 217.114 31.84H211.174ZM230.403 23.82C227.623 23.82 225.823 25.68 225.823 28.48L225.843 28.84H227.543V28.7C227.543 26.76 228.563 25.32 230.303 25.32C231.843 25.32 233.043 26.4 233.043 27.9C233.043 28.7 232.823 29.38 232.363 29.96C231.923 30.52 230.863 31.34 229.223 32.32C227.843 33.16 226.863 34.02 226.343 34.9C225.843 35.8 225.543 36.82 225.443 38H234.703V36.5H227.423C227.623 35.4 228.363 34.52 230.543 33.26C232.323 32.24 233.483 31.34 234.023 30.54C234.563 29.76 234.843 28.88 234.843 27.9C234.843 25.4 233.023 23.82 230.403 23.82ZM241.636 23.82C240.056 23.82 238.896 24.34 238.096 25.4C237.316 26.44 236.916 28.32 236.916 31.04C236.916 33.74 237.316 35.62 238.096 36.66C238.876 37.72 240.056 38.24 241.636 38.24C243.216 38.24 244.396 37.7 245.176 36.68C245.976 35.64 246.356 33.78 246.356 31.04C246.356 28.3 245.956 26.4 245.176 25.38C244.376 24.34 243.216 23.82 241.636 23.82ZM238.716 31.02C238.716 28.76 238.976 27.24 239.476 26.48C239.996 25.7 240.716 25.32 241.616 25.32C242.616 25.32 243.276 25.76 243.716 26.4C244.576 27.66 244.556 29.76 244.556 31.08C244.556 33.04 244.356 34.46 243.896 35.38C243.436 36.3 242.676 36.74 241.636 36.74C240.676 36.74 239.956 36.34 239.456 35.56C238.976 34.76 238.716 33.26 238.716 31.02ZM252.749 23.82C251.169 23.82 250.009 24.34 249.209 25.4C248.429 26.44 248.029 28.32 248.029 31.04C248.029 33.74 248.429 35.62 249.209 36.66C249.989 37.72 251.169 38.24 252.749 38.24C254.329 38.24 255.509 37.7 256.289 36.68C257.089 35.64 257.469 33.78 257.469 31.04C257.469 28.3 257.069 26.4 256.289 25.38C255.489 24.34 254.329 23.82 252.749 23.82ZM249.829 31.02C249.829 28.76 250.089 27.24 250.589 26.48C251.109 25.7 251.829 25.32 252.729 25.32C253.729 25.32 254.389 25.76 254.829 26.4C255.689 27.66 255.669 29.76 255.669 31.08C255.669 33.04 255.469 34.46 255.009 35.38C254.549 36.3 253.789 36.74 252.749 36.74C251.789 36.74 251.069 36.34 250.569 35.56C250.089 34.76 249.829 33.26 249.829 31.02ZM263.643 23.82C260.903 23.82 258.983 25.74 258.983 28.44C258.983 31.34 260.663 33.18 263.443 33.18C264.863 33.18 266.083 32.44 266.743 31.22L266.783 31.26C266.663 34.98 265.663 36.74 263.583 36.74C262.203 36.74 261.163 35.96 260.983 34.58H259.283C259.543 36.98 261.143 38.24 263.583 38.24C266.863 38.24 268.503 35.84 268.503 30.6C268.503 26.04 266.923 23.82 263.643 23.82ZM260.783 28.68C260.783 26.64 261.823 25.32 263.543 25.32C265.443 25.32 266.483 26.76 266.483 28.56C266.483 30.28 265.283 31.68 263.583 31.68C262.043 31.68 260.783 30.28 260.783 28.68ZM280.502 27.42C277.782 27.42 276.222 28.58 276.102 30.88H277.802C277.882 29.54 278.702 28.92 280.382 28.92C281.982 28.92 282.682 29.48 282.682 30.62C282.682 31.36 282.282 31.72 280.782 31.9C278.562 32.18 277.182 32.58 276.602 33.14C276.002 33.68 275.702 34.42 275.702 35.34C275.702 37.2 277.002 38.24 279.122 38.24C280.642 38.24 281.862 37.7 282.762 36.64C282.762 37.72 283.282 38.24 284.202 38.24C284.682 38.24 285.102 38.14 285.422 37.96V36.64C285.262 36.7 285.062 36.74 284.902 36.74C284.542 36.74 284.362 36.54 284.362 36.16V30.2C284.362 28.58 283.422 27.42 280.502 27.42ZM277.502 35.22C277.502 34.14 278.222 33.56 279.722 33.34L281.462 33.08C281.922 33.02 282.382 32.86 282.662 32.66V34.44C282.662 35.58 281.482 36.74 279.502 36.74C278.242 36.74 277.502 36.18 277.502 35.22ZM292.105 27.42C290.525 27.42 289.345 28 288.805 29.06H288.765V27.66H287.065V41.96H288.765V36.62H288.805C289.525 37.72 290.865 38.24 292.145 38.24C295.065 38.24 296.865 36.02 296.865 32.86C296.865 29.68 295.105 27.42 292.105 27.42ZM288.705 32.82C288.705 30.56 289.805 28.92 291.845 28.92C293.865 28.92 295.065 30.56 295.065 32.74C295.065 35.26 293.925 36.74 291.965 36.74C289.905 36.74 288.705 35.2 288.705 32.82ZM303.32 27.42C300.22 27.42 298.3 29.54 298.3 32.84C298.3 36.14 300.32 38.24 303.32 38.24C306.36 38.24 308.34 36.04 308.34 32.84C308.34 29.68 306.5 27.42 303.32 27.42ZM300.1 32.84C300.1 30.44 301.5 28.92 303.3 28.92C305.18 28.92 306.54 30.5 306.54 32.84C306.54 35.18 305.18 36.74 303.32 36.74C301.44 36.74 300.1 35.18 300.1 32.84ZM309.224 27.66L313.324 37.94L312.664 39.6C312.404 40.3 311.924 40.64 311.224 40.64C310.884 40.64 310.544 40.5 310.224 40.4V41.96C310.604 42.1 310.984 42.14 311.404 42.14C312.924 42.14 313.604 41.5 314.504 39.1L318.904 27.66H317.104L314.204 36.12H314.164L311.144 27.66H309.224ZM324.584 27.42C321.864 27.42 320.304 28.58 320.184 30.88H321.884C321.964 29.54 322.784 28.92 324.464 28.92C326.064 28.92 326.764 29.48 326.764 30.62C326.764 31.36 326.364 31.72 324.864 31.9C322.644 32.18 321.264 32.58 320.684 33.14C320.084 33.68 319.784 34.42 319.784 35.34C319.784 37.2 321.084 38.24 323.204 38.24C324.724 38.24 325.944 37.7 326.844 36.64C326.844 37.72 327.364 38.24 328.284 38.24C328.764 38.24 329.184 38.14 329.504 37.96V36.64C329.344 36.7 329.144 36.74 328.984 36.74C328.624 36.74 328.444 36.54 328.444 36.16V30.2C328.444 28.58 327.504 27.42 324.584 27.42ZM321.584 35.22C321.584 34.14 322.304 33.56 323.804 33.34L325.544 33.08C326.004 33.02 326.464 32.86 326.744 32.66V34.44C326.744 35.58 325.564 36.74 323.584 36.74C322.324 36.74 321.584 36.18 321.584 35.22ZM336.067 27.42C334.607 27.42 333.507 28 332.727 29.18H332.687V27.66H331.087V38H332.787V31.52C332.787 30.92 333.287 29.84 334.107 29.32C334.527 29.06 335.007 28.92 335.547 28.92C336.887 28.92 337.487 29.66 337.487 31.14V38H339.187V31.5C339.187 30.06 340.187 28.92 341.887 28.92C343.287 28.92 343.887 29.66 343.887 31.14V38H345.587V30.36C345.587 28.56 344.487 27.42 342.167 27.42C340.787 27.42 339.607 28.08 338.907 29.18C338.547 28.06 337.587 27.42 336.067 27.42ZM352.597 27.42C349.497 27.42 347.577 29.54 347.577 32.84C347.577 36.14 349.597 38.24 352.597 38.24C355.637 38.24 357.617 36.04 357.617 32.84C357.617 29.68 355.777 27.42 352.597 27.42ZM349.377 32.84C349.377 30.44 350.777 28.92 352.577 28.92C354.457 28.92 355.817 30.5 355.817 32.84C355.817 35.18 354.457 36.74 352.597 36.74C350.717 36.74 349.377 35.18 349.377 32.84ZM363.062 27.42C360.802 27.42 359.182 28.54 359.182 30.36C359.182 31.9 360.062 32.74 362.722 33.3C364.022 33.58 364.882 33.84 365.302 34.1C365.722 34.36 365.942 34.74 365.942 35.2C365.942 36.22 365.082 36.74 363.442 36.74C361.722 36.74 360.702 36.02 360.662 34.74H358.962C359.062 37.06 360.722 38.24 363.342 38.24C366.042 38.24 367.742 37.02 367.742 34.98C367.742 33.42 366.682 32.56 364.682 32.12L363.082 31.76C361.682 31.44 360.982 31 360.982 30.24C360.982 29.4 361.822 28.92 363.182 28.92C364.542 28.92 365.482 29.54 365.582 30.64V30.66H367.282C367.142 28.5 365.842 27.42 363.062 27.42ZM379.488 27.42C378.088 27.42 376.908 27.94 375.988 28.96C375.068 29.98 374.628 31.24 374.628 32.76C374.628 34.56 375.328 36.52 376.848 37.52C377.588 38 378.508 38.24 379.588 38.24C381.928 38.24 383.548 37.02 384.008 34.72H382.328C382.048 36 381.168 36.74 379.648 36.74C377.648 36.74 376.428 35.44 376.428 33.46V33.34H384.168V33.14C384.168 31.46 383.768 30.08 382.948 29.02C382.128 27.96 380.968 27.42 379.488 27.42ZM376.428 31.84C376.568 30.08 377.768 28.92 379.368 28.92C381.048 28.92 382.268 30.18 382.368 31.84H376.428ZM389.37 27.42C387.11 27.42 385.49 28.54 385.49 30.36C385.49 31.9 386.37 32.74 389.03 33.3C390.33 33.58 391.19 33.84 391.61 34.1C392.03 34.36 392.25 34.74 392.25 35.2C392.25 36.22 391.39 36.74 389.75 36.74C388.03 36.74 387.01 36.02 386.97 34.74H385.27C385.37 37.06 387.03 38.24 389.65 38.24C392.35 38.24 394.05 37.02 394.05 34.98C394.05 33.42 392.99 32.56 390.99 32.12L389.39 31.76C387.99 31.44 387.29 31 387.29 30.24C387.29 29.4 388.13 28.92 389.49 28.92C390.85 28.92 391.79 29.54 391.89 30.64V30.66H393.59C393.45 28.5 392.15 27.42 389.37 27.42ZM396.59 24.56V27.66H394.83V29.16H396.59V35.84C396.59 37.4 397.07 38 398.95 38H400.35V36.5H399.87C399.51 36.5 399.15 36.48 398.81 36.46C398.45 36.42 398.29 36.16 398.29 35.64V29.16H400.35V27.66H398.29V24.56H396.59ZM406.479 27.42C403.759 27.42 402.199 28.58 402.079 30.88H403.779C403.859 29.54 404.679 28.92 406.359 28.92C407.959 28.92 408.659 29.48 408.659 30.62C408.659 31.36 408.259 31.72 406.759 31.9C404.539 32.18 403.159 32.58 402.579 33.14C401.979 33.68 401.679 34.42 401.679 35.34C401.679 37.2 402.979 38.24 405.099 38.24C406.619 38.24 407.839 37.7 408.739 36.64C408.739 37.72 409.259 38.24 410.179 38.24C410.659 38.24 411.079 38.14 411.399 37.96V36.64C411.239 36.7 411.039 36.74 410.879 36.74C410.519 36.74 410.339 36.54 410.339 36.16V30.2C410.339 28.58 409.399 27.42 406.479 27.42ZM403.479 35.22C403.479 34.14 404.199 33.56 405.699 33.34L407.439 33.08C407.899 33.02 408.359 32.86 408.639 32.66V34.44C408.639 35.58 407.459 36.74 405.479 36.74C404.219 36.74 403.479 36.18 403.479 35.22ZM418.648 23.72V25.8H420.348V23.72H418.648ZM418.648 27.66V38H420.348V27.66H418.648ZM427.981 27.42C426.461 27.42 425.381 28 424.621 29.3H424.581V27.66H422.981V38H424.681V32.1C424.681 30.22 425.781 28.92 427.721 28.92C429.101 28.92 429.841 29.8 429.841 30.94V38H431.541V31.12C431.541 28.74 430.481 27.42 427.981 27.42ZM434.194 23.72V25.8H435.894V23.72H434.194ZM434.194 27.66V38H435.894V27.66H434.194ZM442.848 27.42C439.808 27.42 437.968 29.6 437.968 32.96C437.968 36.2 439.788 38.24 442.808 38.24C445.388 38.24 446.988 36.8 447.368 34.22H445.628C445.408 35.8 444.428 36.74 442.788 36.74C440.908 36.74 439.768 35.22 439.768 32.96C439.768 30.4 440.888 28.92 442.988 28.92C444.348 28.92 445.268 29.64 445.548 30.98H447.308C447.028 28.62 445.348 27.42 442.848 27.42ZM449.37 23.72V25.8H451.07V23.72H449.37ZM449.37 27.66V38H451.07V27.66H449.37ZM457.944 27.42C455.224 27.42 453.664 28.58 453.544 30.88H455.244C455.324 29.54 456.144 28.92 457.824 28.92C459.424 28.92 460.124 29.48 460.124 30.62C460.124 31.36 459.724 31.72 458.224 31.9C456.004 32.18 454.624 32.58 454.044 33.14C453.444 33.68 453.144 34.42 453.144 35.34C453.144 37.2 454.444 38.24 456.564 38.24C458.084 38.24 459.304 37.7 460.204 36.64C460.204 37.72 460.724 38.24 461.644 38.24C462.124 38.24 462.544 38.14 462.864 37.96V36.64C462.704 36.7 462.504 36.74 462.344 36.74C461.984 36.74 461.804 36.54 461.804 36.16V30.2C461.804 28.58 460.864 27.42 457.944 27.42ZM454.944 35.22C454.944 34.14 455.664 33.56 457.164 33.34L458.904 33.08C459.364 33.02 459.824 32.86 460.104 32.66V34.44C460.104 35.58 458.924 36.74 456.944 36.74C455.684 36.74 454.944 36.18 454.944 35.22ZM465.106 24.56V27.66H463.346V29.16H465.106V35.84C465.106 37.4 465.586 38 467.466 38H468.866V36.5H468.386C468.026 36.5 467.666 36.48 467.326 36.46C466.966 36.42 466.806 36.16 466.806 35.64V29.16H468.866V27.66H466.806V24.56H465.106ZM470.855 23.72V25.8H472.555V23.72H470.855ZM470.855 27.66V38H472.555V27.66H470.855ZM474.188 27.66L478.028 38H479.848L483.628 27.66H481.848L479.028 36.28H478.988L476.088 27.66H474.188ZM489.428 27.42C486.708 27.42 485.148 28.58 485.028 30.88H486.728C486.808 29.54 487.628 28.92 489.308 28.92C490.908 28.92 491.608 29.48 491.608 30.62C491.608 31.36 491.208 31.72 489.708 31.9C487.488 32.18 486.108 32.58 485.528 33.14C484.928 33.68 484.628 34.42 484.628 35.34C484.628 37.2 485.928 38.24 488.048 38.24C489.568 38.24 490.788 37.7 491.688 36.64C491.688 37.72 492.208 38.24 493.128 38.24C493.608 38.24 494.028 38.14 494.348 37.96V36.64C494.188 36.7 493.988 36.74 493.828 36.74C493.468 36.74 493.288 36.54 493.288 36.16V30.2C493.288 28.58 492.348 27.42 489.428 27.42ZM486.428 35.22C486.428 34.14 487.148 33.56 488.648 33.34L490.388 33.08C490.848 33.02 491.308 32.86 491.588 32.66V34.44C491.588 35.58 490.408 36.74 488.428 36.74C487.168 36.74 486.428 36.18 486.428 35.22ZM505.737 27.42C503.017 27.42 501.457 28.58 501.337 30.88H503.037C503.117 29.54 503.937 28.92 505.617 28.92C507.217 28.92 507.917 29.48 507.917 30.62C507.917 31.36 507.517 31.72 506.017 31.9C503.797 32.18 502.417 32.58 501.837 33.14C501.237 33.68 500.937 34.42 500.937 35.34C500.937 37.2 502.237 38.24 504.357 38.24C505.877 38.24 507.097 37.7 507.997 36.64C507.997 37.72 508.517 38.24 509.437 38.24C509.917 38.24 510.337 38.14 510.657 37.96V36.64C510.497 36.7 510.297 36.74 510.137 36.74C509.777 36.74 509.597 36.54 509.597 36.16V30.2C509.597 28.58 508.657 27.42 505.737 27.42ZM502.737 35.22C502.737 34.14 503.457 33.56 504.957 33.34L506.697 33.08C507.157 33.02 507.617 32.86 507.897 32.66V34.44C507.897 35.58 506.717 36.74 504.737 36.74C503.477 36.74 502.737 36.18 502.737 35.22ZM517.339 27.42C515.759 27.42 514.579 28 514.039 29.06H513.999V27.66H512.299V41.96H513.999V36.62H514.039C514.759 37.72 516.099 38.24 517.379 38.24C520.299 38.24 522.099 36.02 522.099 32.86C522.099 29.68 520.339 27.42 517.339 27.42ZM513.939 32.82C513.939 30.56 515.039 28.92 517.079 28.92C519.099 28.92 520.299 30.56 520.299 32.74C520.299 35.26 519.159 36.74 517.199 36.74C515.139 36.74 513.939 35.2 513.939 32.82ZM528.334 27.42C525.614 27.42 524.054 28.58 523.934 30.88H525.634C525.714 29.54 526.534 28.92 528.214 28.92C529.814 28.92 530.514 29.48 530.514 30.62C530.514 31.36 530.114 31.72 528.614 31.9C526.394 32.18 525.014 32.58 524.434 33.14C523.834 33.68 523.534 34.42 523.534 35.34C523.534 37.2 524.834 38.24 526.954 38.24C528.474 38.24 529.694 37.7 530.594 36.64C530.594 37.72 531.114 38.24 532.034 38.24C532.514 38.24 532.934 38.14 533.254 37.96V36.64C533.094 36.7 532.894 36.74 532.734 36.74C532.374 36.74 532.194 36.54 532.194 36.16V30.2C532.194 28.58 531.254 27.42 528.334 27.42ZM525.334 35.22C525.334 34.14 526.054 33.56 527.554 33.34L529.294 33.08C529.754 33.02 530.214 32.86 530.494 32.66V34.44C530.494 35.58 529.314 36.74 527.334 36.74C526.074 36.74 525.334 36.18 525.334 35.22ZM539.037 27.42C535.997 27.42 534.277 29.74 534.277 32.88C534.277 36 536.097 38.12 538.897 38.12C540.337 38.12 541.597 37.38 542.117 36.24H542.157V36.88C542.157 39.5 541.057 40.84 539.057 40.84C537.737 40.84 536.437 40.24 536.377 39.16H534.677C534.777 41.16 536.637 42.2 538.977 42.2C542.217 42.2 543.757 40.48 543.757 37.22V27.66H542.157V29.14H542.137C541.557 28.1 540.497 27.42 539.037 27.42ZM536.077 32.68C536.077 30.42 537.217 28.92 539.117 28.92C541.017 28.92 542.077 30.44 542.077 32.62C542.077 35.02 540.877 36.62 538.997 36.62C537.137 36.62 536.077 35.1 536.077 32.68ZM550.561 27.42C547.841 27.42 546.281 28.58 546.161 30.88H547.861C547.941 29.54 548.761 28.92 550.441 28.92C552.041 28.92 552.741 29.48 552.741 30.62C552.741 31.36 552.341 31.72 550.841 31.9C548.621 32.18 547.241 32.58 546.661 33.14C546.061 33.68 545.761 34.42 545.761 35.34C545.761 37.2 547.061 38.24 549.181 38.24C550.701 38.24 551.921 37.7 552.821 36.64C552.821 37.72 553.341 38.24 554.261 38.24C554.741 38.24 555.161 38.14 555.481 37.96V36.64C555.321 36.7 555.121 36.74 554.961 36.74C554.601 36.74 554.421 36.54 554.421 36.16V30.2C554.421 28.58 553.481 27.42 550.561 27.42ZM547.561 35.22C547.561 34.14 548.281 33.56 549.781 33.34L551.521 33.08C551.981 33.02 552.441 32.86 552.721 32.66V34.44C552.721 35.58 551.541 36.74 549.561 36.74C548.301 36.74 547.561 36.18 547.561 35.22ZM562.063 27.42C560.543 27.42 559.463 28 558.703 29.3H558.663V27.66H557.063V38H558.763V32.1C558.763 30.22 559.863 28.92 561.803 28.92C563.183 28.92 563.923 29.8 563.923 30.94V38H565.623V31.12C565.623 28.74 564.563 27.42 562.063 27.42ZM575.716 23.72V29.04H575.676C575.036 28 573.656 27.42 572.316 27.42C569.356 27.42 567.616 29.64 567.616 32.8C567.616 36.02 569.476 38.24 572.376 38.24C573.916 38.24 575.136 37.66 575.676 36.6H575.716V38H577.416V23.72H575.716ZM569.416 32.92C569.416 30.46 570.536 28.92 572.496 28.92C574.596 28.92 575.776 30.5 575.776 32.84C575.776 35.12 574.656 36.74 572.616 36.74C570.616 36.74 569.416 35.1 569.416 32.92ZM584.492 27.42C581.392 27.42 579.472 29.54 579.472 32.84C579.472 36.14 581.492 38.24 584.492 38.24C587.532 38.24 589.512 36.04 589.512 32.84C589.512 29.68 587.672 27.42 584.492 27.42ZM581.272 32.84C581.272 30.44 582.672 28.92 584.472 28.92C586.352 28.92 587.712 30.5 587.712 32.84C587.712 35.18 586.352 36.74 584.492 36.74C582.612 36.74 581.272 35.18 581.272 32.84ZM74.7804 46.72V61H76.4804V46.72H74.7804ZM83.354 50.42C80.634 50.42 79.074 51.58 78.954 53.88H80.654C80.734 52.54 81.554 51.92 83.234 51.92C84.834 51.92 85.534 52.48 85.534 53.62C85.534 54.36 85.134 54.72 83.634 54.9C81.414 55.18 80.034 55.58 79.454 56.14C78.854 56.68 78.554 57.42 78.554 58.34C78.554 60.2 79.854 61.24 81.974 61.24C83.494 61.24 84.714 60.7 85.614 59.64C85.614 60.72 86.134 61.24 87.054 61.24C87.534 61.24 87.954 61.14 88.274 60.96V59.64C88.114 59.7 87.914 59.74 87.754 59.74C87.394 59.74 87.214 59.54 87.214 59.16V53.2C87.214 51.58 86.274 50.42 83.354 50.42ZM80.354 58.22C80.354 57.14 81.074 56.56 82.574 56.34L84.314 56.08C84.774 56.02 85.234 55.86 85.514 55.66V57.44C85.514 58.58 84.334 59.74 82.354 59.74C81.094 59.74 80.354 59.18 80.354 58.22ZM93.2962 50.42C91.0362 50.42 89.4162 51.54 89.4162 53.36C89.4162 54.9 90.2962 55.74 92.9562 56.3C94.2562 56.58 95.1162 56.84 95.5362 57.1C95.9562 57.36 96.1762 57.74 96.1762 58.2C96.1762 59.22 95.3162 59.74 93.6762 59.74C91.9562 59.74 90.9362 59.02 90.8962 57.74H89.1962C89.2962 60.06 90.9562 61.24 93.5762 61.24C96.2762 61.24 97.9762 60.02 97.9762 57.98C97.9762 56.42 96.9162 55.56 94.9162 55.12L93.3162 54.76C91.9162 54.44 91.2162 54 91.2162 53.24C91.2162 52.4 92.0562 51.92 93.4162 51.92C94.7762 51.92 95.7162 52.54 95.8162 53.64V53.66H97.5162C97.3762 51.5 96.0762 50.42 93.2962 50.42ZM105.523 46.72V61H107.223V46.72H105.523ZM109.856 50.66V57.56C109.856 59.98 110.996 61.24 113.416 61.24C114.856 61.24 116.036 60.68 116.776 59.36H116.816V61H118.416V50.66H116.716V56.56C116.716 58.44 115.636 59.74 113.656 59.74C112.356 59.74 111.556 58.9 111.556 57.7V50.66H109.856ZM125.289 50.42C122.249 50.42 120.409 52.6 120.409 55.96C120.409 59.2 122.229 61.24 125.249 61.24C127.829 61.24 129.429 59.8 129.809 57.22H128.069C127.849 58.8 126.869 59.74 125.229 59.74C123.349 59.74 122.209 58.22 122.209 55.96C122.209 53.4 123.329 51.92 125.429 51.92C126.789 51.92 127.709 52.64 127.989 53.98H129.749C129.469 51.62 127.789 50.42 125.289 50.42ZM136.012 50.42C134.612 50.42 133.432 50.94 132.512 51.96C131.592 52.98 131.152 54.24 131.152 55.76C131.152 57.56 131.852 59.52 133.372 60.52C134.112 61 135.032 61.24 136.112 61.24C138.452 61.24 140.072 60.02 140.532 57.72H138.852C138.572 59 137.692 59.74 136.172 59.74C134.172 59.74 132.952 58.44 132.952 56.46V56.34H140.692V56.14C140.692 54.46 140.292 53.08 139.472 52.02C138.652 50.96 137.492 50.42 136.012 50.42ZM132.952 54.84C133.092 53.08 134.292 51.92 135.892 51.92C137.572 51.92 138.792 53.18 138.892 54.84H132.952ZM145.894 50.42C143.634 50.42 142.014 51.54 142.014 53.36C142.014 54.9 142.894 55.74 145.554 56.3C146.854 56.58 147.714 56.84 148.134 57.1C148.554 57.36 148.774 57.74 148.774 58.2C148.774 59.22 147.914 59.74 146.274 59.74C144.554 59.74 143.534 59.02 143.494 57.74H141.794C141.894 60.06 143.554 61.24 146.174 61.24C148.874 61.24 150.574 60.02 150.574 57.98C150.574 56.42 149.514 55.56 147.514 55.12L145.914 54.76C144.514 54.44 143.814 54 143.814 53.24C143.814 52.4 144.654 51.92 146.014 51.92C147.374 51.92 148.314 52.54 148.414 53.64V53.66H150.114C149.974 51.5 148.674 50.42 145.894 50.42ZM165.56 46.72V52.04H165.52C164.88 51 163.5 50.42 162.16 50.42C159.2 50.42 157.46 52.64 157.46 55.8C157.46 59.02 159.32 61.24 162.22 61.24C163.76 61.24 164.98 60.66 165.52 59.6H165.56V61H167.26V46.72H165.56ZM159.26 55.92C159.26 53.46 160.38 51.92 162.34 51.92C164.44 51.92 165.62 53.5 165.62 55.84C165.62 58.12 164.5 59.74 162.46 59.74C160.46 59.74 159.26 58.1 159.26 55.92ZM174.176 50.42C172.776 50.42 171.596 50.94 170.676 51.96C169.756 52.98 169.316 54.24 169.316 55.76C169.316 57.56 170.016 59.52 171.536 60.52C172.276 61 173.196 61.24 174.276 61.24C176.616 61.24 178.236 60.02 178.696 57.72H177.016C176.736 59 175.856 59.74 174.336 59.74C172.336 59.74 171.116 58.44 171.116 56.46V56.34H178.856V56.14C178.856 54.46 178.456 53.08 177.636 52.02C176.816 50.96 175.656 50.42 174.176 50.42ZM171.116 54.84C171.256 53.08 172.456 51.92 174.056 51.92C175.736 51.92 176.956 53.18 177.056 54.84H171.116ZM191.184 50.42C189.664 50.42 188.584 51 187.824 52.3H187.784V50.66H186.184V61H187.884V55.1C187.884 53.22 188.984 51.92 190.924 51.92C192.304 51.92 193.044 52.8 193.044 53.94V61H194.744V54.12C194.744 51.74 193.684 50.42 191.184 50.42ZM197.298 50.66V57.56C197.298 59.98 198.438 61.24 200.858 61.24C202.298 61.24 203.478 60.68 204.218 59.36H204.258V61H205.858V50.66H204.158V56.56C204.158 58.44 203.078 59.74 201.098 59.74C199.798 59.74 198.998 58.9 198.998 57.7V50.66H197.298ZM212.711 50.42C211.311 50.42 210.131 50.94 209.211 51.96C208.291 52.98 207.851 54.24 207.851 55.76C207.851 57.56 208.551 59.52 210.071 60.52C210.811 61 211.731 61.24 212.811 61.24C215.151 61.24 216.771 60.02 217.231 57.72H215.551C215.271 59 214.391 59.74 212.871 59.74C210.871 59.74 209.651 58.44 209.651 56.46V56.34H217.391V56.14C217.391 54.46 216.991 53.08 216.171 52.02C215.351 50.96 214.191 50.42 212.711 50.42ZM209.651 54.84C209.791 53.08 210.991 51.92 212.591 51.92C214.271 51.92 215.491 53.18 215.591 54.84H209.651ZM222.593 50.42C220.333 50.42 218.713 51.54 218.713 53.36C218.713 54.9 219.593 55.74 222.253 56.3C223.553 56.58 224.413 56.84 224.833 57.1C225.253 57.36 225.473 57.74 225.473 58.2C225.473 59.22 224.613 59.74 222.973 59.74C221.253 59.74 220.233 59.02 220.193 57.74H218.493C218.593 60.06 220.253 61.24 222.873 61.24C225.573 61.24 227.273 60.02 227.273 57.98C227.273 56.42 226.213 55.56 224.213 55.12L222.613 54.76C221.213 54.44 220.513 54 220.513 53.24C220.513 52.4 221.353 51.92 222.713 51.92C224.073 51.92 225.013 52.54 225.113 53.64V53.66H226.813C226.673 51.5 225.373 50.42 222.593 50.42ZM229.813 47.56V50.66H228.053V52.16H229.813V58.84C229.813 60.4 230.293 61 232.173 61H233.573V59.5H233.093C232.733 59.5 232.373 59.48 232.033 59.46C231.673 59.42 231.513 59.16 231.513 58.64V52.16H233.573V50.66H231.513V47.56H229.813ZM240.602 50.42C238.982 50.42 237.842 51.2 237.042 52.84H237.002V50.66H235.402V61H237.102V56.38C237.102 53.54 238.302 52.22 240.842 52.22V50.42C240.742 50.42 240.682 50.42 240.602 50.42ZM246.23 50.42C243.13 50.42 241.21 52.54 241.21 55.84C241.21 59.14 243.23 61.24 246.23 61.24C249.27 61.24 251.25 59.04 251.25 55.84C251.25 52.68 249.41 50.42 246.23 50.42ZM243.01 55.84C243.01 53.44 244.41 51.92 246.21 51.92C248.09 51.92 249.45 53.5 249.45 55.84C249.45 58.18 248.09 59.74 246.23 59.74C244.35 59.74 243.01 58.18 243.01 55.84ZM256.695 50.42C254.435 50.42 252.815 51.54 252.815 53.36C252.815 54.9 253.695 55.74 256.355 56.3C257.655 56.58 258.515 56.84 258.935 57.1C259.355 57.36 259.575 57.74 259.575 58.2C259.575 59.22 258.715 59.74 257.075 59.74C255.355 59.74 254.335 59.02 254.295 57.74H252.595C252.695 60.06 254.355 61.24 256.975 61.24C259.675 61.24 261.375 60.02 261.375 57.98C261.375 56.42 260.315 55.56 258.315 55.12L256.715 54.76C255.315 54.44 254.615 54 254.615 53.24C254.615 52.4 255.455 51.92 256.815 51.92C258.175 51.92 259.115 52.54 259.215 53.64V53.66H260.915C260.775 51.5 259.475 50.42 256.695 50.42ZM273.121 50.42C271.721 50.42 270.541 50.94 269.621 51.96C268.701 52.98 268.261 54.24 268.261 55.76C268.261 57.56 268.961 59.52 270.481 60.52C271.221 61 272.141 61.24 273.221 61.24C275.561 61.24 277.181 60.02 277.641 57.72H275.961C275.681 59 274.801 59.74 273.281 59.74C271.281 59.74 270.061 58.44 270.061 56.46V56.34H277.801V56.14C277.801 54.46 277.401 53.08 276.581 52.02C275.761 50.96 274.601 50.42 273.121 50.42ZM270.061 54.84C270.201 53.08 271.401 51.92 273.001 51.92C274.681 51.92 275.901 53.18 276.001 54.84H270.061ZM283.003 50.42C280.743 50.42 279.123 51.54 279.123 53.36C279.123 54.9 280.003 55.74 282.663 56.3C283.963 56.58 284.823 56.84 285.243 57.1C285.663 57.36 285.883 57.74 285.883 58.2C285.883 59.22 285.023 59.74 283.383 59.74C281.663 59.74 280.643 59.02 280.603 57.74H278.903C279.003 60.06 280.663 61.24 283.283 61.24C285.983 61.24 287.683 60.02 287.683 57.98C287.683 56.42 286.623 55.56 284.623 55.12L283.023 54.76C281.623 54.44 280.923 54 280.923 53.24C280.923 52.4 281.763 51.92 283.123 51.92C284.483 51.92 285.423 52.54 285.523 53.64V53.66H287.223C287.083 51.5 285.783 50.42 283.003 50.42ZM293.883 50.42C290.843 50.42 289.003 52.6 289.003 55.96C289.003 59.2 290.823 61.24 293.843 61.24C296.423 61.24 298.023 59.8 298.403 57.22H296.663C296.443 58.8 295.463 59.74 293.823 59.74C291.943 59.74 290.803 58.22 290.803 55.96C290.803 53.4 291.923 51.92 294.023 51.92C295.383 51.92 296.303 52.64 296.583 53.98H298.343C298.063 51.62 296.383 50.42 293.883 50.42ZM304.545 50.42C301.825 50.42 300.265 51.58 300.145 53.88H301.845C301.925 52.54 302.745 51.92 304.425 51.92C306.025 51.92 306.725 52.48 306.725 53.62C306.725 54.36 306.325 54.72 304.825 54.9C302.605 55.18 301.225 55.58 300.645 56.14C300.045 56.68 299.745 57.42 299.745 58.34C299.745 60.2 301.045 61.24 303.165 61.24C304.685 61.24 305.905 60.7 306.805 59.64C306.805 60.72 307.325 61.24 308.245 61.24C308.725 61.24 309.145 61.14 309.465 60.96V59.64C309.305 59.7 309.105 59.74 308.945 59.74C308.585 59.74 308.405 59.54 308.405 59.16V53.2C308.405 51.58 307.465 50.42 304.545 50.42ZM301.545 58.22C301.545 57.14 302.265 56.56 303.765 56.34L305.505 56.08C305.965 56.02 306.425 55.86 306.705 55.66V57.44C306.705 58.58 305.525 59.74 303.545 59.74C302.285 59.74 301.545 59.18 301.545 58.22ZM316.148 50.42C314.568 50.42 313.388 51 312.848 52.06H312.808V50.66H311.108V64.96H312.808V59.62H312.848C313.568 60.72 314.908 61.24 316.188 61.24C319.108 61.24 320.908 59.02 320.908 55.86C320.908 52.68 319.148 50.42 316.148 50.42ZM312.748 55.82C312.748 53.56 313.848 51.92 315.888 51.92C317.908 51.92 319.108 53.56 319.108 55.74C319.108 58.26 317.968 59.74 316.008 59.74C313.948 59.74 312.748 58.2 312.748 55.82ZM327.143 50.42C324.423 50.42 322.863 51.58 322.743 53.88H324.443C324.523 52.54 325.343 51.92 327.023 51.92C328.623 51.92 329.323 52.48 329.323 53.62C329.323 54.36 328.923 54.72 327.423 54.9C325.203 55.18 323.823 55.58 323.243 56.14C322.643 56.68 322.343 57.42 322.343 58.34C322.343 60.2 323.643 61.24 325.763 61.24C327.283 61.24 328.503 60.7 329.403 59.64C329.403 60.72 329.923 61.24 330.843 61.24C331.323 61.24 331.743 61.14 332.063 60.96V59.64C331.903 59.7 331.703 59.74 331.543 59.74C331.183 59.74 331.003 59.54 331.003 59.16V53.2C331.003 51.58 330.063 50.42 327.143 50.42ZM324.143 58.22C324.143 57.14 324.863 56.56 326.363 56.34L328.103 56.08C328.563 56.02 329.023 55.86 329.303 55.66V57.44C329.303 58.58 328.123 59.74 326.143 59.74C324.883 59.74 324.143 59.18 324.143 58.22ZM338.785 50.42C337.165 50.42 336.025 51.2 335.225 52.84H335.185V50.66H333.585V61H335.285V56.38C335.285 53.54 336.485 52.22 339.025 52.22V50.42C338.925 50.42 338.865 50.42 338.785 50.42ZM344.545 50.42C341.825 50.42 340.265 51.58 340.145 53.88H341.845C341.925 52.54 342.745 51.92 344.425 51.92C346.025 51.92 346.725 52.48 346.725 53.62C346.725 54.36 346.325 54.72 344.825 54.9C342.605 55.18 341.225 55.58 340.645 56.14C340.045 56.68 339.745 57.42 339.745 58.34C339.745 60.2 341.045 61.24 343.165 61.24C344.685 61.24 345.905 60.7 346.805 59.64C346.805 60.72 347.325 61.24 348.245 61.24C348.725 61.24 349.145 61.14 349.465 60.96V59.64C349.305 59.7 349.105 59.74 348.945 59.74C348.585 59.74 348.405 59.54 348.405 59.16V53.2C348.405 51.58 347.465 50.42 344.545 50.42ZM341.545 58.22C341.545 57.14 342.265 56.56 343.765 56.34L345.505 56.08C345.965 56.02 346.425 55.86 346.705 55.66V57.44C346.705 58.58 345.525 59.74 343.545 59.74C342.285 59.74 341.545 59.18 341.545 58.22ZM351.708 47.56V50.66H349.948V52.16H351.708V58.84C351.708 60.4 352.188 61 354.068 61H355.468V59.5H354.988C354.628 59.5 354.268 59.48 353.928 59.46C353.568 59.42 353.408 59.16 353.408 58.64V52.16H355.468V50.66H353.408V47.56H351.708ZM361.656 50.42C360.256 50.42 359.076 50.94 358.156 51.96C357.236 52.98 356.796 54.24 356.796 55.76C356.796 57.56 357.496 59.52 359.016 60.52C359.756 61 360.676 61.24 361.756 61.24C364.096 61.24 365.716 60.02 366.176 57.72H364.496C364.216 59 363.336 59.74 361.816 59.74C359.816 59.74 358.596 58.44 358.596 56.46V56.34H366.336V56.14C366.336 54.46 365.936 53.08 365.116 52.02C364.296 50.96 363.136 50.42 361.656 50.42ZM358.596 54.84C358.736 53.08 359.936 51.92 361.536 51.92C363.216 51.92 364.436 53.18 364.536 54.84H358.596ZM371.538 50.42C369.278 50.42 367.658 51.54 367.658 53.36C367.658 54.9 368.538 55.74 371.198 56.3C372.498 56.58 373.358 56.84 373.778 57.1C374.198 57.36 374.418 57.74 374.418 58.2C374.418 59.22 373.558 59.74 371.918 59.74C370.198 59.74 369.178 59.02 369.138 57.74H367.438C367.538 60.06 369.198 61.24 371.818 61.24C374.518 61.24 376.218 60.02 376.218 57.98C376.218 56.42 375.158 55.56 373.158 55.12L371.558 54.76C370.158 54.44 369.458 54 369.458 53.24C369.458 52.4 370.298 51.92 371.658 51.92C373.018 51.92 373.958 52.54 374.058 53.64V53.66H375.758C375.618 51.5 374.318 50.42 371.538 50.42ZM382.545 50.66L386.645 60.94L385.985 62.6C385.725 63.3 385.245 63.64 384.545 63.64C384.205 63.64 383.865 63.5 383.545 63.4V64.96C383.925 65.1 384.305 65.14 384.725 65.14C386.245 65.14 386.925 64.5 387.825 62.1L392.225 50.66H390.425L387.525 59.12H387.485L384.465 50.66H382.545ZM399.891 47.56V50.66H398.131V52.16H399.891V58.84C399.891 60.4 400.371 61 402.251 61H403.651V59.5H403.171C402.811 59.5 402.451 59.48 402.111 59.46C401.751 59.42 401.591 59.16 401.591 58.64V52.16H403.651V50.66H401.591V47.56H399.891ZM405.64 46.72V48.8H407.34V46.72H405.64ZM405.64 50.66V61H407.34V50.66H405.64ZM414.273 50.42C412.873 50.42 411.693 50.94 410.773 51.96C409.853 52.98 409.413 54.24 409.413 55.76C409.413 57.56 410.113 59.52 411.633 60.52C412.373 61 413.293 61.24 414.373 61.24C416.713 61.24 418.333 60.02 418.793 57.72H417.113C416.833 59 415.953 59.74 414.433 59.74C412.433 59.74 411.213 58.44 411.213 56.46V56.34H418.953V56.14C418.953 54.46 418.553 53.08 417.733 52.02C416.913 50.96 415.753 50.42 414.273 50.42ZM411.213 54.84C411.353 53.08 412.553 51.92 414.153 51.92C415.833 51.92 417.053 53.18 417.153 54.84H411.213ZM425.716 50.42C424.196 50.42 423.116 51 422.356 52.3H422.316V50.66H420.716V61H422.416V55.1C422.416 53.22 423.516 51.92 425.456 51.92C426.836 51.92 427.576 52.8 427.576 53.94V61H429.276V54.12C429.276 51.74 428.216 50.42 425.716 50.42ZM439.369 46.72V52.04H439.329C438.689 51 437.309 50.42 435.969 50.42C433.009 50.42 431.269 52.64 431.269 55.8C431.269 59.02 433.129 61.24 436.029 61.24C437.569 61.24 438.789 60.66 439.329 59.6H439.369V61H441.069V46.72H439.369ZM433.069 55.92C433.069 53.46 434.189 51.92 436.149 51.92C438.249 51.92 439.429 53.5 439.429 55.84C439.429 58.12 438.309 59.74 436.269 59.74C434.269 59.74 433.069 58.1 433.069 55.92ZM447.924 50.42C445.204 50.42 443.644 51.58 443.524 53.88H445.224C445.304 52.54 446.124 51.92 447.804 51.92C449.404 51.92 450.104 52.48 450.104 53.62C450.104 54.36 449.704 54.72 448.204 54.9C445.984 55.18 444.604 55.58 444.024 56.14C443.424 56.68 443.124 57.42 443.124 58.34C443.124 60.2 444.424 61.24 446.544 61.24C448.064 61.24 449.284 60.7 450.184 59.64C450.184 60.72 450.704 61.24 451.624 61.24C452.104 61.24 452.524 61.14 452.844 60.96V59.64C452.684 59.7 452.484 59.74 452.324 59.74C451.964 59.74 451.784 59.54 451.784 59.16V53.2C451.784 51.58 450.844 50.42 447.924 50.42ZM444.924 58.22C444.924 57.14 445.644 56.56 447.144 56.34L448.884 56.08C449.344 56.02 449.804 55.86 450.084 55.66V57.44C450.084 58.58 448.904 59.74 446.924 59.74C445.664 59.74 444.924 59.18 444.924 58.22ZM464.453 50.42C461.353 50.42 459.433 52.54 459.433 55.84C459.433 59.14 461.453 61.24 464.453 61.24C467.493 61.24 469.473 59.04 469.473 55.84C469.473 52.68 467.633 50.42 464.453 50.42ZM461.233 55.84C461.233 53.44 462.633 51.92 464.433 51.92C466.313 51.92 467.673 53.5 467.673 55.84C467.673 58.18 466.313 59.74 464.453 59.74C462.573 59.74 461.233 58.18 461.233 55.84ZM476.477 50.42C474.957 50.42 473.877 51 473.117 52.3H473.077V50.66H471.477V61H473.177V55.1C473.177 53.22 474.277 51.92 476.217 51.92C477.597 51.92 478.337 52.8 478.337 53.94V61H480.037V54.12C480.037 51.74 478.977 50.42 476.477 50.42ZM482.691 46.72V61H484.391V46.72H482.691ZM487.124 46.72V48.8H488.824V46.72H487.124ZM487.124 50.66V61H488.824V50.66H487.124ZM496.458 50.42C494.938 50.42 493.858 51 493.098 52.3H493.058V50.66H491.458V61H493.158V55.1C493.158 53.22 494.258 51.92 496.198 51.92C497.578 51.92 498.318 52.8 498.318 53.94V61H500.018V54.12C500.018 51.74 498.958 50.42 496.458 50.42ZM506.871 50.42C505.471 50.42 504.291 50.94 503.371 51.96C502.451 52.98 502.011 54.24 502.011 55.76C502.011 57.56 502.711 59.52 504.231 60.52C504.971 61 505.891 61.24 506.971 61.24C509.311 61.24 510.931 60.02 511.391 57.72H509.711C509.431 59 508.551 59.74 507.031 59.74C505.031 59.74 503.811 58.44 503.811 56.46V56.34H511.551V56.14C511.551 54.46 511.151 53.08 510.331 52.02C509.511 50.96 508.351 50.42 506.871 50.42ZM503.811 54.84C503.951 53.08 505.151 51.92 506.751 51.92C508.431 51.92 509.651 53.18 509.751 54.84H503.811ZM513.693 58.78V61H515.913V58.78H513.693Z" fill="white"/>
</svg>
