<svg width="586" height="88" viewBox="0 0 586 88" fill="none" xmlns="http://www.w3.org/2000/svg">
<path d="M23.2592 0.719999V15H33.1792V13.4H25.1592V8.46H32.5792V6.86H25.1592V2.32H33.1192V0.719999H23.2592ZM40.2058 4.42C38.6858 4.42 37.6058 5 36.8458 6.3H36.8058V4.66H35.2058V15H36.9058V9.1C36.9058 7.22 38.0058 5.92 39.9458 5.92C41.3258 5.92 42.0658 6.8 42.0658 7.94V15H43.7658V8.12C43.7658 5.74 42.7058 4.42 40.2058 4.42ZM51.7255 0.719999V2.32H59.9255L51.0455 13.4V15H62.4055V13.4H53.3055L62.1655 2.32V0.719999H51.7255ZM68.272 0.719999L62.692 15H64.652L66.252 10.7H72.292L73.852 15H75.952L70.372 0.719999H68.272ZM69.312 2.44L71.692 9.1H66.852L69.272 2.44H69.312ZM77.3608 0.719999V15H79.2608V8.9H83.9608C84.9608 8.92 85.6008 9.32 85.9008 10.08C86.2008 10.84 86.3608 11.6 86.3808 12.34L86.4608 13.9C86.5408 14.44 86.5608 14.68 86.8008 15H88.9208C88.4208 14.36 88.1808 13.54 88.1208 11.86C88.0208 9.24 87.3608 8.4 85.9408 8.12V8.08C87.6008 7.6 88.4208 6.34 88.4208 4.46C88.4208 2.08 86.6208 0.719999 84.1608 0.719999H77.3608ZM79.2608 7.3V2.32H84.0608C85.6208 2.32 86.5208 3.22 86.5208 4.76C86.5208 6.5 85.4208 7.3 83.3208 7.3H79.2608ZM94.9322 0.719999L89.3522 15H91.3122L92.9122 10.7H98.9522L100.512 15H102.612L97.0322 0.719999H94.9322ZM95.9722 2.44L98.3522 9.1H93.5122L95.9322 2.44H95.9722ZM116.847 0.719999V6.04H116.807C116.167 5 114.787 4.42 113.447 4.42C110.487 4.42 108.747 6.64 108.747 9.8C108.747 13.02 110.607 15.24 113.507 15.24C115.047 15.24 116.267 14.66 116.807 13.6H116.847V15H118.547V0.719999H116.847ZM110.547 9.92C110.547 7.46 111.667 5.92 113.627 5.92C115.727 5.92 116.907 7.5 116.907 9.84C116.907 12.12 115.787 13.74 113.747 13.74C111.747 13.74 110.547 12.1 110.547 9.92ZM125.463 4.42C124.063 4.42 122.883 4.94 121.963 5.96C121.043 6.98 120.603 8.24 120.603 9.76C120.603 11.56 121.303 13.52 122.823 14.52C123.563 15 124.483 15.24 125.563 15.24C127.903 15.24 129.523 14.02 129.983 11.72H128.303C128.023 13 127.143 13.74 125.623 13.74C123.623 13.74 122.403 12.44 122.403 10.46V10.34H130.143V10.14C130.143 8.46 129.743 7.08 128.923 6.02C128.103 4.96 126.943 4.42 125.463 4.42ZM122.403 8.84C122.543 7.08 123.743 5.92 125.343 5.92C127.023 5.92 128.243 7.18 128.343 8.84H122.403ZM135.345 4.42C133.085 4.42 131.465 5.54 131.465 7.36C131.465 8.9 132.345 9.74 135.005 10.3C136.305 10.58 137.165 10.84 137.585 11.1C138.005 11.36 138.225 11.74 138.225 12.2C138.225 13.22 137.365 13.74 135.725 13.74C134.005 13.74 132.985 13.02 132.945 11.74H131.245C131.345 14.06 133.005 15.24 135.625 15.24C138.325 15.24 140.025 14.02 140.025 11.98C140.025 10.42 138.965 9.56 136.965 9.12L135.365 8.76C133.965 8.44 133.265 8 133.265 7.24C133.265 6.4 134.105 5.92 135.465 5.92C136.825 5.92 137.765 6.54 137.865 7.64V7.66H139.565C139.425 5.5 138.125 4.42 135.345 4.42ZM146.145 4.42C143.425 4.42 141.865 5.58 141.745 7.88H143.445C143.525 6.54 144.345 5.92 146.025 5.92C147.625 5.92 148.325 6.48 148.325 7.62C148.325 8.36 147.925 8.72 146.425 8.9C144.205 9.18 142.825 9.58 142.245 10.14C141.645 10.68 141.345 11.42 141.345 12.34C141.345 14.2 142.645 15.24 144.765 15.24C146.285 15.24 147.505 14.7 148.405 13.64C148.405 14.72 148.925 15.24 149.845 15.24C150.325 15.24 150.745 15.14 151.065 14.96V13.64C150.905 13.7 150.705 13.74 150.545 13.74C150.185 13.74 150.005 13.54 150.005 13.16V7.2C150.005 5.58 149.065 4.42 146.145 4.42ZM143.145 12.22C143.145 11.14 143.865 10.56 145.365 10.34L147.105 10.08C147.565 10.02 148.025 9.86 148.305 9.66V11.44C148.305 12.58 147.125 13.74 145.145 13.74C143.885 13.74 143.145 13.18 143.145 12.22ZM157.787 4.42C156.167 4.42 155.027 5.2 154.227 6.84H154.187V4.66H152.587V15H154.287V10.38C154.287 7.54 155.487 6.22 158.027 6.22V4.42C157.927 4.42 157.867 4.42 157.787 4.42ZM164.447 4.42C162.827 4.42 161.687 5.2 160.887 6.84H160.847V4.66H159.247V15H160.947V10.38C160.947 7.54 162.147 6.22 164.687 6.22V4.42C164.587 4.42 164.527 4.42 164.447 4.42ZM170.076 4.42C166.976 4.42 165.056 6.54 165.056 9.84C165.056 13.14 167.076 15.24 170.076 15.24C173.116 15.24 175.096 13.04 175.096 9.84C175.096 6.68 173.256 4.42 170.076 4.42ZM166.856 9.84C166.856 7.44 168.256 5.92 170.056 5.92C171.936 5.92 173.296 7.5 173.296 9.84C173.296 12.18 171.936 13.74 170.076 13.74C168.196 13.74 166.856 12.18 166.856 9.84ZM177.2 0.719999V15H178.9V0.719999H177.2ZM181.634 0.719999V15H183.334V0.719999H181.634ZM190.208 4.42C187.488 4.42 185.928 5.58 185.808 7.88H187.508C187.588 6.54 188.408 5.92 190.088 5.92C191.688 5.92 192.388 6.48 192.388 7.62C192.388 8.36 191.988 8.72 190.488 8.9C188.268 9.18 186.888 9.58 186.308 10.14C185.708 10.68 185.408 11.42 185.408 12.34C185.408 14.2 186.708 15.24 188.828 15.24C190.348 15.24 191.568 14.7 192.468 13.64C192.468 14.72 192.988 15.24 193.908 15.24C194.388 15.24 194.808 15.14 195.128 14.96V13.64C194.967 13.7 194.768 13.74 194.608 13.74C194.248 13.74 194.068 13.54 194.068 13.16V7.2C194.068 5.58 193.128 4.42 190.208 4.42ZM187.208 12.22C187.208 11.14 187.928 10.56 189.428 10.34L191.168 10.08C191.628 10.02 192.088 9.86 192.368 9.66V11.44C192.368 12.58 191.188 13.74 189.208 13.74C187.948 13.74 187.208 13.18 187.208 12.22ZM201.69 4.42C200.23 4.42 199.13 5 198.35 6.18H198.31V4.66H196.71V15H198.41V8.52C198.41 7.92 198.91 6.84 199.73 6.32C200.15 6.06 200.63 5.92 201.17 5.92C202.51 5.92 203.11 6.66 203.11 8.14V15H204.81V8.5C204.81 7.06 205.81 5.92 207.51 5.92C208.91 5.92 209.51 6.66 209.51 8.14V15H211.21V7.36C211.21 5.56 210.11 4.42 207.79 4.42C206.41 4.42 205.23 5.08 204.53 6.18C204.17 5.06 203.21 4.42 201.69 4.42ZM218.22 4.42C215.12 4.42 213.2 6.54 213.2 9.84C213.2 13.14 215.22 15.24 218.22 15.24C221.26 15.24 223.24 13.04 223.24 9.84C223.24 6.68 221.4 4.42 218.22 4.42ZM215 9.84C215 7.44 216.4 5.92 218.2 5.92C220.08 5.92 221.44 7.5 221.44 9.84C221.44 12.18 220.08 13.74 218.22 13.74C216.34 13.74 215 12.18 215 9.84ZM228.685 4.42C226.425 4.42 224.805 5.54 224.805 7.36C224.805 8.9 225.685 9.74 228.345 10.3C229.645 10.58 230.505 10.84 230.925 11.1C231.345 11.36 231.565 11.74 231.565 12.2C231.565 13.22 230.705 13.74 229.065 13.74C227.345 13.74 226.325 13.02 226.285 11.74H224.585C224.685 14.06 226.345 15.24 228.965 15.24C231.665 15.24 233.365 14.02 233.365 11.98C233.365 10.42 232.305 9.56 230.305 9.12L228.705 8.76C227.305 8.44 226.605 8 226.605 7.24C226.605 6.4 227.445 5.92 228.805 5.92C230.165 5.92 231.105 6.54 231.205 7.64V7.66H232.905C232.765 5.5 231.465 4.42 228.685 4.42ZM239.811 4.66L243.651 15H245.471L249.251 4.66H247.471L244.651 13.28H244.611L241.711 4.66H239.811ZM255.051 4.42C252.331 4.42 250.771 5.58 250.651 7.88H252.351C252.431 6.54 253.251 5.92 254.931 5.92C256.531 5.92 257.231 6.48 257.231 7.62C257.231 8.36 256.831 8.72 255.331 8.9C253.111 9.18 251.731 9.58 251.151 10.14C250.551 10.68 250.251 11.42 250.251 12.34C250.251 14.2 251.551 15.24 253.671 15.24C255.191 15.24 256.411 14.7 257.311 13.64C257.311 14.72 257.831 15.24 258.751 15.24C259.231 15.24 259.651 15.14 259.971 14.96V13.64C259.811 13.7 259.611 13.74 259.451 13.74C259.091 13.74 258.911 13.54 258.911 13.16V7.2C258.911 5.58 257.971 4.42 255.051 4.42ZM252.051 12.22C252.051 11.14 252.771 10.56 254.271 10.34L256.011 10.08C256.471 10.02 256.931 9.86 257.211 9.66V11.44C257.211 12.58 256.031 13.74 254.051 13.74C252.791 13.74 252.051 13.18 252.051 12.22ZM266.693 4.42C265.073 4.42 263.933 5.2 263.133 6.84H263.093V4.66H261.493V15H263.193V10.38C263.193 7.54 264.393 6.22 266.933 6.22V4.42C266.833 4.42 266.773 4.42 266.693 4.42ZM268.314 0.719999V2.8H270.014V0.719999H268.314ZM268.314 4.66V15H270.014V4.66H268.314ZM276.887 4.42C274.167 4.42 272.607 5.58 272.487 7.88H274.187C274.267 6.54 275.087 5.92 276.767 5.92C278.367 5.92 279.067 6.48 279.067 7.62C279.067 8.36 278.667 8.72 277.167 8.9C274.947 9.18 273.567 9.58 272.987 10.14C272.387 10.68 272.087 11.42 272.087 12.34C272.087 14.2 273.387 15.24 275.507 15.24C277.027 15.24 278.247 14.7 279.147 13.64C279.147 14.72 279.667 15.24 280.587 15.24C281.067 15.24 281.487 15.14 281.807 14.96V13.64C281.647 13.7 281.447 13.74 281.287 13.74C280.927 13.74 280.747 13.54 280.747 13.16V7.2C280.747 5.58 279.807 4.42 276.887 4.42ZM273.887 12.22C273.887 11.14 274.607 10.56 276.107 10.34L277.847 10.08C278.307 10.02 278.767 9.86 279.047 9.66V11.44C279.047 12.58 277.867 13.74 275.887 13.74C274.627 13.74 273.887 13.18 273.887 12.22ZM286.829 4.42C284.569 4.42 282.949 5.54 282.949 7.36C282.949 8.9 283.829 9.74 286.489 10.3C287.789 10.58 288.649 10.84 289.069 11.1C289.489 11.36 289.709 11.74 289.709 12.2C289.709 13.22 288.849 13.74 287.209 13.74C285.489 13.74 284.469 13.02 284.429 11.74H282.729C282.829 14.06 284.489 15.24 287.109 15.24C289.809 15.24 291.509 14.02 291.509 11.98C291.509 10.42 290.449 9.56 288.449 9.12L286.849 8.76C285.449 8.44 284.749 8 284.749 7.24C284.749 6.4 285.589 5.92 286.949 5.92C288.309 5.92 289.249 6.54 289.349 7.64V7.66H291.049C290.909 5.5 289.609 4.42 286.829 4.42ZM303.196 4.42C300.476 4.42 298.916 5.58 298.796 7.88H300.496C300.576 6.54 301.396 5.92 303.076 5.92C304.676 5.92 305.376 6.48 305.376 7.62C305.376 8.36 304.976 8.72 303.476 8.9C301.256 9.18 299.876 9.58 299.296 10.14C298.696 10.68 298.396 11.42 298.396 12.34C298.396 14.2 299.696 15.24 301.816 15.24C303.336 15.24 304.556 14.7 305.456 13.64C305.456 14.72 305.976 15.24 306.896 15.24C307.376 15.24 307.796 15.14 308.116 14.96V13.64C307.956 13.7 307.756 13.74 307.596 13.74C307.236 13.74 307.056 13.54 307.056 13.16V7.2C307.056 5.58 306.116 4.42 303.196 4.42ZM300.196 12.22C300.196 11.14 300.916 10.56 302.416 10.34L304.156 10.08C304.616 10.02 305.076 9.86 305.356 9.66V11.44C305.356 12.58 304.176 13.74 302.196 13.74C300.936 13.74 300.196 13.18 300.196 12.22ZM314.018 4.42C310.978 4.42 309.138 6.6 309.138 9.96C309.138 13.2 310.958 15.24 313.978 15.24C316.558 15.24 318.158 13.8 318.538 11.22H316.798C316.578 12.8 315.598 13.74 313.958 13.74C312.078 13.74 310.938 12.22 310.938 9.96C310.938 7.4 312.058 5.92 314.158 5.92C315.518 5.92 316.438 6.64 316.718 7.98H318.478C318.198 5.62 316.518 4.42 314.018 4.42ZM324.76 4.42C321.72 4.42 319.88 6.6 319.88 9.96C319.88 13.2 321.7 15.24 324.72 15.24C327.3 15.24 328.9 13.8 329.28 11.22H327.54C327.32 12.8 326.34 13.74 324.7 13.74C322.82 13.74 321.68 12.22 321.68 9.96C321.68 7.4 322.8 5.92 324.9 5.92C326.26 5.92 327.18 6.64 327.46 7.98H329.22C328.94 5.62 327.26 4.42 324.76 4.42ZM331.282 0.719999V2.8H332.982V0.719999H331.282ZM331.282 4.66V15H332.982V4.66H331.282ZM340.076 4.42C336.976 4.42 335.056 6.54 335.056 9.84C335.056 13.14 337.076 15.24 340.076 15.24C343.116 15.24 345.096 13.04 345.096 9.84C345.096 6.68 343.256 4.42 340.076 4.42ZM336.856 9.84C336.856 7.44 338.256 5.92 340.056 5.92C341.936 5.92 343.296 7.5 343.296 9.84C343.296 12.18 341.936 13.74 340.076 13.74C338.196 13.74 336.856 12.18 336.856 9.84ZM352.1 4.42C350.58 4.42 349.5 5 348.74 6.3H348.7V4.66H347.1V15H348.8V9.1C348.8 7.22 349.9 5.92 351.84 5.92C353.22 5.92 353.96 6.8 353.96 7.94V15H355.66V8.12C355.66 5.74 354.6 4.42 352.1 4.42ZM362.514 4.42C361.114 4.42 359.934 4.94 359.014 5.96C358.094 6.98 357.654 8.24 357.654 9.76C357.654 11.56 358.354 13.52 359.874 14.52C360.614 15 361.534 15.24 362.614 15.24C364.954 15.24 366.574 14.02 367.034 11.72H365.354C365.074 13 364.194 13.74 362.674 13.74C360.674 13.74 359.454 12.44 359.454 10.46V10.34H367.194V10.14C367.194 8.46 366.794 7.08 365.974 6.02C365.154 4.96 363.994 4.42 362.514 4.42ZM359.454 8.84C359.594 7.08 360.794 5.92 362.394 5.92C364.074 5.92 365.294 7.18 365.394 8.84H359.454ZM372.396 4.42C370.136 4.42 368.516 5.54 368.516 7.36C368.516 8.9 369.396 9.74 372.056 10.3C373.356 10.58 374.216 10.84 374.636 11.1C375.056 11.36 375.276 11.74 375.276 12.2C375.276 13.22 374.416 13.74 372.776 13.74C371.056 13.74 370.036 13.02 369.996 11.74H368.296C368.396 14.06 370.056 15.24 372.676 15.24C375.376 15.24 377.076 14.02 377.076 11.98C377.076 10.42 376.016 9.56 374.016 9.12L372.416 8.76C371.016 8.44 370.316 8 370.316 7.24C370.316 6.4 371.156 5.92 372.516 5.92C373.876 5.92 374.816 6.54 374.916 7.64V7.66H376.616C376.476 5.5 375.176 4.42 372.396 4.42ZM389.622 4.42C388.042 4.42 386.862 5 386.322 6.06H386.282V4.66H384.582V18.96H386.282V13.62H386.322C387.042 14.72 388.382 15.24 389.662 15.24C392.582 15.24 394.382 13.02 394.382 9.86C394.382 6.68 392.622 4.42 389.622 4.42ZM386.222 9.82C386.222 7.56 387.322 5.92 389.362 5.92C391.382 5.92 392.582 7.56 392.582 9.74C392.582 12.26 391.442 13.74 389.482 13.74C387.422 13.74 386.222 12.2 386.222 9.82ZM400.618 4.42C397.898 4.42 396.338 5.58 396.218 7.88H397.918C397.998 6.54 398.818 5.92 400.498 5.92C402.098 5.92 402.798 6.48 402.798 7.62C402.798 8.36 402.398 8.72 400.898 8.9C398.678 9.18 397.298 9.58 396.718 10.14C396.118 10.68 395.818 11.42 395.818 12.34C395.818 14.2 397.118 15.24 399.238 15.24C400.758 15.24 401.978 14.7 402.878 13.64C402.878 14.72 403.398 15.24 404.318 15.24C404.798 15.24 405.218 15.14 405.538 14.96V13.64C405.378 13.7 405.178 13.74 405.018 13.74C404.658 13.74 404.478 13.54 404.478 13.16V7.2C404.478 5.58 403.538 4.42 400.618 4.42ZM397.618 12.22C397.618 11.14 398.338 10.56 399.838 10.34L401.578 10.08C402.038 10.02 402.498 9.86 402.778 9.66V11.44C402.778 12.58 401.598 13.74 399.618 13.74C398.358 13.74 397.618 13.18 397.618 12.22ZM412.26 4.42C410.64 4.42 409.5 5.2 408.7 6.84H408.66V4.66H407.06V15H408.76V10.38C408.76 7.54 409.96 6.22 412.5 6.22V4.42C412.4 4.42 412.34 4.42 412.26 4.42ZM418.02 4.42C415.3 4.42 413.74 5.58 413.62 7.88H415.32C415.4 6.54 416.22 5.92 417.9 5.92C419.5 5.92 420.2 6.48 420.2 7.62C420.2 8.36 419.8 8.72 418.3 8.9C416.08 9.18 414.7 9.58 414.12 10.14C413.52 10.68 413.22 11.42 413.22 12.34C413.22 14.2 414.52 15.24 416.64 15.24C418.16 15.24 419.38 14.7 420.28 13.64C420.28 14.72 420.8 15.24 421.72 15.24C422.2 15.24 422.62 15.14 422.94 14.96V13.64C422.78 13.7 422.58 13.74 422.42 13.74C422.06 13.74 421.88 13.54 421.88 13.16V7.2C421.88 5.58 420.94 4.42 418.02 4.42ZM415.02 12.22C415.02 11.14 415.74 10.56 417.24 10.34L418.98 10.08C419.44 10.02 419.9 9.86 420.18 9.66V11.44C420.18 12.58 419 13.74 417.02 13.74C415.76 13.74 415.02 13.18 415.02 12.22ZM435.229 4.42C433.609 4.42 432.469 5.2 431.669 6.84H431.629V4.66H430.029V15H431.729V10.38C431.729 7.54 432.929 6.22 435.469 6.22V4.42C435.369 4.42 435.309 4.42 435.229 4.42ZM440.697 4.42C439.297 4.42 438.117 4.94 437.197 5.96C436.277 6.98 435.837 8.24 435.837 9.76C435.837 11.56 436.537 13.52 438.057 14.52C438.797 15 439.717 15.24 440.797 15.24C443.137 15.24 444.757 14.02 445.217 11.72H443.537C443.257 13 442.377 13.74 440.857 13.74C438.857 13.74 437.637 12.44 437.637 10.46V10.34H445.377V10.14C445.377 8.46 444.977 7.08 444.157 6.02C443.337 4.96 442.177 4.42 440.697 4.42ZM437.637 8.84C437.777 7.08 438.977 5.92 440.577 5.92C442.257 5.92 443.477 7.18 443.577 8.84H437.637ZM454.679 0.719999V6.04H454.639C453.999 5 452.619 4.42 451.279 4.42C448.319 4.42 446.579 6.64 446.579 9.8C446.579 13.02 448.439 15.24 451.339 15.24C452.879 15.24 454.099 14.66 454.639 13.6H454.679V15H456.379V0.719999H454.679ZM448.379 9.92C448.379 7.46 449.499 5.92 451.459 5.92C453.559 5.92 454.739 7.5 454.739 9.84C454.739 12.12 453.619 13.74 451.579 13.74C449.579 13.74 448.379 12.1 448.379 9.92ZM458.995 4.66V11.56C458.995 13.98 460.135 15.24 462.555 15.24C463.995 15.24 465.175 14.68 465.915 13.36H465.955V15H467.555V4.66H465.855V10.56C465.855 12.44 464.775 13.74 462.795 13.74C461.495 13.74 460.695 12.9 460.695 11.7V4.66H458.995ZM474.428 4.42C471.388 4.42 469.548 6.6 469.548 9.96C469.548 13.2 471.368 15.24 474.388 15.24C476.968 15.24 478.568 13.8 478.948 11.22H477.208C476.988 12.8 476.008 13.74 474.368 13.74C472.488 13.74 471.348 12.22 471.348 9.96C471.348 7.4 472.468 5.92 474.568 5.92C475.928 5.92 476.848 6.64 477.128 7.98H478.888C478.608 5.62 476.928 4.42 474.428 4.42ZM480.95 0.719999V2.8H482.65V0.719999H480.95ZM480.95 4.66V15H482.65V4.66H480.95ZM490.424 4.42C488.804 4.42 487.664 5.2 486.864 6.84H486.824V4.66H485.224V15H486.924V10.38C486.924 7.54 488.124 6.22 490.664 6.22V4.42C490.564 4.42 490.504 4.42 490.424 4.42ZM502.51 4.42C500.99 4.42 499.91 5 499.15 6.3H499.11V4.66H497.51V15H499.21V9.1C499.21 7.22 500.31 5.92 502.25 5.92C503.63 5.92 504.37 6.8 504.37 7.94V15H506.07V8.12C506.07 5.74 505.01 4.42 502.51 4.42ZM508.624 4.66V11.56C508.624 13.98 509.764 15.24 512.184 15.24C513.624 15.24 514.804 14.68 515.544 13.36H515.584V15H517.184V4.66H515.484V10.56C515.484 12.44 514.404 13.74 512.424 13.74C511.124 13.74 510.324 12.9 510.324 11.7V4.66H508.624ZM524.037 4.42C522.637 4.42 521.457 4.94 520.537 5.96C519.617 6.98 519.177 8.24 519.177 9.76C519.177 11.56 519.877 13.52 521.397 14.52C522.137 15 523.057 15.24 524.137 15.24C526.477 15.24 528.097 14.02 528.557 11.72H526.877C526.597 13 525.717 13.74 524.197 13.74C522.197 13.74 520.977 12.44 520.977 10.46V10.34H528.717V10.14C528.717 8.46 528.317 7.08 527.497 6.02C526.677 4.96 525.517 4.42 524.037 4.42ZM520.977 8.84C521.117 7.08 522.317 5.92 523.917 5.92C525.597 5.92 526.817 7.18 526.917 8.84H520.977ZM533.919 4.42C531.659 4.42 530.039 5.54 530.039 7.36C530.039 8.9 530.919 9.74 533.579 10.3C534.879 10.58 535.739 10.84 536.159 11.1C536.579 11.36 536.799 11.74 536.799 12.2C536.799 13.22 535.939 13.74 534.299 13.74C532.579 13.74 531.559 13.02 531.519 11.74H529.819C529.919 14.06 531.579 15.24 534.199 15.24C536.899 15.24 538.599 14.02 538.599 11.98C538.599 10.42 537.539 9.56 535.539 9.12L533.939 8.76C532.539 8.44 531.839 8 531.839 7.24C531.839 6.4 532.679 5.92 534.039 5.92C535.399 5.92 536.339 6.54 536.439 7.64V7.66H538.139C537.999 5.5 536.699 4.42 533.919 4.42ZM541.139 1.56V4.66H539.379V6.16H541.139V12.84C541.139 14.4 541.619 15 543.499 15H544.899V13.5H544.419C544.059 13.5 543.699 13.48 543.359 13.46C542.999 13.42 542.839 13.16 542.839 12.64V6.16H544.899V4.66H542.839V1.56H541.139ZM551.928 4.42C550.308 4.42 549.168 5.2 548.368 6.84H548.328V4.66H546.728V15H548.428V10.38C548.428 7.54 549.628 6.22 552.168 6.22V4.42C552.068 4.42 552.008 4.42 551.928 4.42ZM557.556 4.42C554.456 4.42 552.536 6.54 552.536 9.84C552.536 13.14 554.556 15.24 557.556 15.24C560.596 15.24 562.576 13.04 562.576 9.84C562.576 6.68 560.736 4.42 557.556 4.42ZM554.336 9.84C554.336 7.44 555.736 5.92 557.536 5.92C559.416 5.92 560.776 7.5 560.776 9.84C560.776 12.18 559.416 13.74 557.556 13.74C555.676 13.74 554.336 12.18 554.336 9.84ZM0.0128126 23.72V25.8H1.71281V23.72H0.0128126ZM0.0128126 27.66V38H1.71281V27.66H0.0128126ZM9.32641 27.42C7.86641 27.42 6.76641 28 5.98641 29.18H5.94641V27.66H4.34641V38H6.04641V31.52C6.04641 30.92 6.54641 29.84 7.36641 29.32C7.78641 29.06 8.26641 28.92 8.80641 28.92C10.1464 28.92 10.7464 29.66 10.7464 31.14V38H12.4464V31.5C12.4464 30.06 13.4464 28.92 15.1464 28.92C16.5464 28.92 17.1464 29.66 17.1464 31.14V38H18.8464V30.36C18.8464 28.56 17.7464 27.42 15.4264 27.42C14.0464 27.42 12.8664 28.08 12.1664 29.18C11.8064 28.06 10.8464 27.42 9.32641 27.42ZM26.4972 27.42C24.9172 27.42 23.7372 28 23.1972 29.06H23.1572V27.66H21.4572V41.96H23.1572V36.62H23.1972C23.9172 37.72 25.2572 38.24 26.5372 38.24C29.4572 38.24 31.2572 36.02 31.2572 32.86C31.2572 29.68 29.4972 27.42 26.4972 27.42ZM23.0972 32.82C23.0972 30.56 24.1972 28.92 26.2372 28.92C28.2572 28.92 29.4572 30.56 29.4572 32.74C29.4572 35.26 28.3172 36.74 26.3572 36.74C24.2972 36.74 23.0972 35.2 23.0972 32.82ZM37.4927 27.42C34.7727 27.42 33.2127 28.58 33.0927 30.88H34.7927C34.8727 29.54 35.6927 28.92 37.3727 28.92C38.9727 28.92 39.6727 29.48 39.6727 30.62C39.6727 31.36 39.2727 31.72 37.7727 31.9C35.5527 32.18 34.1727 32.58 33.5927 33.14C32.9927 33.68 32.6927 34.42 32.6927 35.34C32.6927 37.2 33.9927 38.24 36.1127 38.24C37.6327 38.24 38.8527 37.7 39.7527 36.64C39.7527 37.72 40.2727 38.24 41.1927 38.24C41.6727 38.24 42.0927 38.14 42.4127 37.96V36.64C42.2527 36.7 42.0527 36.74 41.8927 36.74C41.5327 36.74 41.3527 36.54 41.3527 36.16V30.2C41.3527 28.58 40.4127 27.42 37.4927 27.42ZM34.4927 35.22C34.4927 34.14 35.2127 33.56 36.7127 33.34L38.4527 33.08C38.9127 33.02 39.3727 32.86 39.6527 32.66V34.44C39.6527 35.58 38.4727 36.74 36.4927 36.74C35.2327 36.74 34.4927 36.18 34.4927 35.22ZM48.3148 27.42C45.2748 27.42 43.4348 29.6 43.4348 32.96C43.4348 36.2 45.2548 38.24 48.2748 38.24C50.8548 38.24 52.4548 36.8 52.8348 34.22H51.0948C50.8748 35.8 49.8948 36.74 48.2548 36.74C46.3748 36.74 45.2348 35.22 45.2348 32.96C45.2348 30.4 46.3548 28.92 48.4548 28.92C49.8148 28.92 50.7348 29.64 51.0148 30.98H52.7748C52.4948 28.62 50.8148 27.42 48.3148 27.42ZM55.397 24.56V27.66H53.637V29.16H55.397V35.84C55.397 37.4 55.877 38 57.757 38H59.157V36.5H58.677C58.317 36.5 57.957 36.48 57.617 36.46C57.257 36.42 57.097 36.16 57.097 35.64V29.16H59.157V27.66H57.097V24.56H55.397ZM65.5056 27.42C62.4056 27.42 60.4856 29.54 60.4856 32.84C60.4856 36.14 62.5056 38.24 65.5056 38.24C68.5456 38.24 70.5256 36.04 70.5256 32.84C70.5256 29.68 68.6856 27.42 65.5056 27.42ZM62.2856 32.84C62.2856 30.44 63.6856 28.92 65.4856 28.92C67.3656 28.92 68.7256 30.5 68.7256 32.84C68.7256 35.18 67.3656 36.74 65.5056 36.74C63.6256 36.74 62.2856 35.18 62.2856 32.84ZM82.3964 27.42C80.9964 27.42 79.8164 27.94 78.8964 28.96C77.9764 29.98 77.5364 31.24 77.5364 32.76C77.5364 34.56 78.2364 36.52 79.7564 37.52C80.4964 38 81.4164 38.24 82.4964 38.24C84.8364 38.24 86.4564 37.02 86.9164 34.72H85.2364C84.9564 36 84.0764 36.74 82.5564 36.74C80.5564 36.74 79.3364 35.44 79.3364 33.46V33.34H87.0764V33.14C87.0764 31.46 86.6764 30.08 85.8564 29.02C85.0364 27.96 83.8764 27.42 82.3964 27.42ZM79.3364 31.84C79.4764 30.08 80.6764 28.92 82.2764 28.92C83.9564 28.92 85.1764 30.18 85.2764 31.84H79.3364ZM93.8386 27.42C92.3186 27.42 91.2386 28 90.4786 29.3H90.4386V27.66H88.8386V38H90.5386V32.1C90.5386 30.22 91.6386 28.92 93.5786 28.92C94.9586 28.92 95.6986 29.8 95.6986 30.94V38H97.3986V31.12C97.3986 28.74 96.3386 27.42 93.8386 27.42ZM104.252 27.42C102.852 27.42 101.672 27.94 100.752 28.96C99.8319 29.98 99.3919 31.24 99.3919 32.76C99.3919 34.56 100.092 36.52 101.612 37.52C102.352 38 103.272 38.24 104.352 38.24C106.692 38.24 108.312 37.02 108.772 34.72H107.092C106.812 36 105.932 36.74 104.412 36.74C102.412 36.74 101.192 35.44 101.192 33.46V33.34H108.932V33.14C108.932 31.46 108.532 30.08 107.712 29.02C106.892 27.96 105.732 27.42 104.252 27.42ZM101.192 31.84C101.332 30.08 102.532 28.92 104.132 28.92C105.812 28.92 107.032 30.18 107.132 31.84H101.192ZM115.834 27.42C114.214 27.42 113.074 28.2 112.274 29.84H112.234V27.66H110.634V38H112.334V33.38C112.334 30.54 113.534 29.22 116.074 29.22V27.42C115.974 27.42 115.914 27.42 115.834 27.42ZM120.988 27.42C117.948 27.42 116.228 29.74 116.228 32.88C116.228 36 118.048 38.12 120.848 38.12C122.288 38.12 123.548 37.38 124.068 36.24H124.108V36.88C124.108 39.5 123.008 40.84 121.008 40.84C119.688 40.84 118.388 40.24 118.328 39.16H116.628C116.728 41.16 118.588 42.2 120.928 42.2C124.168 42.2 125.708 40.48 125.708 37.22V27.66H124.108V29.14H124.088C123.508 28.1 122.448 27.42 120.988 27.42ZM118.028 32.68C118.028 30.42 119.168 28.92 121.068 28.92C122.968 28.92 124.028 30.44 124.028 32.62C124.028 35.02 122.828 36.62 120.948 36.62C119.088 36.62 118.028 35.1 118.028 32.68ZM132.572 27.42C131.172 27.42 129.992 27.94 129.072 28.96C128.152 29.98 127.712 31.24 127.712 32.76C127.712 34.56 128.412 36.52 129.932 37.52C130.672 38 131.592 38.24 132.672 38.24C135.012 38.24 136.632 37.02 137.092 34.72H135.412C135.132 36 134.252 36.74 132.732 36.74C130.732 36.74 129.512 35.44 129.512 33.46V33.34H137.252V33.14C137.252 31.46 136.852 30.08 136.032 29.02C135.212 27.96 134.052 27.42 132.572 27.42ZM129.512 31.84C129.652 30.08 130.852 28.92 132.452 28.92C134.132 28.92 135.352 30.18 135.452 31.84H129.512ZM133.332 23.36L131.612 26.22H132.892L135.512 23.36H133.332ZM139.674 24.56V27.66H137.914V29.16H139.674V35.84C139.674 37.4 140.154 38 142.034 38H143.434V36.5H142.954C142.594 36.5 142.234 36.48 141.894 36.46C141.534 36.42 141.374 36.16 141.374 35.64V29.16H143.434V27.66H141.374V24.56H139.674ZM145.423 23.72V25.8H147.123V23.72H145.423ZM145.423 27.66V38H147.123V27.66H145.423ZM154.077 27.42C151.037 27.42 149.197 29.6 149.197 32.96C149.197 36.2 151.017 38.24 154.037 38.24C156.617 38.24 158.217 36.8 158.597 34.22H156.857C156.637 35.8 155.657 36.74 154.017 36.74C152.137 36.74 150.997 35.22 150.997 32.96C150.997 30.4 152.117 28.92 154.217 28.92C155.577 28.92 156.497 29.64 156.777 30.98H158.537C158.257 28.62 156.577 27.42 154.077 27.42ZM164.959 27.42C161.859 27.42 159.939 29.54 159.939 32.84C159.939 36.14 161.959 38.24 164.959 38.24C167.999 38.24 169.979 36.04 169.979 32.84C169.979 29.68 168.139 27.42 164.959 27.42ZM161.739 32.84C161.739 30.44 163.139 28.92 164.939 28.92C166.819 28.92 168.179 30.5 168.179 32.84C168.179 35.18 166.819 36.74 164.959 36.74C163.079 36.74 161.739 35.18 161.739 32.84ZM172.363 35.78V38H174.583V35.78H172.363ZM181.876 23.72V25.32H186.636V38H188.536V25.32H193.296V23.72H181.876ZM196.834 27.42C193.734 27.42 191.814 29.54 191.814 32.84C191.814 36.14 193.834 38.24 196.834 38.24C199.874 38.24 201.854 36.04 201.854 32.84C201.854 29.68 200.014 27.42 196.834 27.42ZM193.614 32.84C193.614 30.44 195.014 28.92 196.814 28.92C198.694 28.92 200.054 30.5 200.054 32.84C200.054 35.18 198.694 36.74 196.834 36.74C194.954 36.74 193.614 35.18 193.614 32.84ZM211.398 23.72V29.04H211.358C210.718 28 209.338 27.42 207.998 27.42C205.038 27.42 203.298 29.64 203.298 32.8C203.298 36.02 205.158 38.24 208.058 38.24C209.598 38.24 210.818 37.66 211.358 36.6H211.398V38H213.098V23.72H211.398ZM205.098 32.92C205.098 30.46 206.218 28.92 208.178 28.92C210.278 28.92 211.458 30.5 211.458 32.84C211.458 35.12 210.338 36.74 208.298 36.74C206.298 36.74 205.098 35.1 205.098 32.92ZM219.954 27.42C217.234 27.42 215.674 28.58 215.554 30.88H217.254C217.334 29.54 218.154 28.92 219.834 28.92C221.434 28.92 222.134 29.48 222.134 30.62C222.134 31.36 221.734 31.72 220.234 31.9C218.014 32.18 216.634 32.58 216.054 33.14C215.454 33.68 215.154 34.42 215.154 35.34C215.154 37.2 216.454 38.24 218.574 38.24C220.094 38.24 221.314 37.7 222.214 36.64C222.214 37.72 222.734 38.24 223.654 38.24C224.134 38.24 224.554 38.14 224.874 37.96V36.64C224.714 36.7 224.514 36.74 224.354 36.74C223.994 36.74 223.814 36.54 223.814 36.16V30.2C223.814 28.58 222.874 27.42 219.954 27.42ZM216.954 35.22C216.954 34.14 217.674 33.56 219.174 33.34L220.914 33.08C221.374 33.02 221.834 32.86 222.114 32.66V34.44C222.114 35.58 220.934 36.74 218.954 36.74C217.694 36.74 216.954 36.18 216.954 35.22ZM229.896 27.42C227.636 27.42 226.016 28.54 226.016 30.36C226.016 31.9 226.896 32.74 229.556 33.3C230.856 33.58 231.716 33.84 232.136 34.1C232.556 34.36 232.776 34.74 232.776 35.2C232.776 36.22 231.916 36.74 230.276 36.74C228.556 36.74 227.536 36.02 227.496 34.74H225.796C225.896 37.06 227.556 38.24 230.176 38.24C232.876 38.24 234.576 37.02 234.576 34.98C234.576 33.42 233.516 32.56 231.516 32.12L229.916 31.76C228.516 31.44 227.816 31 227.816 30.24C227.816 29.4 228.656 28.92 230.016 28.92C231.376 28.92 232.316 29.54 232.416 30.64V30.66H234.116C233.976 28.5 232.676 27.42 229.896 27.42ZM247.022 27.42C245.502 27.42 244.422 28 243.662 29.3H243.622V27.66H242.022V38H243.722V32.1C243.722 30.22 244.822 28.92 246.762 28.92C248.142 28.92 248.882 29.8 248.882 30.94V38H250.582V31.12C250.582 28.74 249.522 27.42 247.022 27.42ZM253.135 27.66V34.56C253.135 36.98 254.275 38.24 256.695 38.24C258.135 38.24 259.315 37.68 260.055 36.36H260.095V38H261.695V27.66H259.995V33.56C259.995 35.44 258.915 36.74 256.935 36.74C255.635 36.74 254.835 35.9 254.835 34.7V27.66H253.135ZM268.549 27.42C267.149 27.42 265.969 27.94 265.049 28.96C264.129 29.98 263.689 31.24 263.689 32.76C263.689 34.56 264.389 36.52 265.909 37.52C266.649 38 267.569 38.24 268.649 38.24C270.989 38.24 272.609 37.02 273.069 34.72H271.389C271.109 36 270.229 36.74 268.709 36.74C266.709 36.74 265.489 35.44 265.489 33.46V33.34H273.229V33.14C273.229 31.46 272.829 30.08 272.009 29.02C271.189 27.96 270.029 27.42 268.549 27.42ZM265.489 31.84C265.629 30.08 266.829 28.92 268.429 28.92C270.109 28.92 271.329 30.18 271.429 31.84H265.489ZM278.431 27.42C276.171 27.42 274.551 28.54 274.551 30.36C274.551 31.9 275.431 32.74 278.091 33.3C279.391 33.58 280.251 33.84 280.671 34.1C281.091 34.36 281.311 34.74 281.311 35.2C281.311 36.22 280.451 36.74 278.811 36.74C277.091 36.74 276.071 36.02 276.031 34.74H274.331C274.431 37.06 276.091 38.24 278.711 38.24C281.411 38.24 283.111 37.02 283.111 34.98C283.111 33.42 282.051 32.56 280.051 32.12L278.451 31.76C277.051 31.44 276.351 31 276.351 30.24C276.351 29.4 277.191 28.92 278.551 28.92C279.911 28.92 280.851 29.54 280.951 30.64V30.66H282.651C282.511 28.5 281.211 27.42 278.431 27.42ZM285.651 24.56V27.66H283.891V29.16H285.651V35.84C285.651 37.4 286.131 38 288.011 38H289.411V36.5H288.931C288.571 36.5 288.211 36.48 287.871 36.46C287.511 36.42 287.351 36.16 287.351 35.64V29.16H289.411V27.66H287.351V24.56H285.651ZM296.44 27.42C294.82 27.42 293.68 28.2 292.88 29.84H292.84V27.66H291.24V38H292.94V33.38C292.94 30.54 294.14 29.22 296.68 29.22V27.42C296.58 27.42 296.52 27.42 296.44 27.42ZM302.2 27.42C299.48 27.42 297.92 28.58 297.8 30.88H299.5C299.58 29.54 300.4 28.92 302.08 28.92C303.68 28.92 304.38 29.48 304.38 30.62C304.38 31.36 303.98 31.72 302.48 31.9C300.26 32.18 298.88 32.58 298.3 33.14C297.7 33.68 297.4 34.42 297.4 35.34C297.4 37.2 298.7 38.24 300.82 38.24C302.34 38.24 303.56 37.7 304.46 36.64C304.46 37.72 304.98 38.24 305.9 38.24C306.38 38.24 306.8 38.14 307.12 37.96V36.64C306.96 36.7 306.76 36.74 306.6 36.74C306.24 36.74 306.06 36.54 306.06 36.16V30.2C306.06 28.58 305.12 27.42 302.2 27.42ZM299.2 35.22C299.2 34.14 299.92 33.56 301.42 33.34L303.16 33.08C303.62 33.02 304.08 32.86 304.36 32.66V34.44C304.36 35.58 303.18 36.74 301.2 36.74C299.94 36.74 299.2 36.18 299.2 35.22ZM312.142 27.42C309.882 27.42 308.262 28.54 308.262 30.36C308.262 31.9 309.142 32.74 311.802 33.3C313.102 33.58 313.962 33.84 314.382 34.1C314.802 34.36 315.022 34.74 315.022 35.2C315.022 36.22 314.162 36.74 312.522 36.74C310.802 36.74 309.782 36.02 309.742 34.74H308.042C308.142 37.06 309.802 38.24 312.422 38.24C315.122 38.24 316.822 37.02 316.822 34.98C316.822 33.42 315.762 32.56 313.762 32.12L312.162 31.76C310.762 31.44 310.062 31 310.062 30.24C310.062 29.4 310.902 28.92 312.262 28.92C313.622 28.92 314.562 29.54 314.662 30.64V30.66H316.362C316.222 28.5 314.922 27.42 312.142 27.42ZM324.928 24.56V27.66H323.168V29.16H324.928V35.84C324.928 37.4 325.408 38 327.288 38H328.688V36.5H328.208C327.848 36.5 327.488 36.48 327.148 36.46C326.788 36.42 326.628 36.16 326.628 35.64V29.16H328.688V27.66H326.628V24.56H324.928ZM330.677 23.72V25.8H332.377V23.72H330.677ZM330.677 27.66V38H332.377V27.66H330.677ZM339.31 27.42C337.91 27.42 336.73 27.94 335.81 28.96C334.89 29.98 334.45 31.24 334.45 32.76C334.45 34.56 335.15 36.52 336.67 37.52C337.41 38 338.33 38.24 339.41 38.24C341.75 38.24 343.37 37.02 343.83 34.72H342.15C341.87 36 340.99 36.74 339.47 36.74C337.47 36.74 336.25 35.44 336.25 33.46V33.34H343.99V33.14C343.99 31.46 343.59 30.08 342.77 29.02C341.95 27.96 340.79 27.42 339.31 27.42ZM336.25 31.84C336.39 30.08 337.59 28.92 339.19 28.92C340.87 28.92 342.09 30.18 342.19 31.84H336.25ZM350.753 27.42C349.233 27.42 348.153 28 347.393 29.3H347.353V27.66H345.753V38H347.453V32.1C347.453 30.22 348.553 28.92 350.493 28.92C351.873 28.92 352.613 29.8 352.613 30.94V38H354.313V31.12C354.313 28.74 353.253 27.42 350.753 27.42ZM364.406 23.72V29.04H364.366C363.726 28 362.346 27.42 361.006 27.42C358.046 27.42 356.306 29.64 356.306 32.8C356.306 36.02 358.166 38.24 361.066 38.24C362.606 38.24 363.826 37.66 364.366 36.6H364.406V38H366.106V23.72H364.406ZM358.106 32.92C358.106 30.46 359.226 28.92 361.186 28.92C363.286 28.92 364.466 30.5 364.466 32.84C364.466 35.12 363.346 36.74 361.306 36.74C359.306 36.74 358.106 35.1 358.106 32.92ZM372.961 27.42C370.241 27.42 368.681 28.58 368.561 30.88H370.261C370.341 29.54 371.161 28.92 372.841 28.92C374.441 28.92 375.141 29.48 375.141 30.62C375.141 31.36 374.741 31.72 373.241 31.9C371.021 32.18 369.641 32.58 369.061 33.14C368.461 33.68 368.161 34.42 368.161 35.34C368.161 37.2 369.461 38.24 371.581 38.24C373.101 38.24 374.321 37.7 375.221 36.64C375.221 37.72 375.741 38.24 376.661 38.24C377.141 38.24 377.561 38.14 377.881 37.96V36.64C377.721 36.7 377.521 36.74 377.361 36.74C377.001 36.74 376.821 36.54 376.821 36.16V30.2C376.821 28.58 375.881 27.42 372.961 27.42ZM369.961 35.22C369.961 34.14 370.681 33.56 372.181 33.34L373.921 33.08C374.381 33.02 374.841 32.86 375.121 32.66V34.44C375.121 35.58 373.941 36.74 371.961 36.74C370.701 36.74 369.961 36.18 369.961 35.22ZM382.904 27.42C380.644 27.42 379.024 28.54 379.024 30.36C379.024 31.9 379.904 32.74 382.564 33.3C383.864 33.58 384.724 33.84 385.144 34.1C385.564 34.36 385.784 34.74 385.784 35.2C385.784 36.22 384.924 36.74 383.284 36.74C381.564 36.74 380.544 36.02 380.504 34.74H378.804C378.904 37.06 380.564 38.24 383.184 38.24C385.884 38.24 387.584 37.02 387.584 34.98C387.584 33.42 386.524 32.56 384.524 32.12L382.924 31.76C381.524 31.44 380.824 31 380.824 30.24C380.824 29.4 381.664 28.92 383.024 28.92C384.384 28.92 385.324 29.54 385.424 30.64V30.66H387.124C386.984 28.5 385.684 27.42 382.904 27.42ZM398.47 27.42C396.21 27.42 394.59 28.54 394.59 30.36C394.59 31.9 395.47 32.74 398.13 33.3C399.43 33.58 400.29 33.84 400.71 34.1C401.13 34.36 401.35 34.74 401.35 35.2C401.35 36.22 400.49 36.74 398.85 36.74C397.13 36.74 396.11 36.02 396.07 34.74H394.37C394.47 37.06 396.13 38.24 398.75 38.24C401.45 38.24 403.15 37.02 403.15 34.98C403.15 33.42 402.09 32.56 400.09 32.12L398.49 31.76C397.09 31.44 396.39 31 396.39 30.24C396.39 29.4 397.23 28.92 398.59 28.92C399.95 28.92 400.89 29.54 400.99 30.64V30.66H402.69C402.55 28.5 401.25 27.42 398.47 27.42ZM409.49 27.42C406.39 27.42 404.47 29.54 404.47 32.84C404.47 36.14 406.49 38.24 409.49 38.24C412.53 38.24 414.51 36.04 414.51 32.84C414.51 29.68 412.67 27.42 409.49 27.42ZM406.27 32.84C406.27 30.44 407.67 28.92 409.47 28.92C411.35 28.92 412.71 30.5 412.71 32.84C412.71 35.18 411.35 36.74 409.49 36.74C407.61 36.74 406.27 35.18 406.27 32.84ZM421.514 27.42C419.994 27.42 418.914 28 418.154 29.3H418.114V27.66H416.514V38H418.214V32.1C418.214 30.22 419.314 28.92 421.254 28.92C422.634 28.92 423.374 29.8 423.374 30.94V38H425.074V31.12C425.074 28.74 424.014 27.42 421.514 27.42ZM437.494 27.42C436.094 27.42 434.914 27.94 433.994 28.96C433.074 29.98 432.634 31.24 432.634 32.76C432.634 34.56 433.334 36.52 434.854 37.52C435.594 38 436.514 38.24 437.594 38.24C439.934 38.24 441.554 37.02 442.014 34.72H440.334C440.054 36 439.174 36.74 437.654 36.74C435.654 36.74 434.434 35.44 434.434 33.46V33.34H442.174V33.14C442.174 31.46 441.774 30.08 440.954 29.02C440.134 27.96 438.974 27.42 437.494 27.42ZM434.434 31.84C434.574 30.08 435.774 28.92 437.374 28.92C439.054 28.92 440.274 30.18 440.374 31.84H434.434ZM448.256 27.42C445.216 27.42 443.376 29.6 443.376 32.96C443.376 36.2 445.196 38.24 448.216 38.24C450.796 38.24 452.396 36.8 452.776 34.22H451.036C450.816 35.8 449.836 36.74 448.196 36.74C446.316 36.74 445.176 35.22 445.176 32.96C445.176 30.4 446.296 28.92 448.396 28.92C449.756 28.92 450.676 29.64 450.956 30.98H452.716C452.436 28.62 450.756 27.42 448.256 27.42ZM459.138 27.42C456.038 27.42 454.118 29.54 454.118 32.84C454.118 36.14 456.138 38.24 459.138 38.24C462.178 38.24 464.158 36.04 464.158 32.84C464.158 29.68 462.318 27.42 459.138 27.42ZM455.918 32.84C455.918 30.44 457.318 28.92 459.118 28.92C460.998 28.92 462.358 30.5 462.358 32.84C462.358 35.18 460.998 36.74 459.138 36.74C457.258 36.74 455.918 35.18 455.918 32.84ZM470.463 27.42C469.063 27.42 467.883 27.94 466.963 28.96C466.043 29.98 465.603 31.24 465.603 32.76C465.603 34.56 466.303 36.52 467.823 37.52C468.563 38 469.483 38.24 470.563 38.24C472.903 38.24 474.523 37.02 474.983 34.72H473.303C473.023 36 472.143 36.74 470.623 36.74C468.623 36.74 467.403 35.44 467.403 33.46V33.34H475.143V33.14C475.143 31.46 474.743 30.08 473.923 29.02C473.103 27.96 471.943 27.42 470.463 27.42ZM467.403 31.84C467.543 30.08 468.743 28.92 470.343 28.92C472.023 28.92 473.243 30.18 473.343 31.84H467.403ZM480.445 23.56C478.565 23.56 477.605 24.52 477.605 26.04V27.66H475.865V29.16H477.605V38H479.305V29.16H481.305V27.66H479.305V26.18C479.305 25.48 479.665 25.06 480.605 25.06C480.865 25.06 481.305 25.1 481.565 25.2V23.72C481.325 23.64 480.705 23.56 480.445 23.56ZM482.925 23.72V25.8H484.625V23.72H482.925ZM482.925 27.66V38H484.625V27.66H482.925ZM491.577 27.42C488.537 27.42 486.697 29.6 486.697 32.96C486.697 36.2 488.517 38.24 491.537 38.24C494.117 38.24 495.717 36.8 496.097 34.22H494.357C494.137 35.8 493.157 36.74 491.517 36.74C489.637 36.74 488.497 35.22 488.497 32.96C488.497 30.4 489.617 28.92 491.717 28.92C493.077 28.92 493.997 29.64 494.277 30.98H496.037C495.757 28.62 494.077 27.42 491.577 27.42ZM498.099 23.72V25.8H499.799V23.72H498.099ZM498.099 27.66V38H499.799V27.66H498.099ZM506.732 27.42C505.332 27.42 504.152 27.94 503.232 28.96C502.312 29.98 501.872 31.24 501.872 32.76C501.872 34.56 502.572 36.52 504.092 37.52C504.832 38 505.752 38.24 506.832 38.24C509.172 38.24 510.792 37.02 511.252 34.72H509.572C509.292 36 508.412 36.74 506.892 36.74C504.892 36.74 503.672 35.44 503.672 33.46V33.34H511.412V33.14C511.412 31.46 511.012 30.08 510.192 29.02C509.372 27.96 508.212 27.42 506.732 27.42ZM503.672 31.84C503.812 30.08 505.012 28.92 506.612 28.92C508.292 28.92 509.512 30.18 509.612 31.84H503.672ZM518.175 27.42C516.655 27.42 515.575 28 514.815 29.3H514.775V27.66H513.175V38H514.875V32.1C514.875 30.22 515.975 28.92 517.915 28.92C519.295 28.92 520.035 29.8 520.035 30.94V38H521.735V31.12C521.735 28.74 520.675 27.42 518.175 27.42ZM524.948 24.56V27.66H523.188V29.16H524.948V35.84C524.948 37.4 525.428 38 527.308 38H528.708V36.5H528.228C527.868 36.5 527.508 36.48 527.168 36.46C526.808 36.42 526.648 36.16 526.648 35.64V29.16H528.708V27.66H526.648V24.56H524.948ZM534.896 27.42C533.496 27.42 532.316 27.94 531.396 28.96C530.476 29.98 530.036 31.24 530.036 32.76C530.036 34.56 530.736 36.52 532.256 37.52C532.996 38 533.916 38.24 534.996 38.24C537.336 38.24 538.956 37.02 539.416 34.72H537.736C537.456 36 536.576 36.74 535.056 36.74C533.056 36.74 531.836 35.44 531.836 33.46V33.34H539.576V33.14C539.576 31.46 539.176 30.08 538.356 29.02C537.536 27.96 536.376 27.42 534.896 27.42ZM531.836 31.84C531.976 30.08 533.176 28.92 534.776 28.92C536.456 28.92 537.676 30.18 537.776 31.84H531.836ZM544.779 27.42C542.519 27.42 540.899 28.54 540.899 30.36C540.899 31.9 541.779 32.74 544.439 33.3C545.739 33.58 546.599 33.84 547.019 34.1C547.439 34.36 547.659 34.74 547.659 35.2C547.659 36.22 546.799 36.74 545.159 36.74C543.439 36.74 542.419 36.02 542.379 34.74H540.679C540.779 37.06 542.439 38.24 545.059 38.24C547.759 38.24 549.459 37.02 549.459 34.98C549.459 33.42 548.399 32.56 546.399 32.12L544.799 31.76C543.399 31.44 542.699 31 542.699 30.24C542.699 29.4 543.539 28.92 544.899 28.92C546.259 28.92 547.199 29.54 547.299 30.64V30.66H548.999C548.859 28.5 547.559 27.42 544.779 27.42ZM555.785 27.66L559.885 37.94L559.225 39.6C558.965 40.3 558.485 40.64 557.785 40.64C557.445 40.64 557.105 40.5 556.785 40.4V41.96C557.165 42.1 557.545 42.14 557.965 42.14C559.485 42.14 560.165 41.5 561.065 39.1L565.465 27.66H563.665L560.765 36.12H560.725L557.705 27.66H555.785ZM576.771 27.42C575.371 27.42 574.191 27.94 573.271 28.96C572.351 29.98 571.911 31.24 571.911 32.76C571.911 34.56 572.611 36.52 574.131 37.52C574.871 38 575.791 38.24 576.871 38.24C579.211 38.24 580.831 37.02 581.291 34.72H579.611C579.331 36 578.451 36.74 576.931 36.74C574.931 36.74 573.711 35.44 573.711 33.46V33.34H581.451V33.14C581.451 31.46 581.051 30.08 580.231 29.02C579.411 27.96 578.251 27.42 576.771 27.42ZM573.711 31.84C573.851 30.08 575.051 28.92 576.651 28.92C578.331 28.92 579.551 30.18 579.651 31.84H573.711ZM583.314 23.72V38H585.014V23.72H583.314ZM18.1833 46.82C17.8433 48.64 16.5433 49.48 14.1633 49.48H14.1033V50.84H17.7833V61H19.4833V46.82H18.1833ZM29.0366 46.82C27.4566 46.82 26.2966 47.34 25.4966 48.4C24.7166 49.44 24.3166 51.32 24.3166 54.04C24.3166 56.74 24.7166 58.62 25.4966 59.66C26.2766 60.72 27.4566 61.24 29.0366 61.24C30.6166 61.24 31.7966 60.7 32.5766 59.68C33.3766 58.64 33.7566 56.78 33.7566 54.04C33.7566 51.3 33.3566 49.4 32.5766 48.38C31.7766 47.34 30.6166 46.82 29.0366 46.82ZM26.1166 54.02C26.1166 51.76 26.3766 50.24 26.8766 49.48C27.3966 48.7 28.1166 48.32 29.0166 48.32C30.0166 48.32 30.6766 48.76 31.1166 49.4C31.9766 50.66 31.9566 52.76 31.9566 54.08C31.9566 56.04 31.7566 57.46 31.2966 58.38C30.8366 59.3 30.0766 59.74 29.0366 59.74C28.0766 59.74 27.3566 59.34 26.8566 58.56C26.3766 57.76 26.1166 56.26 26.1166 54.02ZM40.1498 46.82C38.5698 46.82 37.4098 47.34 36.6098 48.4C35.8298 49.44 35.4298 51.32 35.4298 54.04C35.4298 56.74 35.8298 58.62 36.6098 59.66C37.3898 60.72 38.5698 61.24 40.1498 61.24C41.7298 61.24 42.9098 60.7 43.6898 59.68C44.4898 58.64 44.8698 56.78 44.8698 54.04C44.8698 51.3 44.4698 49.4 43.6898 48.38C42.8898 47.34 41.7298 46.82 40.1498 46.82ZM37.2298 54.02C37.2298 51.76 37.4898 50.24 37.9898 49.48C38.5098 48.7 39.2298 48.32 40.1298 48.32C41.1298 48.32 41.7898 48.76 42.2298 49.4C43.0898 50.66 43.0698 52.76 43.0698 54.08C43.0698 56.04 42.8698 57.46 42.4098 58.38C41.9498 59.3 41.1898 59.74 40.1498 59.74C39.1898 59.74 38.4698 59.34 37.9698 58.56C37.4898 57.76 37.2298 56.26 37.2298 54.02ZM60.2231 46.56L49.4631 61.44H51.1831L61.9231 46.56H60.2231ZM50.7831 46.82C48.6631 46.82 47.5431 48.3 47.5431 50.88C47.5431 53.42 48.6631 54.84 50.7831 54.84C52.8231 54.84 53.9831 53.26 53.9831 50.82C53.9831 48.2 52.9431 46.82 50.7831 46.82ZM49.0431 50.86C49.0431 48.9 49.6831 47.92 50.7631 47.92C51.9031 47.92 52.4831 48.8 52.4831 50.82C52.4831 52.78 51.8631 53.74 50.7231 53.74C49.6631 53.74 49.0431 52.88 49.0431 50.86ZM60.6631 53.22C58.5631 53.22 57.4231 54.7 57.4231 57.28C57.4231 59.86 58.5831 61.24 60.6631 61.24C62.7231 61.24 63.8631 59.58 63.8631 57.22C63.8631 54.56 62.7831 53.22 60.6631 53.22ZM58.9231 57.24C58.9231 55.28 59.5631 54.32 60.6631 54.32C61.7831 54.32 62.3631 55.22 62.3631 57.22C62.3631 59.16 61.7831 60.14 60.6031 60.14C59.5231 60.14 58.9231 59.28 58.9231 57.24ZM80.0895 46.72V52.04H80.0495C79.4095 51 78.0295 50.42 76.6895 50.42C73.7295 50.42 71.9895 52.64 71.9895 55.8C71.9895 59.02 73.8495 61.24 76.7495 61.24C78.2895 61.24 79.5095 60.66 80.0495 59.6H80.0895V61H81.7895V46.72H80.0895ZM73.7895 55.92C73.7895 53.46 74.9095 51.92 76.8695 51.92C78.9695 51.92 80.1495 53.5 80.1495 55.84C80.1495 58.12 79.0295 59.74 76.9895 59.74C74.9895 59.74 73.7895 58.1 73.7895 55.92ZM88.705 50.42C87.305 50.42 86.125 50.94 85.205 51.96C84.285 52.98 83.845 54.24 83.845 55.76C83.845 57.56 84.545 59.52 86.065 60.52C86.805 61 87.725 61.24 88.805 61.24C91.145 61.24 92.765 60.02 93.225 57.72H91.545C91.265 59 90.385 59.74 88.865 59.74C86.865 59.74 85.645 58.44 85.645 56.46V56.34H93.385V56.14C93.385 54.46 92.985 53.08 92.165 52.02C91.345 50.96 90.185 50.42 88.705 50.42ZM85.645 54.84C85.785 53.08 86.985 51.92 88.585 51.92C90.265 51.92 91.485 53.18 91.585 54.84H85.645ZM100.814 46.72V61H102.514V46.72H100.814ZM109.387 50.42C106.667 50.42 105.107 51.58 104.987 53.88H106.687C106.767 52.54 107.587 51.92 109.267 51.92C110.867 51.92 111.567 52.48 111.567 53.62C111.567 54.36 111.167 54.72 109.667 54.9C107.447 55.18 106.067 55.58 105.487 56.14C104.887 56.68 104.587 57.42 104.587 58.34C104.587 60.2 105.887 61.24 108.007 61.24C109.527 61.24 110.747 60.7 111.647 59.64C111.647 60.72 112.167 61.24 113.087 61.24C113.567 61.24 113.987 61.14 114.307 60.96V59.64C114.147 59.7 113.947 59.74 113.787 59.74C113.427 59.74 113.247 59.54 113.247 59.16V53.2C113.247 51.58 112.307 50.42 109.387 50.42ZM106.387 58.22C106.387 57.14 107.107 56.56 108.607 56.34L110.347 56.08C110.807 56.02 111.267 55.86 111.547 55.66V57.44C111.547 58.58 110.367 59.74 108.387 59.74C107.127 59.74 106.387 59.18 106.387 58.22ZM125.756 50.42C124.356 50.42 123.176 50.94 122.256 51.96C121.336 52.98 120.896 54.24 120.896 55.76C120.896 57.56 121.596 59.52 123.116 60.52C123.856 61 124.776 61.24 125.856 61.24C128.196 61.24 129.816 60.02 130.276 57.72H128.596C128.316 59 127.436 59.74 125.916 59.74C123.916 59.74 122.696 58.44 122.696 56.46V56.34H130.436V56.14C130.436 54.46 130.036 53.08 129.216 52.02C128.396 50.96 127.236 50.42 125.756 50.42ZM122.696 54.84C122.836 53.08 124.036 51.92 125.636 51.92C127.316 51.92 128.536 53.18 128.636 54.84H122.696ZM137.198 50.42C135.678 50.42 134.598 51 133.838 52.3H133.798V50.66H132.198V61H133.898V55.1C133.898 53.22 134.998 51.92 136.938 51.92C138.318 51.92 139.058 52.8 139.058 53.94V61H140.758V54.12C140.758 51.74 139.698 50.42 137.198 50.42ZM147.611 50.42C146.211 50.42 145.031 50.94 144.111 51.96C143.191 52.98 142.751 54.24 142.751 55.76C142.751 57.56 143.451 59.52 144.971 60.52C145.711 61 146.631 61.24 147.711 61.24C150.051 61.24 151.671 60.02 152.131 57.72H150.451C150.171 59 149.291 59.74 147.771 59.74C145.771 59.74 144.551 58.44 144.551 56.46V56.34H152.291V56.14C152.291 54.46 151.891 53.08 151.071 52.02C150.251 50.96 149.091 50.42 147.611 50.42ZM144.551 54.84C144.691 53.08 145.891 51.92 147.491 51.92C149.171 51.92 150.391 53.18 150.491 54.84H144.551ZM159.193 50.42C157.573 50.42 156.433 51.2 155.633 52.84H155.593V50.66H153.993V61H155.693V56.38C155.693 53.54 156.893 52.22 159.433 52.22V50.42C159.333 50.42 159.273 50.42 159.193 50.42ZM164.347 50.42C161.307 50.42 159.587 52.74 159.587 55.88C159.587 59 161.407 61.12 164.207 61.12C165.647 61.12 166.907 60.38 167.427 59.24H167.467V59.88C167.467 62.5 166.367 63.84 164.367 63.84C163.047 63.84 161.747 63.24 161.687 62.16H159.987C160.087 64.16 161.947 65.2 164.287 65.2C167.527 65.2 169.067 63.48 169.067 60.22V50.66H167.467V52.14H167.447C166.867 51.1 165.807 50.42 164.347 50.42ZM161.387 55.68C161.387 53.42 162.527 51.92 164.427 51.92C166.327 51.92 167.387 53.44 167.387 55.62C167.387 58.02 166.187 59.62 164.307 59.62C162.447 59.62 161.387 58.1 161.387 55.68ZM171.732 50.66V61H173.432V50.66H171.732ZM173.312 46.36L171.592 49.22H172.872L175.492 46.36H173.312ZM180.305 50.42C177.585 50.42 176.025 51.58 175.905 53.88H177.605C177.685 52.54 178.505 51.92 180.185 51.92C181.785 51.92 182.485 52.48 182.485 53.62C182.485 54.36 182.085 54.72 180.585 54.9C178.365 55.18 176.985 55.58 176.405 56.14C175.805 56.68 175.505 57.42 175.505 58.34C175.505 60.2 176.805 61.24 178.925 61.24C180.445 61.24 181.665 60.7 182.565 59.64C182.565 60.72 183.085 61.24 184.005 61.24C184.485 61.24 184.905 61.14 185.225 60.96V59.64C185.065 59.7 184.865 59.74 184.705 59.74C184.345 59.74 184.165 59.54 184.165 59.16V53.2C184.165 51.58 183.225 50.42 180.305 50.42ZM177.305 58.22C177.305 57.14 178.025 56.56 179.525 56.34L181.265 56.08C181.725 56.02 182.185 55.86 182.465 55.66V57.44C182.465 58.58 181.285 59.74 179.305 59.74C178.045 59.74 177.305 59.18 177.305 58.22ZM196.694 50.42C193.654 50.42 191.814 52.6 191.814 55.96C191.814 59.2 193.634 61.24 196.654 61.24C199.234 61.24 200.834 59.8 201.214 57.22H199.474C199.254 58.8 198.274 59.74 196.634 59.74C194.754 59.74 193.614 58.22 193.614 55.96C193.614 53.4 194.734 51.92 196.834 51.92C198.194 51.92 199.114 52.64 199.394 53.98H201.154C200.874 51.62 199.194 50.42 196.694 50.42ZM207.576 50.42C204.476 50.42 202.556 52.54 202.556 55.84C202.556 59.14 204.576 61.24 207.576 61.24C210.616 61.24 212.596 59.04 212.596 55.84C212.596 52.68 210.756 50.42 207.576 50.42ZM204.356 55.84C204.356 53.44 205.756 51.92 207.556 51.92C209.436 51.92 210.796 53.5 210.796 55.84C210.796 58.18 209.436 59.74 207.576 59.74C205.696 59.74 204.356 58.18 204.356 55.84ZM219.6 50.42C218.08 50.42 217 51 216.24 52.3H216.2V50.66H214.6V61H216.3V55.1C216.3 53.22 217.4 51.92 219.34 51.92C220.72 51.92 221.46 52.8 221.46 53.94V61H223.16V54.12C223.16 51.74 222.1 50.42 219.6 50.42ZM229.154 50.42C226.894 50.42 225.274 51.54 225.274 53.36C225.274 54.9 226.154 55.74 228.814 56.3C230.114 56.58 230.974 56.84 231.394 57.1C231.814 57.36 232.034 57.74 232.034 58.2C232.034 59.22 231.174 59.74 229.534 59.74C227.814 59.74 226.794 59.02 226.754 57.74H225.054C225.154 60.06 226.814 61.24 229.434 61.24C232.134 61.24 233.834 60.02 233.834 57.98C233.834 56.42 232.774 55.56 230.774 55.12L229.174 54.76C227.774 54.44 227.074 54 227.074 53.24C227.074 52.4 227.914 51.92 229.274 51.92C230.634 51.92 231.574 52.54 231.674 53.64V53.66H233.374C233.234 51.5 231.934 50.42 229.154 50.42ZM235.714 50.66V57.56C235.714 59.98 236.854 61.24 239.274 61.24C240.714 61.24 241.894 60.68 242.634 59.36H242.674V61H244.274V50.66H242.574V56.56C242.574 58.44 241.494 59.74 239.514 59.74C238.214 59.74 237.414 58.9 237.414 57.7V50.66H235.714ZM251.807 50.42C250.347 50.42 249.247 51 248.467 52.18H248.427V50.66H246.827V61H248.527V54.52C248.527 53.92 249.027 52.84 249.847 52.32C250.267 52.06 250.747 51.92 251.287 51.92C252.627 51.92 253.227 52.66 253.227 54.14V61H254.927V54.5C254.927 53.06 255.927 51.92 257.627 51.92C259.027 51.92 259.627 52.66 259.627 54.14V61H261.327V53.36C261.327 51.56 260.227 50.42 257.907 50.42C256.527 50.42 255.347 51.08 254.647 52.18C254.287 51.06 253.327 50.42 251.807 50.42ZM263.978 46.72V48.8H265.678V46.72H263.978ZM263.978 50.66V61H265.678V50.66H263.978ZM275.851 46.72V52.04H275.811C275.171 51 273.791 50.42 272.451 50.42C269.491 50.42 267.751 52.64 267.751 55.8C267.751 59.02 269.611 61.24 272.511 61.24C274.051 61.24 275.271 60.66 275.811 59.6H275.851V61H277.551V46.72H275.851ZM269.551 55.92C269.551 53.46 270.671 51.92 272.631 51.92C274.731 51.92 275.911 53.5 275.911 55.84C275.911 58.12 274.791 59.74 272.751 59.74C270.751 59.74 269.551 58.1 269.551 55.92ZM284.407 50.42C281.687 50.42 280.127 51.58 280.007 53.88H281.707C281.787 52.54 282.607 51.92 284.287 51.92C285.887 51.92 286.587 52.48 286.587 53.62C286.587 54.36 286.187 54.72 284.687 54.9C282.467 55.18 281.087 55.58 280.507 56.14C279.907 56.68 279.607 57.42 279.607 58.34C279.607 60.2 280.907 61.24 283.027 61.24C284.547 61.24 285.767 60.7 286.667 59.64C286.667 60.72 287.187 61.24 288.107 61.24C288.587 61.24 289.007 61.14 289.327 60.96V59.64C289.167 59.7 288.967 59.74 288.807 59.74C288.447 59.74 288.267 59.54 288.267 59.16V53.2C288.267 51.58 287.327 50.42 284.407 50.42ZM281.407 58.22C281.407 57.14 282.127 56.56 283.627 56.34L285.367 56.08C285.827 56.02 286.287 55.86 286.567 55.66V57.44C286.567 58.58 285.387 59.74 283.407 59.74C282.147 59.74 281.407 59.18 281.407 58.22ZM301.575 50.42C299.995 50.42 298.815 51 298.275 52.06H298.235V50.66H296.535V64.96H298.235V59.62H298.275C298.995 60.72 300.335 61.24 301.615 61.24C304.535 61.24 306.335 59.02 306.335 55.86C306.335 52.68 304.575 50.42 301.575 50.42ZM298.175 55.82C298.175 53.56 299.275 51.92 301.315 51.92C303.335 51.92 304.535 53.56 304.535 55.74C304.535 58.26 303.395 59.74 301.435 59.74C299.375 59.74 298.175 58.2 298.175 55.82ZM312.791 50.42C309.691 50.42 307.771 52.54 307.771 55.84C307.771 59.14 309.791 61.24 312.791 61.24C315.831 61.24 317.811 59.04 317.811 55.84C317.811 52.68 315.971 50.42 312.791 50.42ZM309.571 55.84C309.571 53.44 310.971 51.92 312.771 51.92C314.651 51.92 316.011 53.5 316.011 55.84C316.011 58.18 314.651 59.74 312.791 59.74C310.911 59.74 309.571 58.18 309.571 55.84ZM324.955 50.42C323.335 50.42 322.195 51.2 321.395 52.84H321.355V50.66H319.755V61H321.455V56.38C321.455 53.54 322.655 52.22 325.195 52.22V50.42C325.095 50.42 325.035 50.42 324.955 50.42ZM332.142 46.72V61H333.842V46.72H332.142ZM340.935 50.42C337.835 50.42 335.915 52.54 335.915 55.84C335.915 59.14 337.935 61.24 340.935 61.24C343.975 61.24 345.955 59.04 345.955 55.84C345.955 52.68 344.115 50.42 340.935 50.42ZM337.715 55.84C337.715 53.44 339.115 51.92 340.915 51.92C342.795 51.92 344.155 53.5 344.155 55.84C344.155 58.18 342.795 59.74 340.935 59.74C339.055 59.74 337.715 58.18 337.715 55.84ZM351.4 50.42C349.14 50.42 347.52 51.54 347.52 53.36C347.52 54.9 348.4 55.74 351.06 56.3C352.36 56.58 353.22 56.84 353.64 57.1C354.06 57.36 354.28 57.74 354.28 58.2C354.28 59.22 353.42 59.74 351.78 59.74C350.06 59.74 349.04 59.02 349 57.74H347.3C347.4 60.06 349.06 61.24 351.68 61.24C354.38 61.24 356.08 60.02 356.08 57.98C356.08 56.42 355.02 55.56 353.02 55.12L351.42 54.76C350.02 54.44 349.32 54 349.32 53.24C349.32 52.4 350.16 51.92 351.52 51.92C352.88 51.92 353.82 52.54 353.92 53.64V53.66H355.62C355.48 51.5 354.18 50.42 351.4 50.42ZM366.966 50.42C364.706 50.42 363.086 51.54 363.086 53.36C363.086 54.9 363.966 55.74 366.626 56.3C367.926 56.58 368.786 56.84 369.206 57.1C369.626 57.36 369.846 57.74 369.846 58.2C369.846 59.22 368.986 59.74 367.346 59.74C365.626 59.74 364.606 59.02 364.566 57.74H362.866C362.966 60.06 364.626 61.24 367.246 61.24C369.946 61.24 371.646 60.02 371.646 57.98C371.646 56.42 370.586 55.56 368.586 55.12L366.986 54.76C365.586 54.44 364.886 54 364.886 53.24C364.886 52.4 365.726 51.92 367.086 51.92C368.446 51.92 369.386 52.54 369.486 53.64V53.66H371.186C371.046 51.5 369.746 50.42 366.966 50.42ZM377.826 50.42C376.426 50.42 375.246 50.94 374.326 51.96C373.406 52.98 372.966 54.24 372.966 55.76C372.966 57.56 373.666 59.52 375.186 60.52C375.926 61 376.846 61.24 377.926 61.24C380.266 61.24 381.886 60.02 382.346 57.72H380.666C380.386 59 379.506 59.74 377.986 59.74C375.986 59.74 374.766 58.44 374.766 56.46V56.34H382.506V56.14C382.506 54.46 382.106 53.08 381.286 52.02C380.466 50.96 379.306 50.42 377.826 50.42ZM374.766 54.84C374.906 53.08 376.106 51.92 377.706 51.92C379.386 51.92 380.606 53.18 380.706 54.84H374.766ZM389.408 50.42C387.788 50.42 386.648 51.2 385.848 52.84H385.808V50.66H384.208V61H385.908V56.38C385.908 53.54 387.108 52.22 389.648 52.22V50.42C389.548 50.42 389.488 50.42 389.408 50.42ZM389.928 50.66L393.768 61H395.588L399.368 50.66H397.588L394.768 59.28H394.728L391.828 50.66H389.928ZM401.028 46.72V48.8H402.728V46.72H401.028ZM401.028 50.66V61H402.728V50.66H401.028ZM412.902 46.72V52.04H412.862C412.222 51 410.842 50.42 409.502 50.42C406.542 50.42 404.802 52.64 404.802 55.8C404.802 59.02 406.662 61.24 409.562 61.24C411.102 61.24 412.322 60.66 412.862 59.6H412.902V61H414.602V46.72H412.902ZM406.602 55.92C406.602 53.46 407.722 51.92 409.682 51.92C411.782 51.92 412.962 53.5 412.962 55.84C412.962 58.12 411.842 59.74 409.802 59.74C407.802 59.74 406.602 58.1 406.602 55.92ZM421.678 50.42C418.577 50.42 416.658 52.54 416.658 55.84C416.658 59.14 418.678 61.24 421.678 61.24C424.718 61.24 426.698 59.04 426.698 55.84C426.698 52.68 424.858 50.42 421.678 50.42ZM418.458 55.84C418.458 53.44 419.858 51.92 421.658 51.92C423.538 51.92 424.898 53.5 424.898 55.84C424.898 58.18 423.538 59.74 421.678 59.74C419.798 59.74 418.458 58.18 418.458 55.84ZM433.842 50.42C432.222 50.42 431.082 51.2 430.282 52.84H430.242V50.66H428.642V61H430.342V56.38C430.342 53.54 431.542 52.22 434.082 52.22V50.42C433.982 50.42 433.922 50.42 433.842 50.42ZM439.31 50.42C437.91 50.42 436.73 50.94 435.81 51.96C434.89 52.98 434.45 54.24 434.45 55.76C434.45 57.56 435.15 59.52 436.67 60.52C437.41 61 438.33 61.24 439.41 61.24C441.75 61.24 443.37 60.02 443.83 57.72H442.15C441.87 59 440.99 59.74 439.47 59.74C437.47 59.74 436.25 58.44 436.25 56.46V56.34H443.99V56.14C443.99 54.46 443.59 53.08 442.77 52.02C441.95 50.96 440.79 50.42 439.31 50.42ZM436.25 54.84C436.39 53.08 437.59 51.92 439.19 51.92C440.87 51.92 442.09 53.18 442.19 54.84H436.25ZM449.193 50.42C446.933 50.42 445.313 51.54 445.313 53.36C445.313 54.9 446.193 55.74 448.853 56.3C450.153 56.58 451.013 56.84 451.433 57.1C451.853 57.36 452.073 57.74 452.073 58.2C452.073 59.22 451.213 59.74 449.573 59.74C447.853 59.74 446.833 59.02 446.793 57.74H445.093C445.193 60.06 446.853 61.24 449.473 61.24C452.173 61.24 453.873 60.02 453.873 57.98C453.873 56.42 452.813 55.56 450.813 55.12L449.213 54.76C447.813 54.44 447.113 54 447.113 53.24C447.113 52.4 447.953 51.92 449.313 51.92C450.673 51.92 451.613 52.54 451.713 53.64V53.66H453.413C453.273 51.5 451.973 50.42 449.193 50.42ZM460.199 50.66L464.299 60.94L463.639 62.6C463.379 63.3 462.899 63.64 462.199 63.64C461.859 63.64 461.519 63.5 461.199 63.4V64.96C461.579 65.1 461.959 65.14 462.379 65.14C463.899 65.14 464.579 64.5 465.479 62.1L469.879 50.66H468.079L465.179 59.12H465.139L462.119 50.66H460.199ZM481.345 50.42C478.245 50.42 476.325 52.54 476.325 55.84C476.325 59.14 478.345 61.24 481.345 61.24C484.385 61.24 486.365 59.04 486.365 55.84C486.365 52.68 484.525 50.42 481.345 50.42ZM478.125 55.84C478.125 53.44 479.525 51.92 481.325 51.92C483.205 51.92 484.565 53.5 484.565 55.84C484.565 58.18 483.205 59.74 481.345 59.74C479.465 59.74 478.125 58.18 478.125 55.84ZM491.91 46.56C490.03 46.56 489.07 47.52 489.07 49.04V50.66H487.33V52.16H489.07V61H490.77V52.16H492.77V50.66H490.77V49.18C490.77 48.48 491.13 48.06 492.07 48.06C492.33 48.06 492.77 48.1 493.03 48.2V46.72C492.79 46.64 492.17 46.56 491.91 46.56ZM494.39 46.72V48.8H496.09V46.72H494.39ZM494.39 50.66V61H496.09V50.66H494.39ZM503.041 50.42C500.001 50.42 498.161 52.6 498.161 55.96C498.161 59.2 499.981 61.24 503.001 61.24C505.581 61.24 507.181 59.8 507.561 57.22H505.821C505.601 58.8 504.621 59.74 502.981 59.74C501.101 59.74 499.961 58.22 499.961 55.96C499.961 53.4 501.081 51.92 503.181 51.92C504.541 51.92 505.461 52.64 505.741 53.98H507.501C507.221 51.62 505.541 50.42 503.041 50.42ZM509.564 46.72V48.8H511.264V46.72H509.564ZM509.564 50.66V61H511.264V50.66H509.564ZM518.897 50.42C517.377 50.42 516.297 51 515.537 52.3H515.497V50.66H513.897V61H515.597V55.1C515.597 53.22 516.697 51.92 518.637 51.92C520.017 51.92 520.757 52.8 520.757 53.94V61H522.457V54.12C522.457 51.74 521.397 50.42 518.897 50.42ZM529.25 50.42C526.53 50.42 524.97 51.58 524.85 53.88H526.55C526.63 52.54 527.45 51.92 529.13 51.92C530.73 51.92 531.43 52.48 531.43 53.62C531.43 54.36 531.03 54.72 529.53 54.9C527.31 55.18 525.93 55.58 525.35 56.14C524.75 56.68 524.45 57.42 524.45 58.34C524.45 60.2 525.75 61.24 527.87 61.24C529.39 61.24 530.61 60.7 531.51 59.64C531.51 60.72 532.03 61.24 532.95 61.24C533.43 61.24 533.85 61.14 534.17 60.96V59.64C534.01 59.7 533.81 59.74 533.65 59.74C533.29 59.74 533.11 59.54 533.11 59.16V53.2C533.11 51.58 532.17 50.42 529.25 50.42ZM526.25 58.22C526.25 57.14 526.97 56.56 528.47 56.34L530.21 56.08C530.67 56.02 531.13 55.86 531.41 55.66V57.44C531.41 58.58 530.23 59.74 528.25 59.74C526.99 59.74 526.25 59.18 526.25 58.22ZM539.193 50.42C536.933 50.42 535.313 51.54 535.313 53.36C535.313 54.9 536.193 55.74 538.853 56.3C540.153 56.58 541.013 56.84 541.433 57.1C541.853 57.36 542.073 57.74 542.073 58.2C542.073 59.22 541.213 59.74 539.573 59.74C537.853 59.74 536.833 59.02 536.793 57.74H535.093C535.193 60.06 536.853 61.24 539.473 61.24C542.173 61.24 543.873 60.02 543.873 57.98C543.873 56.42 542.813 55.56 540.813 55.12L539.213 54.76C537.813 54.44 537.113 54 537.113 53.24C537.113 52.4 537.953 51.92 539.313 51.92C540.673 51.92 541.613 52.54 541.713 53.64V53.66H543.413C543.273 51.5 541.973 50.42 539.193 50.42ZM558.859 46.72V52.04H558.819C558.179 51 556.799 50.42 555.459 50.42C552.499 50.42 550.759 52.64 550.759 55.8C550.759 59.02 552.619 61.24 555.519 61.24C557.059 61.24 558.279 60.66 558.819 59.6H558.859V61H560.559V46.72H558.859ZM552.559 55.92C552.559 53.46 553.679 51.92 555.639 51.92C557.739 51.92 558.919 53.5 558.919 55.84C558.919 58.12 557.799 59.74 555.759 59.74C553.759 59.74 552.559 58.1 552.559 55.92ZM567.475 50.42C566.075 50.42 564.895 50.94 563.975 51.96C563.055 52.98 562.615 54.24 562.615 55.76C562.615 57.56 563.315 59.52 564.835 60.52C565.575 61 566.495 61.24 567.575 61.24C569.915 61.24 571.535 60.02 571.995 57.72H570.315C570.035 59 569.155 59.74 567.635 59.74C565.635 59.74 564.415 58.44 564.415 56.46V56.34H572.155V56.14C572.155 54.46 571.755 53.08 570.935 52.02C570.115 50.96 568.955 50.42 567.475 50.42ZM564.415 54.84C564.555 53.08 565.755 51.92 567.355 51.92C569.035 51.92 570.255 53.18 570.355 54.84H564.415ZM96.1493 69.72V71.32H104.349L95.4693 82.4V84H106.829V82.4H97.7293L106.589 71.32V69.72H96.1493ZM112.696 69.72L107.116 84H109.076L110.676 79.7H116.716L118.276 84H120.376L114.796 69.72H112.696ZM113.736 71.44L116.116 78.1H111.276L113.696 71.44H113.736ZM121.785 69.72V84H123.685V77.9H128.385C129.385 77.92 130.025 78.32 130.325 79.08C130.625 79.84 130.785 80.6 130.805 81.34L130.885 82.9C130.965 83.44 130.985 83.68 131.225 84H133.345C132.845 83.36 132.605 82.54 132.545 80.86C132.445 78.24 131.785 77.4 130.365 77.12V77.08C132.025 76.6 132.845 75.34 132.845 73.46C132.845 71.08 131.045 69.72 128.585 69.72H121.785ZM123.685 76.3V71.32H128.485C130.045 71.32 130.945 72.22 130.945 73.76C130.945 75.5 129.845 76.3 127.745 76.3H123.685ZM139.356 69.72L133.776 84H135.736L137.336 79.7H143.376L144.936 84H147.036L141.456 69.72H139.356ZM140.396 71.44L142.776 78.1H137.936L140.356 71.44H140.396ZM148.545 81.78V84H150.765V81.78H148.545ZM160.071 69.38C157.991 69.38 156.351 70.08 155.131 71.48C153.911 72.88 153.311 74.68 153.311 76.9C153.311 79.16 153.891 80.96 155.071 82.32C156.251 83.66 157.871 84.34 159.911 84.34C163.431 84.34 165.691 82.3 166.091 78.62H164.191C164.011 81.12 162.411 82.74 160.071 82.74C156.951 82.74 155.211 80.38 155.211 76.76C155.211 73.36 157.031 70.98 160.051 70.98C162.151 70.98 163.631 72.06 164.051 74.02H165.951C165.531 71.12 163.191 69.38 160.071 69.38ZM174.485 69.38C172.405 69.38 170.745 70.08 169.505 71.5C168.265 72.92 167.645 74.7 167.645 76.86C167.645 81.04 170.205 84.34 174.485 84.34C178.625 84.34 181.325 81.22 181.325 76.86C181.325 72.76 178.825 69.38 174.485 69.38ZM169.545 76.86C169.545 75.18 169.985 73.78 170.845 72.66C171.725 71.54 172.925 70.98 174.465 70.98C176.025 70.98 177.245 71.54 178.125 72.66C178.985 73.76 179.425 75.18 179.425 76.86C179.425 80.24 177.605 82.74 174.485 82.74C171.485 82.74 169.545 80.32 169.545 76.86ZM183.68 69.72V84H185.48V72.12H185.52L189.98 84H191.6L196.06 72.12H196.1V84H197.9V69.72H195.3L190.78 81.72L186.28 69.72H183.68ZM211.448 73.42C209.868 73.42 208.688 74 208.148 75.06H208.108V73.66H206.408V87.96H208.108V82.62H208.148C208.868 83.72 210.208 84.24 211.488 84.24C214.408 84.24 216.208 82.02 216.208 78.86C216.208 75.68 214.448 73.42 211.448 73.42ZM208.048 78.82C208.048 76.56 209.148 74.92 211.188 74.92C213.208 74.92 214.408 76.56 214.408 78.74C214.408 81.26 213.268 82.74 211.308 82.74C209.248 82.74 208.048 81.2 208.048 78.82ZM223.344 73.42C221.724 73.42 220.584 74.2 219.784 75.84H219.744V73.66H218.144V84H219.844V79.38C219.844 76.54 221.044 75.22 223.584 75.22V73.42C223.484 73.42 223.424 73.42 223.344 73.42ZM228.972 73.42C225.872 73.42 223.952 75.54 223.952 78.84C223.952 82.14 225.972 84.24 228.972 84.24C232.012 84.24 233.992 82.04 233.992 78.84C233.992 75.68 232.152 73.42 228.972 73.42ZM225.752 78.84C225.752 76.44 227.152 74.92 228.952 74.92C230.832 74.92 232.192 76.5 232.192 78.84C232.192 81.18 230.832 82.74 228.972 82.74C227.092 82.74 225.752 81.18 225.752 78.84ZM234.997 73.66L238.837 84H240.657L244.437 73.66H242.657L239.837 82.28H239.797L236.897 73.66H234.997ZM246.097 69.72V71.8H247.797V69.72H246.097ZM246.097 73.66V84H247.797V73.66H246.097ZM254.73 73.42C253.33 73.42 252.15 73.94 251.23 74.96C250.31 75.98 249.87 77.24 249.87 78.76C249.87 80.56 250.57 82.52 252.09 83.52C252.83 84 253.75 84.24 254.83 84.24C257.17 84.24 258.79 83.02 259.25 80.72H257.57C257.29 82 256.41 82.74 254.89 82.74C252.89 82.74 251.67 81.44 251.67 79.46V79.34H259.41V79.14C259.41 77.46 259.01 76.08 258.19 75.02C257.37 73.96 256.21 73.42 254.73 73.42ZM251.67 77.84C251.81 76.08 253.01 74.92 254.61 74.92C256.29 74.92 257.51 76.18 257.61 77.84H251.67ZM266.173 73.42C264.653 73.42 263.573 74 262.813 75.3H262.773V73.66H261.173V84H262.873V78.1C262.873 76.22 263.973 74.92 265.913 74.92C267.293 74.92 268.033 75.8 268.033 76.94V84H269.733V77.12C269.733 74.74 268.673 73.42 266.173 73.42ZM276.586 73.42C275.186 73.42 274.006 73.94 273.086 74.96C272.166 75.98 271.726 77.24 271.726 78.76C271.726 80.56 272.426 82.52 273.946 83.52C274.686 84 275.606 84.24 276.686 84.24C279.026 84.24 280.646 83.02 281.106 80.72H279.426C279.146 82 278.266 82.74 276.746 82.74C274.746 82.74 273.526 81.44 273.526 79.46V79.34H281.266V79.14C281.266 77.46 280.866 76.08 280.046 75.02C279.226 73.96 278.066 73.42 276.586 73.42ZM273.526 77.84C273.666 76.08 274.866 74.92 276.466 74.92C278.146 74.92 279.366 76.18 279.466 77.84H273.526ZM296.134 69.72V75.04H296.094C295.454 74 294.074 73.42 292.734 73.42C289.774 73.42 288.034 75.64 288.034 78.8C288.034 82.02 289.894 84.24 292.794 84.24C294.334 84.24 295.554 83.66 296.094 82.6H296.134V84H297.834V69.72H296.134ZM289.834 78.92C289.834 76.46 290.954 74.92 292.914 74.92C295.014 74.92 296.194 76.5 296.194 78.84C296.194 81.12 295.074 82.74 293.034 82.74C291.034 82.74 289.834 81.1 289.834 78.92ZM304.75 73.42C303.35 73.42 302.17 73.94 301.25 74.96C300.33 75.98 299.89 77.24 299.89 78.76C299.89 80.56 300.59 82.52 302.11 83.52C302.85 84 303.77 84.24 304.85 84.24C307.19 84.24 308.81 83.02 309.27 80.72H307.59C307.31 82 306.43 82.74 304.91 82.74C302.91 82.74 301.69 81.44 301.69 79.46V79.34H309.43V79.14C309.43 77.46 309.03 76.08 308.21 75.02C307.39 73.96 306.23 73.42 304.75 73.42ZM301.69 77.84C301.83 76.08 303.03 74.92 304.63 74.92C306.31 74.92 307.53 76.18 307.63 77.84H301.69ZM320.299 69.56C318.419 69.56 317.459 70.52 317.459 72.04V73.66H315.719V75.16H317.459V84H319.159V75.16H321.159V73.66H319.159V72.18C319.159 71.48 319.519 71.06 320.459 71.06C320.719 71.06 321.159 71.1 321.419 71.2V69.72C321.179 69.64 320.559 69.56 320.299 69.56ZM322.676 73.66V80.56C322.676 82.98 323.816 84.24 326.236 84.24C327.676 84.24 328.856 83.68 329.596 82.36H329.636V84H331.236V73.66H329.536V79.56C329.536 81.44 328.456 82.74 326.476 82.74C325.176 82.74 324.376 81.9 324.376 80.7V73.66H322.676ZM338.09 73.42C336.69 73.42 335.51 73.94 334.59 74.96C333.67 75.98 333.23 77.24 333.23 78.76C333.23 80.56 333.93 82.52 335.45 83.52C336.19 84 337.11 84.24 338.19 84.24C340.53 84.24 342.15 83.02 342.61 80.72H340.93C340.65 82 339.77 82.74 338.25 82.74C336.25 82.74 335.03 81.44 335.03 79.46V79.34H342.77V79.14C342.77 77.46 342.37 76.08 341.55 75.02C340.73 73.96 339.57 73.42 338.09 73.42ZM335.03 77.84C335.17 76.08 336.37 74.92 337.97 74.92C339.65 74.92 340.87 76.18 340.97 77.84H335.03ZM349.532 73.42C348.012 73.42 346.932 74 346.172 75.3H346.132V73.66H344.532V84H346.232V78.1C346.232 76.22 347.332 74.92 349.272 74.92C350.652 74.92 351.392 75.8 351.392 76.94V84H353.092V77.12C353.092 74.74 352.032 73.42 349.532 73.42ZM356.305 70.56V73.66H354.545V75.16H356.305V81.84C356.305 83.4 356.785 84 358.665 84H360.065V82.5H359.585C359.225 82.5 358.865 82.48 358.525 82.46C358.165 82.42 358.005 82.16 358.005 81.64V75.16H360.065V73.66H358.005V70.56H356.305ZM366.254 73.42C364.854 73.42 363.674 73.94 362.754 74.96C361.834 75.98 361.394 77.24 361.394 78.76C361.394 80.56 362.094 82.52 363.614 83.52C364.354 84 365.274 84.24 366.354 84.24C368.694 84.24 370.314 83.02 370.774 80.72H369.094C368.814 82 367.934 82.74 366.414 82.74C364.414 82.74 363.194 81.44 363.194 79.46V79.34H370.934V79.14C370.934 77.46 370.534 76.08 369.714 75.02C368.894 73.96 367.734 73.42 366.254 73.42ZM363.194 77.84C363.334 76.08 364.534 74.92 366.134 74.92C367.814 74.92 369.034 76.18 369.134 77.84H363.194ZM376.136 73.42C373.876 73.42 372.256 74.54 372.256 76.36C372.256 77.9 373.136 78.74 375.796 79.3C377.096 79.58 377.956 79.84 378.376 80.1C378.796 80.36 379.016 80.74 379.016 81.2C379.016 82.22 378.156 82.74 376.516 82.74C374.796 82.74 373.776 82.02 373.736 80.74H372.036C372.136 83.06 373.796 84.24 376.416 84.24C379.116 84.24 380.816 83.02 380.816 80.98C380.816 79.42 379.756 78.56 377.756 78.12L376.156 77.76C374.756 77.44 374.056 77 374.056 76.24C374.056 75.4 374.896 74.92 376.256 74.92C377.616 74.92 378.556 75.54 378.656 76.64V76.66H380.356C380.216 74.5 378.916 73.42 376.136 73.42ZM393.402 73.42C391.782 73.42 390.642 74.2 389.842 75.84H389.802V73.66H388.202V84H389.902V79.38C389.902 76.54 391.102 75.22 393.642 75.22V73.42C393.542 73.42 393.482 73.42 393.402 73.42ZM398.871 73.42C397.471 73.42 396.291 73.94 395.371 74.96C394.451 75.98 394.011 77.24 394.011 78.76C394.011 80.56 394.711 82.52 396.231 83.52C396.971 84 397.891 84.24 398.971 84.24C401.311 84.24 402.931 83.02 403.391 80.72H401.711C401.431 82 400.551 82.74 399.031 82.74C397.031 82.74 395.811 81.44 395.811 79.46V79.34H403.551V79.14C403.551 77.46 403.151 76.08 402.331 75.02C401.511 73.96 400.351 73.42 398.871 73.42ZM395.811 77.84C395.951 76.08 397.151 74.92 398.751 74.92C400.431 74.92 401.651 76.18 401.751 77.84H395.811ZM410.313 73.42C408.793 73.42 407.713 74 406.953 75.3H406.913V73.66H405.313V84H407.013V78.1C407.013 76.22 408.113 74.92 410.053 74.92C411.433 74.92 412.173 75.8 412.173 76.94V84H413.873V77.12C413.873 74.74 412.813 73.42 410.313 73.42ZM420.886 73.42C417.786 73.42 415.866 75.54 415.866 78.84C415.866 82.14 417.886 84.24 420.886 84.24C423.926 84.24 425.906 82.04 425.906 78.84C425.906 75.68 424.066 73.42 420.886 73.42ZM417.666 78.84C417.666 76.44 419.066 74.92 420.866 74.92C422.746 74.92 424.106 76.5 424.106 78.84C424.106 81.18 422.746 82.74 420.886 82.74C419.006 82.74 417.666 81.18 417.666 78.84ZM426.911 73.66L430.751 84H432.571L436.351 73.66H434.571L431.751 82.28H431.711L428.811 73.66H426.911ZM442.151 73.42C439.431 73.42 437.871 74.58 437.751 76.88H439.451C439.531 75.54 440.351 74.92 442.031 74.92C443.631 74.92 444.331 75.48 444.331 76.62C444.331 77.36 443.931 77.72 442.431 77.9C440.211 78.18 438.831 78.58 438.251 79.14C437.651 79.68 437.351 80.42 437.351 81.34C437.351 83.2 438.651 84.24 440.771 84.24C442.291 84.24 443.511 83.7 444.411 82.64C444.411 83.72 444.931 84.24 445.851 84.24C446.331 84.24 446.751 84.14 447.071 83.96V82.64C446.911 82.7 446.711 82.74 446.551 82.74C446.191 82.74 446.011 82.54 446.011 82.16V76.2C446.011 74.58 445.071 73.42 442.151 73.42ZM439.151 81.22C439.151 80.14 439.871 79.56 441.371 79.34L443.111 79.08C443.571 79.02 444.031 78.86 444.311 78.66V80.44C444.311 81.58 443.131 82.74 441.151 82.74C439.891 82.74 439.151 82.18 439.151 81.22ZM448.713 69.72V84H450.413V82.62H450.453C451.173 83.72 452.513 84.24 453.793 84.24C456.713 84.24 458.513 82.02 458.513 78.86C458.513 75.72 456.713 73.42 453.753 73.42C452.153 73.42 450.993 74 450.453 75.06H450.413V69.72H448.713ZM450.353 78.82C450.353 76.56 451.493 74.92 453.493 74.92C455.513 74.92 456.713 76.56 456.713 78.74C456.713 81.26 455.573 82.74 453.613 82.74C451.553 82.74 450.353 81.2 450.353 78.82ZM460.609 69.72V84H462.309V69.72H460.609ZM469.242 73.42C467.842 73.42 466.662 73.94 465.742 74.96C464.822 75.98 464.382 77.24 464.382 78.76C464.382 80.56 465.082 82.52 466.602 83.52C467.342 84 468.262 84.24 469.342 84.24C471.682 84.24 473.302 83.02 473.762 80.72H472.082C471.802 82 470.922 82.74 469.402 82.74C467.402 82.74 466.182 81.44 466.182 79.46V79.34H473.922V79.14C473.922 77.46 473.522 76.08 472.702 75.02C471.882 73.96 470.722 73.42 469.242 73.42ZM466.182 77.84C466.322 76.08 467.522 74.92 469.122 74.92C470.802 74.92 472.022 76.18 472.122 77.84H466.182ZM479.124 73.42C476.864 73.42 475.244 74.54 475.244 76.36C475.244 77.9 476.124 78.74 478.784 79.3C480.084 79.58 480.944 79.84 481.364 80.1C481.784 80.36 482.004 80.74 482.004 81.2C482.004 82.22 481.144 82.74 479.504 82.74C477.784 82.74 476.764 82.02 476.724 80.74H475.024C475.124 83.06 476.784 84.24 479.404 84.24C482.104 84.24 483.804 83.02 483.804 80.98C483.804 79.42 482.744 78.56 480.744 78.12L479.144 77.76C477.744 77.44 477.044 77 477.044 76.24C477.044 75.4 477.884 74.92 479.244 74.92C480.604 74.92 481.544 75.54 481.644 76.64V76.66H483.344C483.204 74.5 481.904 73.42 479.124 73.42ZM486.064 81.78V84H488.284V81.78H486.064Z" fill="white"/>
</svg>
